<?xml version="1.0" standalone="no"?>
<!DOCTYPE svg PUBLIC "-//W3C//DTD SVG 20010904//EN"
 "http://www.w3.org/TR/2001/REC-SVG-20010904/DTD/svg10.dtd">
<svg version="1.0" xmlns="http://www.w3.org/2000/svg"
 width="848.000000pt" height="848.000000pt" viewBox="0 0 848.000000 848.000000"
 preserveAspectRatio="xMidYMid meet">
<metadata>
Created by potrace 1.11, written by Peter Selinger 2001-2013
</metadata>
<g transform="translate(0.000000,848.000000) scale(0.100000,-0.100000)"
fill="#000000" stroke="none">
<path d="M4909 8467 c-64 -18 -126 -57 -179 -112 -25 -26 -68 -71 -96 -99 -39
-40 -57 -68 -75 -122 -13 -38 -25 -76 -26 -84 -1 -8 -18 -71 -38 -140 -38
-131 -43 -150 -51 -189 -3 -13 -16 -62 -29 -109 -14 -46 -27 -95 -29 -108 -3
-13 -7 -27 -10 -32 -3 -5 -8 -22 -11 -38 -8 -38 -13 -58 -15 -61 -3 -3 -4 -7
-14 -48 -4 -16 -26 -95 -48 -174 -22 -80 -42 -152 -43 -160 -2 -9 -4 -16 -5
-16 -1 0 -3 -7 -5 -15 -15 -56 -58 -212 -84 -300 -17 -58 -33 -114 -36 -125
-3 -11 -26 -85 -52 -165 -26 -80 -48 -147 -48 -150 -2 -6 -8 -22 -37 -97 -37
-96 -99 -168 -171 -198 -46 -19 -74 -23 -187 -30 -52 -2 -121 -8 -153 -11
-176 -18 -327 -24 -557 -23 -107 0 -201 0 -207 0 -17 -1 37 -1 -663 0 -757 2
-805 -1 -970 -58 -41 -14 -77 -29 -80 -32 -3 -3 -23 -16 -44 -28 -46 -24 -153
-128 -162 -155 -3 -10 -9 -18 -13 -18 -13 0 -91 -176 -117 -264 -31 -107 -34
-289 -5 -381 46 -149 142 -304 263 -426 80 -81 218 -189 276 -217 17 -9 32
-19 32 -24 0 -4 6 -8 13 -8 8 0 22 -9 32 -20 10 -11 23 -20 29 -20 6 0 35 -18
64 -40 29 -22 57 -40 62 -40 6 0 10 -3 10 -8 0 -4 18 -18 40 -32 22 -14 40
-28 40 -32 0 -5 5 -8 12 -8 6 0 18 -7 27 -15 9 -9 59 -46 111 -82 52 -37 97
-71 98 -75 2 -4 8 -8 13 -8 8 0 379 -258 414 -287 6 -5 33 -24 60 -43 28 -18
52 -36 55 -40 3 -3 18 -14 35 -24 16 -11 34 -23 40 -28 5 -5 46 -34 90 -65
182 -129 240 -209 238 -328 0 -72 -7 -116 -22 -150 -5 -11 -26 -67 -46 -125
-38 -107 -163 -445 -215 -580 -16 -41 -56 -149 -90 -240 -33 -91 -65 -174 -70
-185 -5 -11 -21 -54 -35 -95 -15 -41 -42 -115 -59 -165 -18 -49 -39 -101 -46
-115 -7 -14 -12 -25 -11 -25 3 0 -2 -15 -54 -155 -26 -69 -48 -129 -49 -135
-1 -5 -10 -32 -19 -60 -9 -27 -19 -61 -21 -75 -3 -14 -5 -25 -6 -25 -11 0 -17
-218 -7 -282 34 -223 190 -407 401 -472 148 -46 302 -46 446 1 129 41 206 88
440 267 69 52 148 112 175 133 28 21 56 44 64 51 15 12 52 39 101 74 13 10 38
30 55 44 16 14 46 36 65 49 19 13 37 27 40 30 3 3 50 39 105 80 55 41 102 77
105 80 3 3 97 75 210 159 180 135 233 176 275 209 6 5 36 20 67 35 58 28 131
36 166 18 9 -5 28 -14 42 -20 24 -11 220 -148 230 -161 3 -3 21 -17 40 -30 19
-13 37 -27 40 -30 3 -3 50 -39 105 -80 55 -41 103 -79 107 -85 4 -5 8 -6 8 -1
0 6 6 3 13 -6 6 -8 66 -55 132 -104 66 -49 122 -91 125 -94 3 -3 70 -55 150
-115 80 -60 150 -113 155 -118 78 -69 339 -249 410 -283 183 -88 377 -115 500
-69 117 44 225 142 277 251 36 77 39 92 42 188 3 86 -12 154 -64 296 -17 47
-32 90 -34 95 -2 6 -6 17 -9 25 -7 15 -65 175 -107 295 -31 86 -61 167 -70
190 -5 11 -16 40 -24 65 -8 25 -19 56 -24 70 -6 14 -23 59 -37 100 -32 90 -64
178 -75 205 -4 11 -13 36 -20 55 -7 19 -16 44 -20 55 -25 59 -52 166 -57 220
-10 110 16 139 358 394 134 100 252 188 262 196 9 8 20 15 23 15 3 0 16 9 28
20 11 10 133 103 270 205 138 103 267 205 288 227 47 50 97 136 105 180 35
204 -46 386 -214 476 -56 29 -73 35 -153 49 -19 3 -289 6 -600 7 -508 2 -569
4 -604 19 -63 28 -94 73 -128 186 -10 36 -21 77 -24 90 -3 13 -9 31 -13 40 -5
9 -10 21 -10 26 -1 6 -6 28 -12 50 -6 22 -11 41 -10 43 1 1 -5 18 -13 37 -8
19 -13 35 -11 35 2 0 -3 19 -11 43 -9 23 -18 53 -20 67 -3 14 -9 36 -14 50 -9
24 -93 311 -110 375 -56 212 -158 318 -315 329 -109 8 -201 -43 -270 -148 -26
-39 -107 -249 -119 -311 -2 -5 -19 -62 -39 -125 -29 -94 -92 -313 -102 -355
-12 -55 -63 -117 -111 -136 -20 -8 -142 -11 -410 -11 -210 0 -399 -3 -420 -8
-20 -5 -48 -17 -62 -27 -48 -36 -61 -138 -23 -189 9 -13 34 -31 56 -41 36 -17
77 -18 525 -18 592 0 602 1 640 46 15 16 55 122 64 169 2 8 5 22 8 30 7 20 38
126 43 148 3 9 18 64 36 122 17 58 35 123 41 145 5 22 12 47 15 55 3 8 7 20 8
26 2 6 11 38 20 70 16 55 18 57 28 34 5 -14 15 -38 22 -55 7 -16 18 -48 25
-70 7 -22 17 -46 23 -52 5 -7 6 -13 2 -13 -4 0 -3 -6 2 -12 19 -25 168 -491
243 -763 78 -282 112 -309 388 -308 62 1 115 3 118 5 2 3 26 2 54 -2 27 -4 50
-4 50 -1 0 5 242 5 505 1 22 0 90 1 150 3 131 3 189 -12 179 -47 -3 -12 -18
-31 -32 -44 -41 -35 -251 -182 -261 -182 -5 0 -11 -3 -13 -8 -5 -11 -288 -212
-299 -212 -5 0 -9 -4 -9 -9 0 -4 -21 -22 -47 -38 -42 -27 -542 -379 -568 -400
-6 -4 -36 -28 -67 -51 -68 -52 -97 -106 -94 -172 2 -25 5 -52 8 -60 14 -39
109 -327 113 -340 2 -8 4 -16 5 -17 2 -2 3 -6 5 -10 1 -5 4 -15 8 -23 3 -8 22
-62 42 -120 95 -274 225 -635 245 -685 5 -11 18 -49 30 -85 11 -36 25 -74 30
-85 20 -44 53 -146 48 -150 -2 -3 -13 3 -24 13 -10 9 -39 30 -64 46 -24 16
-146 106 -270 199 -279 211 -632 479 -645 489 -5 5 -21 17 -34 28 -13 11 -27
20 -30 20 -3 0 -17 10 -31 22 -14 13 -52 43 -85 67 -33 25 -61 48 -63 53 -2 4
-8 8 -13 8 -5 0 -49 31 -97 68 -113 89 -223 162 -292 195 -49 23 -74 30 -155
41 -20 3 -88 -9 -115 -21 -8 -3 -20 -7 -27 -9 -28 -5 -147 -85 -288 -190 -316
-238 -470 -357 -473 -365 -2 -5 -10 -9 -17 -9 -7 0 -15 -4 -17 -8 -1 -5 -30
-28 -63 -52 -33 -24 -62 -46 -65 -50 -3 -4 -32 -26 -65 -50 -33 -24 -65 -49
-72 -54 -6 -6 -61 -49 -123 -96 -62 -47 -147 -112 -190 -145 -43 -33 -91 -69
-106 -80 -15 -11 -39 -30 -52 -42 -41 -37 -117 -82 -150 -89 l-32 -7 35 104
c20 57 39 111 42 119 3 8 7 20 9 25 2 6 24 66 49 135 25 69 53 145 61 170 8
25 19 54 24 65 9 21 34 90 76 210 13 39 27 77 31 85 3 8 7 18 8 23 2 4 4 9 5
12 1 3 3 8 4 13 1 4 18 52 38 107 21 55 53 143 71 195 19 52 55 154 81 225 26
72 48 135 49 140 1 6 4 12 7 15 3 3 18 46 35 95 16 50 32 92 35 95 3 3 6 12 8
20 1 8 11 38 22 65 50 132 121 342 133 393 30 130 -2 219 -109 308 -25 22 -51
44 -57 49 -7 6 -75 55 -152 110 -77 55 -147 105 -155 112 -61 48 -112 83 -120
83 -6 0 -10 3 -10 8 0 4 -17 18 -38 32 -20 14 -39 27 -42 30 -3 3 -22 16 -42
30 -21 14 -38 28 -38 33 0 4 -5 7 -11 7 -7 0 -31 16 -55 35 -23 19 -47 35 -52
35 -6 0 -12 4 -14 8 -1 4 -97 76 -213 160 -115 83 -214 155 -220 159 -5 5 -32
24 -60 43 -27 19 -52 37 -55 41 -3 3 -27 21 -55 40 -48 33 -123 88 -155 112
-9 7 -38 28 -65 46 -28 19 -52 37 -55 40 -3 4 -27 22 -55 40 -27 19 -52 37
-55 40 -3 4 -27 21 -55 40 -99 68 -129 110 -99 140 3 3 614 7 1357 8 1257 2
1458 4 1513 16 66 16 164 89 164 124 0 7 5 13 11 13 5 0 8 4 4 9 -3 5 -1 12 4
15 9 6 51 121 51 139 0 4 7 21 15 37 9 17 13 30 11 30 -3 0 -1 12 5 28 6 15
12 34 14 42 2 8 13 47 25 85 12 39 23 77 25 85 2 8 18 60 35 115 17 55 34 111
36 124 3 14 7 27 9 31 4 6 75 245 80 270 2 8 4 16 5 18 2 1 3 5 4 10 1 4 5 16
8 27 4 11 18 61 33 110 15 50 40 134 56 187 17 53 32 105 34 115 2 10 19 70
39 133 19 63 69 230 110 370 41 140 81 276 89 303 8 26 13 47 11 47 -3 0 0 10
7 21 6 12 13 36 16 53 3 17 9 38 13 46 4 8 15 40 23 70 9 30 27 96 41 145 52
181 51 301 -6 417 -33 69 -98 137 -162 170 -84 43 -219 59 -307 35z"/>
<path d="M3087 7525 c-32 -6 -57 -10 -57 -9 0 8 -137 -48 -190 -78 -170 -96
-318 -303 -345 -481 -4 -26 -6 -48 -5 -49 1 -2 -3 -15 -9 -30 -6 -16 -7 -28
-3 -28 8 0 6 -84 -2 -105 -2 -7 -2 -16 2 -19 3 -4 8 -19 9 -34 11 -85 74 -234
133 -313 28 -38 124 -134 161 -162 42 -32 182 -96 244 -113 70 -18 232 -25
290 -11 22 5 49 10 60 12 11 1 21 4 23 5 1 1 5 3 10 4 46 12 92 31 92 38 0 5
4 7 8 4 5 -3 32 10 61 29 29 19 55 35 57 35 3 0 15 10 28 23 13 13 34 32 47
43 51 40 182 224 161 224 -4 0 -2 4 3 8 9 6 23 45 55 154 5 14 8 75 8 135 0
156 -36 278 -122 405 -34 51 -117 142 -148 163 -9 6 -35 24 -59 41 -49 34
-155 83 -196 90 -15 3 -30 7 -34 9 -30 19 -207 25 -282 10z"/>
<path d="M4691 5004 c-17 -7 -34 -13 -36 -13 -18 -1 -67 -36 -95 -67 -90 -102
-90 -244 -1 -339 59 -63 118 -89 201 -89 102 1 187 56 224 146 10 24 21 50 25
58 11 26 -13 172 -30 178 -5 2 -9 10 -9 17 0 17 -73 83 -108 97 -58 24 -131
29 -171 12z"/>
<path d="M6445 4886 c-57 -23 -61 -26 -120 -83 -74 -70 -100 -138 -100 -258 1
-203 197 -360 404 -323 99 18 189 77 240 157 115 182 40 409 -167 503 -54 24
-75 29 -135 27 -46 -1 -90 -10 -122 -23z"/>
<path d="M1618 3480 c-76 -13 -206 -67 -236 -97 -7 -7 -17 -13 -22 -13 -25 0
-151 -145 -189 -219 -62 -119 -92 -289 -70 -391 4 -19 10 -46 13 -60 11 -62
50 -149 101 -224 75 -112 260 -234 383 -252 21 -3 44 -7 52 -10 25 -9 162 -4
205 6 22 6 50 13 63 16 27 5 115 46 157 71 30 19 76 57 127 106 64 61 148 211
164 292 2 11 7 34 10 50 4 17 7 56 6 89 -2 176 -65 327 -186 451 -49 50 -151
126 -176 131 -3 0 -22 8 -42 17 -21 10 -44 17 -51 17 -8 0 -17 3 -21 7 -15 16
-222 25 -288 13z"/>
<path d="M7096 2619 c-168 -40 -312 -190 -343 -354 -19 -104 10 -237 71 -324
144 -206 396 -263 611 -137 70 41 180 178 191 239 1 4 2 8 4 10 7 8 12 53 16
124 8 201 -114 367 -322 436 -49 16 -173 20 -228 6z"/>
<path d="M4568 1105 c-2 -1 -23 -5 -48 -9 -111 -14 -219 -67 -306 -148 -106
-100 -162 -235 -162 -395 -1 -146 46 -273 136 -369 108 -117 223 -171 381
-180 206 -12 397 82 510 252 107 162 115 376 20 554 -69 129 -224 248 -364
279 -50 11 -161 22 -167 16z"/>
</g>
</svg>
