<!-- Generator: Adobe Illustrator 19.0.0, SVG Export Plug-In  -->
<svg version="1.1"
	 xmlns="http://www.w3.org/2000/svg" xmlns:xlink="http://www.w3.org/1999/xlink" xmlns:a="http://ns.adobe.com/AdobeSVGViewerExtensions/3.0/"
	 x="0px" y="0px" width="72px" height="72px" viewBox="0 0 72 72" style="enable-background:new 0 0 72 72;" xml:space="preserve">
<style type="text/css">
	.st0{fill:#597996;}
</style>
<defs>
</defs>
<g id="XMLID_15_">
	<g id="XMLID_16_">
		<path id="XMLID_24_" class="st0" d="M36,11.52c-13.4986,0-24.48,10.9814-24.48,24.48c0,10.7784,7.0502,20.2349,17.28,23.3741V64.8
			c0,0.7963,0.6451,1.44,1.44,1.44h11.52c0.7963,0,1.44-0.6437,1.44-1.44v-5.4259C53.4298,56.2349,60.48,46.7784,60.48,36
			C60.48,22.5014,49.4986,11.52,36,11.52z M41.4,56.8901c-0.635,0.1642-1.08,0.7387-1.08,1.3954V63.36h-8.64v-5.0746
			c0-0.6566-0.445-1.2298-1.08-1.3954C21.0614,54.432,14.4,45.841,14.4,36c0-11.9102,9.6898-21.6,21.6-21.6S57.6,24.0898,57.6,36
			C57.6,45.841,50.9386,54.432,41.4,56.8901z"/>
		<path id="XMLID_23_" class="st0" d="M4.32,34.56H1.44C0.6451,34.56,0,35.2051,0,36c0,0.7949,0.6451,1.44,1.44,1.44h2.88
			c0.7949,0,1.44-0.6451,1.44-1.44S5.1149,34.56,4.32,34.56z"/>
		<path id="XMLID_22_" class="st0" d="M70.56,34.56h-2.88c-0.7963,0-1.44,0.6451-1.44,1.44c0,0.7949,0.6437,1.44,1.44,1.44h2.88
			c0.7963,0,1.44-0.6451,1.44-1.44S71.3563,34.56,70.56,34.56z"/>
		<path id="XMLID_21_" class="st0" d="M36,5.76c0.7949,0,1.44-0.6451,1.44-1.44V1.44C37.44,0.6451,36.7949,0,36,0
			s-1.44,0.6451-1.44,1.44v2.88C34.56,5.1149,35.2051,5.76,36,5.76z"/>
		<path id="XMLID_20_" class="st0" d="M13.5994,15.0394c0.3686,0,0.7373-0.1411,1.0181-0.4219c0.563-0.563,0.563-1.4731,0-2.0362
			l-2.0376-2.0376c-0.563-0.563-1.4731-0.563-2.0362,0c-0.563,0.563-0.563,1.4731,0,2.0362l2.0376,2.0376
			C12.8621,14.8982,13.2307,15.0394,13.5994,15.0394z"/>
		<path id="XMLID_19_" class="st0" d="M59.4202,10.5437l-2.0362,2.0376c-0.563,0.563-0.563,1.4746,0,2.0362
			c0.2808,0.2808,0.6494,0.4219,1.0181,0.4219s0.7373-0.1411,1.0181-0.4219l2.0362-2.0376c0.563-0.563,0.563-1.4746,0-2.0362
			C60.8933,9.9821,59.9818,9.9821,59.4202,10.5437z"/>
		<path id="XMLID_18_" class="st0" d="M44.64,34.56h-2.88c-0.383,0-0.7488,0.1512-1.0181,0.4219L38.2838,37.44h-4.5677
			l-2.4581-2.4581C30.9888,34.7112,30.6216,34.56,30.24,34.56h-2.88c-0.7949,0-1.44,0.6451-1.44,1.44
			c0,0.7949,0.6451,1.44,1.44,1.44h2.2838l2.4581,2.4581c0.2693,0.2707,0.6365,0.4219,1.0181,0.4219h5.76
			c0.383,0,0.7488-0.1512,1.0181-0.4219l2.4581-2.4581H44.64c0.7963,0,1.44-0.6451,1.44-1.44S45.4363,34.56,44.64,34.56z"/>
		<path id="XMLID_17_" class="st0" d="M38.88,69.12h-5.76c-0.7949,0-1.44,0.6437-1.44,1.44c0,0.7963,0.6451,1.44,1.44,1.44h5.76
			c0.7963,0,1.44-0.6437,1.44-1.44C40.32,69.7637,39.6763,69.12,38.88,69.12z"/>
	</g>
</g>
</svg>
