<!-- Generator: Adobe Illustrator 19.0.0, SVG Export Plug-In  -->
<svg version="1.1"
	 xmlns="http://www.w3.org/2000/svg" xmlns:xlink="http://www.w3.org/1999/xlink" xmlns:a="http://ns.adobe.com/AdobeSVGViewerExtensions/3.0/"
	 x="0px" y="0px" width="627.5332px" height="329.0283px" viewBox="0 0 627.5332 329.0283"
	 style="enable-background:new 0 0 627.5332 329.0283;" xml:space="preserve">
<style type="text/css">
	.st0{fill:url(#SVGID_1_);}
	.st1{fill:url(#SVGID_2_);}
	.st2{fill:url(#SVGID_3_);}
	.st3{fill:url(#SVGID_4_);}
	.st4{fill:url(#SVGID_5_);}
	.st5{fill:url(#SVGID_6_);}
</style>
<defs>
</defs>
<g>
	<g>
		<radialGradient id="SVGID_1_" cx="421.13" cy="28.6394" r="135.735" gradientUnits="userSpaceOnUse">
			<stop  offset="0" style="stop-color:#FFFFFF"/>
			<stop  offset="1" style="stop-color:#28903B"/>
		</radialGradient>
		<path class="st0" d="M488.1084,102.2124c0,56.4482-45.7598,102.2104-102.2158,102.2104
			c-56.4502,0-102.211-45.7622-102.211-102.2104C283.6816,45.7622,329.4424,0,385.8926,0
			C442.3486,0,488.1084,45.7622,488.1084,102.2124z"/>
		<radialGradient id="SVGID_2_" cx="276.3233" cy="28.6394" r="135.735" gradientUnits="userSpaceOnUse">
			<stop  offset="0" style="stop-color:#FFFFFF"/>
			<stop  offset="1" style="stop-color:#28903B"/>
		</radialGradient>
		<circle class="st1" cx="241.0883" cy="102.2124" r="102.2133"/>
		<radialGradient id="SVGID_3_" cx="340.8148" cy="50.6938" r="100.7685" gradientUnits="userSpaceOnUse">
			<stop  offset="0" style="stop-color:#FFFFFF"/>
			<stop  offset="1" style="stop-color:#28903B"/>
		</radialGradient>
		<circle class="st2" cx="314.6572" cy="105.3149" r="75.8809"/>
	</g>
	<g>
		<polygon points="522.2168,128.184 522.2168,119.1206 487.7676,119.1206 487.7676,108.2417 512.25,108.2417 512.25,99.1748 
			487.7676,99.1748 487.7676,92.8276 522.2168,92.8276 522.2168,82.4033 466.916,82.4033 466.916,128.184 		"/>
		<polygon points="551.1679,128.184 551.1679,108.2417 575.6504,108.2417 575.6504,99.1748 551.1679,99.1748 551.1679,92.8276 
			585.623,92.8276 585.623,82.4033 530.3164,82.4033 530.3164,128.184 		"/>
		<path d="M399.4111,112.7915h19.2822c0.4141,2.1059,1.2715,2.8964,2.5606,4c2.0976,1.7832,5.0957,2.6787,8.9873,2.6787
			c2.9072,0,5.1445-0.461,6.7256-1.3789c1.5635-0.9121,2.3593-1.9732,2.3593-3.1788c0-1.1508-0.7412-2.1787-2.2431-3.083
			c-1.4844-0.9077-4.957-1.7607-10.3994-2.5664c-8.9141-1.3466-15.2686-3.1377-19.0694-5.3725
			c-3.831-2.232-5.747-5.0777-5.747-8.5425c0-2.2739,0.9795-4.4189,2.9375-6.4409c1.9638-2.0205,4.9131-3.6123,8.8418-4.7739
			c3.9345-1.1553,9.3339-1.733,16.1875-1.733c8.3974,0,14.8193,1.0538,19.2343,3.1578c4.4082,2.104,7.0293,5.4545,7.875,10.0459
			h-19.125c-0.5166-1.9991-1.5869-2.6954-3.2226-3.6031c-1.6299-0.9106-3.8926-1.3623-6.7686-1.3623
			c-2.3711,0-4.1533,0.3374-5.3574,1.0093c-1.1973,0.6753-1.7939,1.4961-1.7939,2.4629c0,0.7012,0.4863,1.3364,1.4775,1.8989
			c0.9551,0.5855,3.2236,1.1265,6.8174,1.6328c8.8896,1.2891,15.251,2.5904,19.0937,3.9097
			c3.8438,1.3198,6.6407,2.957,8.3916,4.9136c1.752,1.9492,2.627,4.1367,2.627,6.5542c0,2.8398-1.167,5.4575-3.4961,7.8535
			c-2.335,2.3955-5.5947,4.2153-9.7842,5.456c-4.1836,1.2344-9.4746,1.8575-15.8408,1.8575
			c-11.1895,0-18.9365-1.4517-23.2422-4.3492C402.415,120.9404,399.9765,117.2612,399.4111,112.7915z"/>
		<path d="M93.541,111.4643h20.5351c-1.249,3.3218-3.2041,7.1528-5.8681,9.3818c-2.669,2.23-5.9922,3.9082-9.9453,5.0425
			c-3.9551,1.1294-8.9961,1.6983-15.1114,1.6983c-7.4248,0-13.4814-0.6905-18.1875-2.0708
			c-4.7011-1.3819-8.7627-3.8096-12.1777-7.2881c-3.417-3.4751-5.123-7.9263-5.123-13.3521c0-7.2334,3.0068-12.7915,9.0117-16.6772
			c6.0088-3.8843,14.5039-5.8257,25.4892-5.8257c8.6016,0,15.3604,1.1157,20.2823,3.3462
			c4.9199,2.2285,8.9423,7.9556,11.332,12.5723l-19.0117,0.3496c-0.6475-1.3286-1.3321-2.3018-2.0469-2.9141
			c-1.1826-1.0308-2.623-1.8242-4.332-2.3809c-1.709-0.5546-3.6182-0.833-5.7285-0.833c-4.7735,0-8.4405,1.23-10.9883,3.6895
			c-1.9248,1.8242-2.8887,4.6933-2.8887,8.5986c0,4.8408,1.1523,8.1592,3.4482,9.9517c2.3018,1.7954,5.5401,2.6938,9.7051,2.6938
			c4.0381,0,7.3701-0.3955,9.1582-2.1801C93.3828,112.9726,92.6103,114.2299,93.541,111.4643z"/>
		<path d="M119.3037,105.2084c0-7.2392,2.9219-12.8759,8.7529-16.9082c5.8467-4.0332,13.9776-6.0488,24.3975-6.0488
			c10.6904,0,18.9179,1.981,24.707,5.9424c5.7705,3.9648,8.668,9.5107,8.668,16.6499c0,5.1812-1.2647,9.4331-3.7822,12.752
			c-2.5293,3.3159-6.1875,5.8969-10.9522,7.7368c-4.7822,1.8467-10.7295,2.7695-17.8506,2.7695
			c-7.2422,0-13.2324-0.7935-17.9785-2.3882c-4.7432-1.5918-8.5918-4.1079-11.5381-7.56
			C120.7812,114.7041,119.3037,110.3881,119.3037,105.2084z M139.1513,105.2631c0,4.4639,1.2071,7.6748,3.6123,9.6294
			c2.4024,1.9492,5.6797,2.9253,9.8243,2.9253c4.2568,0,7.5488-0.9551,9.8847-2.8691c2.3379-1.9092,3.5088-5.3404,3.5088-10.2901
			c0-4.1669-1.2168-7.2109-3.6611-9.1337c-2.4297-1.9234-5.7373-2.8829-9.9063-2.8829c-4.0009,0-7.2119,0.9795-9.6318,2.9297
			C140.3584,97.5224,139.1513,100.7514,139.1513,105.2631z"/>
		<path d="M195.7685,82.9707h17.4678l22.8398,25.0048V82.9707h17.6045v45.1313h-17.6045l-22.7089-24.8682v24.8682h-17.5987V82.9707z
			"/>
		<path d="M264.3437,82.7534h30.1709c5.9414,0,10.7481,0.5576,14.4063,1.6738c3.6611,1.1157,6.6924,2.7148,9.084,4.8037
			c2.3896,2.084,4.1162,4.5122,5.1992,7.2822c1.0703,2.7681,1.6113,5.7022,1.6113,8.8018c0,4.8559-0.8027,8.6201-2.3965,11.2959
			c-1.6054,2.6738-3.8183,4.918-6.6572,6.7256c-2.8457,1.8056-5.8926,3.0097-9.1455,3.6089
			c-4.4541,0.8256-8.4922,1.2387-12.1016,1.2387h-30.1709V82.7534z M284.6572,93.0698v24.7978h4.9775
			c4.2354,0,7.2549-0.3237,9.0459-0.9712c1.794-0.6523,3.1983-1.7876,4.2139-3.4087c1.0127-1.6201,1.5234-4.247,1.5234-7.8779
			c0-4.8115-1.1337-8.1045-3.4052-9.8799c-2.2715-1.7724-6.0323-2.6601-11.2901-2.6601H284.6572z"/>
		<path d="M372.1494,82.75h18.7539v26.5815c0,2.6348-0.5596,5.1235-1.6846,7.4643c-1.1123,2.3443-2.8759,4.3921-5.2724,6.1465
			c-2.3955,1.753-4.9131,2.9859-7.5459,3.6944c-3.6553,0.9926-8.045,1.4912-13.1778,1.4912c-2.9609,0-6.1963-0.1519-9.6992-0.4561
			c-3.5088-0.3056-6.4277-0.9092-8.7988-1.8105c-2.3477-0.9029-4.5-2.1831-6.458-3.8491c-1.9522-1.6587-3.2901-3.375-4.0078-5.1387
			c-1.167-2.8369-1.7452-5.3511-1.7452-7.542V82.75h18.7481v27.2202c0,2.4326,0.9365,4.334,2.7783,5.7041
			c1.8486,1.3681,4.4151,2.0522,7.6865,2.0522c3.2539,0,5.8135-0.6753,7.6621-2.0234c1.8428-1.3487,2.7608-3.2578,2.7608-5.7329
			V82.75z"/>
	</g>
	<g>
		<path d="M17.0029,234.8642l4.9404,1.5664c-0.7597,2.752-2.0156,4.7949-3.7763,6.1289c-1.7539,1.336-3.9864,2.0039-6.6885,2.0039
			c-3.3447,0-6.0967-1.1426-8.249-3.4297C1.0761,238.8486,0,235.7216,0,231.7509c0-4.1953,1.0859-7.4511,3.247-9.7715
			c2.1651-2.3242,5.0176-3.4843,8.5411-3.4843c3.0859,0,5.5918,0.9121,7.5166,2.7304c1.1455,1.0762,2.0068,2.6172,2.5781,4.6309
			l-5.0381,1.209c-0.2978-1.3047-0.918-2.334-1.8672-3.0918c-0.9453-0.7578-2.0976-1.1348-3.4443-1.1348
			c-1.8701,0-3.3848,0.6719-4.5488,2.0156c-1.168,1.3418-1.7481,3.5157-1.7481,6.5196c0,3.1933,0.5713,5.4609,1.7178,6.8144
			c1.1465,1.3516,2.6328,2.0313,4.4697,2.0313c1.3467,0,2.5078-0.4317,3.4805-1.293
			C15.8808,238.0654,16.5801,236.7138,17.0029,234.8642z"/>
		<path d="M25.1513,234.7431c0-1.6055,0.3956-3.1562,1.1856-4.6582c0.7881-1.5019,1.9092-2.6504,3.3633-3.4414
			c1.4531-0.7871,3.0703-1.1855,4.8554-1.1855c2.7666,0,5.0284,0.8984,6.795,2.6933c1.7636,1.791,2.6484,4.0567,2.6484,6.7988
			c0,2.7598-0.8936,5.0528-2.6719,6.8672c-1.7822,1.8184-4.0293,2.7285-6.7324,2.7285c-1.6748,0-3.2744-0.3808-4.792-1.1367
			c-1.5166-0.7578-2.6777-1.8672-3.4658-3.3261C25.5469,238.622,25.1513,236.8408,25.1513,234.7431z M30.0918,235.0009
			c0,1.8164,0.4316,3.2051,1.289,4.1699c0.8643,0.9668,1.9278,1.4473,3.1934,1.4473c1.2617,0,2.3223-0.4805,3.1797-1.4473
			c0.8574-0.9648,1.2861-2.3671,1.2861-4.2031c0-1.791-0.4287-3.1719-1.2861-4.1347c-0.8574-0.9668-1.918-1.4473-3.1797-1.4473
			c-1.2656,0-2.3291,0.4805-3.1934,1.4473C30.5234,231.7958,30.0918,233.1865,30.0918,235.0009z"/>
		<path d="M47.4013,225.8779h4.4424v2.4883c1.5869-1.9356,3.4844-2.9082,5.6856-2.9082c1.1709,0,2.1836,0.2421,3.0439,0.7226
			c0.8545,0.4805,1.5596,1.207,2.1133,2.1797c0.7988-0.9727,1.6631-1.6992,2.5898-2.1797c0.9278-0.4805,1.9131-0.7226,2.9707-0.7226
			c1.3379,0,2.4756,0.2734,3.3965,0.8164c0.9278,0.5449,1.6241,1.3457,2.0801,2.4004c0.3311,0.7773,0.501,2.039,0.501,3.7812
			v11.6699h-4.8223v-10.4355c0-1.8106-0.167-2.9824-0.501-3.5078c-0.4472-0.6875-1.1347-1.0332-2.0585-1.0332
			c-0.6788,0-1.3135,0.205-1.9102,0.6191c-0.5957,0.4141-1.0244,1.0156-1.2891,1.8125c-0.2607,0.7988-0.3916,2.0547-0.3916,3.7754
			v8.7695h-4.8193v-10.0097c0-1.7754-0.0918-2.9219-0.2588-3.4356c-0.1728-0.5156-0.4404-0.9004-0.8027-1.1523
			c-0.3584-0.252-0.8545-0.3789-1.4688-0.3789c-0.7441,0-1.4199,0.1992-2.0127,0.6015c-0.5957,0.4004-1.0215,0.9785-1.2793,1.7383
			c-0.2588,0.7539-0.3896,2.0098-0.3896,3.7637v8.873h-4.8194V225.8779z"/>
		<path d="M79.0439,223.3955v-4.4629h4.8223v4.4629H79.0439z M79.0439,244.1259v-18.248h4.8223v18.248H79.0439z"/>
		<path d="M87.1289,238.9091l4.8398-0.7324c0.21,0.9414,0.627,1.6563,1.2627,2.1426c0.6289,0.4902,1.5049,0.7324,2.6475,0.7324
			c1.25,0,2.1865-0.2285,2.8154-0.6875c0.4258-0.3223,0.6358-0.75,0.6358-1.2891c0-0.3671-0.1094-0.6718-0.3438-0.9121
			c-0.2373-0.2265-0.7783-0.4394-1.6113-0.6347c-3.8975-0.8614-6.3633-1.6485-7.4033-2.3535
			c-1.4444-0.9883-2.168-2.3594-2.168-4.1114c0-1.5801,0.626-2.9121,1.876-3.9883c1.25-1.0761,3.1836-1.6171,5.8017-1.6171
			c2.499,0,4.3535,0.4062,5.5694,1.2207c1.2168,0.8183,2.0498,2.0254,2.5058,3.6191l-4.5635,0.834
			c-0.1953-0.7129-0.5595-1.2539-1.1015-1.6328c-0.5469-0.3809-1.3194-0.5703-2.3252-0.5703c-1.2715,0-2.1778,0.1796-2.7276,0.5351
			c-0.3623,0.2539-0.5507,0.5781-0.5507,0.9805c0,0.3457,0.1611,0.6387,0.4834,0.875c0.4326,0.3223,1.9375,0.7754,4.5068,1.3613
			c2.5684,0.584,4.3623,1.2988,5.3848,2.1485c1.0058,0.8593,1.5078,2.0566,1.5078,3.5937c0,1.6719-0.6934,3.1133-2.0918,4.3164
			c-1.3985,1.2051-3.4639,1.8066-6.2002,1.8066c-2.4903,0-4.4541-0.5078-5.9043-1.5175
			C88.5273,242.0166,87.5752,240.6474,87.1289,238.9091z"/>
		<path d="M108.3877,223.3955v-4.4629h4.8193v4.4629H108.3877z M108.3877,244.1259v-18.248h4.8193v18.248H108.3877z"/>
		<path d="M117.0537,234.7431c0-1.6055,0.3887-3.1562,1.1826-4.6582c0.793-1.5019,1.915-2.6504,3.3623-3.4414
			c1.4502-0.7871,3.0713-1.1855,4.8623-1.1855c2.7578,0,5.0225,0.8984,6.7891,2.6933c1.7666,1.791,2.6484,4.0567,2.6484,6.7988
			c0,2.7598-0.8906,5.0528-2.6728,6.8672c-1.7842,1.8184-4.0284,2.7285-6.7344,2.7285c-1.6729,0-3.2686-0.3808-4.7861-1.1367
			c-1.5235-0.7578-2.6758-1.8672-3.4688-3.3261C117.4424,238.622,117.0537,236.8408,117.0537,234.7431z M121.9912,235.0009
			c0,1.8164,0.4316,3.2051,1.2949,4.1699c0.8633,0.9668,1.9248,1.4473,3.1895,1.4473c1.2646,0,2.3261-0.4805,3.1777-1.4473
			c0.8545-0.9648,1.2861-2.3671,1.2861-4.2031c0-1.791-0.4316-3.1719-1.2861-4.1347c-0.8516-0.9668-1.9131-1.4473-3.1777-1.4473
			c-1.2647,0-2.3262,0.4805-3.1895,1.4473C122.4228,231.7958,121.9912,233.1865,121.9912,235.0009z M124.2529,223.5146
			l2.3809-5.1387h5.3974l-4.7226,5.1387H124.2529z"/>
		<path d="M156.2578,244.1259h-4.8193v-9.3164c0-1.9765-0.1006-3.25-0.3077-3.8281c-0.2089-0.5801-0.5468-1.0293-1.0117-1.3516
			c-0.4658-0.3203-1.0224-0.4804-1.6758-0.4804c-0.8457,0-1.5996,0.2265-2.2617,0.6855c-0.6689,0.459-1.125,1.0684-1.375,1.8242
			c-0.2431,0.7578-0.3711,2.1563-0.3711,4.1973v8.2695h-4.8213v-18.248h4.4844v2.6777c1.5957-2.0644,3.5996-3.0976,6.0205-3.0976
			c1.0694,0,2.043,0.1933,2.9278,0.5761c0.8818,0.3848,1.5439,0.877,2,1.4727c0.4599,0.5918,0.7695,1.2715,0.9492,2.0254
			c0.1728,0.7597,0.2617,1.8418,0.2617,3.25V244.1259z"/>
		<path d="M171.0254,244.1259v-25.1933h4.9257l10.3497,16.8925v-16.8925h4.7031v25.1933h-5.083l-10.1953-16.5254v16.5254H171.0254z"
			/>
		<path d="M199.9463,231.4287l-4.3848-0.7911c0.4961-1.7636,1.3447-3.0644,2.5488-3.9101c1.2071-0.8438,2.9942-1.2695,5.3721-1.2695
			c2.1553,0,3.7646,0.2539,4.8193,0.7656c1.0577,0.5117,1.8028,1.1562,2.2286,1.9433c0.4316,0.7832,0.6445,2.2286,0.6445,4.3223
			l-0.0606,5.6406c0,1.6035,0.0791,2.7852,0.2344,3.5489c0.1543,0.7636,0.4404,1.5781,0.8574,2.4472h-4.7802
			c-0.1241-0.3222-0.2793-0.7968-0.462-1.4258c-0.0791-0.289-0.1396-0.4765-0.1738-0.5683
			c-0.8232,0.8027-1.7051,1.4043-2.6474,1.8125c-0.9395,0.4004-1.9405,0.6015-3.0079,0.6015c-1.8789,0-3.3623-0.5117-4.4443-1.5332
			c-1.0801-1.0214-1.624-2.3105-1.624-3.873c0-1.0332,0.2461-1.9512,0.7422-2.7617c0.4951-0.8086,1.1855-1.4278,2.0732-1.8594
			c0.8936-0.4297,2.1709-0.8066,3.8496-1.125c2.2617-0.4258,3.8281-0.8223,4.7002-1.1894v-0.4805
			c0-0.9278-0.2275-1.5879-0.6836-1.9824c-0.4658-0.3926-1.3291-0.5918-2.6094-0.5918c-0.8632,0-1.5351,0.1699-2.0185,0.5039
			C200.6396,229.9931,200.247,230.583,199.9463,231.4287z M206.4316,235.3564c-0.6201,0.207-1.6055,0.4531-2.9492,0.7422
			c-1.3496,0.2871-2.2285,0.5664-2.6455,0.8398c-0.6318,0.4492-0.9512,1.0157-0.9512,1.7032c0,0.6738,0.2578,1.2617,0.7627,1.75
			c0.5078,0.4941,1.1524,0.7421,1.9336,0.7421c0.876,0,1.709-0.2851,2.5059-0.8593c0.5869-0.4356,0.9726-0.9707,1.1552-1.5996
			c0.1309-0.4102,0.1885-1.1993,0.1885-2.3536V235.3564z"/>
		<path d="M231.8379,231.2705l-4.7608,0.8554c-0.1611-0.9531-0.5263-1.6738-1.0976-2.1543
			c-0.5694-0.4824-1.3047-0.7226-2.2168-0.7226c-1.21,0-2.1739,0.416-2.8887,1.25c-0.7236,0.8301-1.0791,2.2246-1.0791,4.1777
			c0,2.168,0.3682,3.6992,1.0947,4.5957c0.7295,0.8984,1.7119,1.3457,2.9424,1.3457c0.9219,0,1.6758-0.2617,2.2627-0.7851
			c0.584-0.5235,0.9941-1.418,1.2373-2.6875l4.7432,0.8144c-0.4951,2.1699-1.4385,3.8125-2.8369,4.9199
			c-1.3985,1.1094-3.2745,1.666-5.6182,1.666c-2.6699,0-4.7988-0.8457-6.3857-2.5292c-1.587-1.6856-2.3809-4.0176-2.3809-6.9961
			c0-3.0176,0.7939-5.3614,2.3906-7.043c1.5928-1.6777,3.7451-2.5195,6.4639-2.5195c2.2226,0,3.9922,0.4804,5.3027,1.4375
			C230.3183,227.8525,231.2607,229.3134,231.8379,231.2705z"/>
		<path d="M235.4717,223.3955v-4.4629h4.8222v4.4629H235.4717z M235.4717,244.1259v-18.248h4.8222v18.248H235.4717z"/>
		<path d="M244.1367,234.7431c0-1.6055,0.3984-3.1562,1.1855-4.6582c0.7881-1.5019,1.9102-2.6504,3.3633-3.4414
			c1.4531-0.7871,3.0713-1.1855,4.8555-1.1855c2.7666,0,5.0293,0.8984,6.7959,2.6933c1.7666,1.791,2.6484,4.0567,2.6484,6.7988
			c0,2.7598-0.8945,5.0528-2.6728,6.8672c-1.7822,1.8184-4.0283,2.7285-6.7315,2.7285c-1.6757,0-3.2754-0.3808-4.792-1.1367
			c-1.5175-0.7578-2.6787-1.8672-3.4668-3.3261C244.5351,238.622,244.1367,236.8408,244.1367,234.7431z M249.0781,235.0009
			c0,1.8164,0.4316,3.2051,1.2891,4.1699c0.8632,0.9668,1.9277,1.4473,3.1923,1.4473c1.2618,0,2.3233-0.4805,3.1807-1.4473
			c0.8574-0.9648,1.2861-2.3671,1.2861-4.2031c0-1.791-0.4287-3.1719-1.2861-4.1347c-0.8574-0.9668-1.9189-1.4473-3.1807-1.4473
			c-1.2646,0-2.3291,0.4805-3.1923,1.4473C249.5097,231.7958,249.0781,233.1865,249.0781,235.0009z"/>
		<path d="M283.3506,244.1259h-4.8223v-9.3164c0-1.9765-0.1094-3.25-0.3135-3.8281c-0.207-0.5801-0.5381-1.0293-1.0068-1.3516
			c-0.4649-0.3203-1.0303-0.4804-1.6836-0.4804c-0.8399,0-1.5938,0.2265-2.2568,0.6855c-0.6719,0.459-1.128,1.0684-1.3741,1.8242
			c-0.249,0.7578-0.3681,2.1563-0.3681,4.1973v8.2695h-4.8223v-18.248h4.4854v2.6777c1.5927-2.0644,3.5996-3.0976,6.0195-3.0976
			c1.0615,0,2.041,0.1933,2.9219,0.5761c0.8847,0.3848,1.5537,0.877,2.0039,1.4727c0.4531,0.5918,0.7695,1.2715,0.9492,2.0254
			c0.1758,0.7597,0.2676,1.8418,0.2676,3.25V244.1259z"/>
		<path d="M291.8457,231.4287l-4.3848-0.7911c0.4922-1.7636,1.3438-3.0644,2.5449-3.9101c1.21-0.8438,2.9952-1.2695,5.376-1.2695
			c2.1524,0,3.7608,0.2539,4.8223,0.7656c1.0517,0.5117,1.7939,1.1562,2.2256,1.9433c0.4316,0.7832,0.6445,2.2286,0.6445,4.3223
			l-0.0576,5.6406c0,1.6035,0.0722,2.7852,0.2304,3.5489c0.1495,0.7636,0.4385,1.5781,0.8604,2.4472h-4.7822
			c-0.125-0.3222-0.2832-0.7968-0.4619-1.4258c-0.083-0.289-0.1377-0.4765-0.1739-0.5683
			c-0.8271,0.8027-1.7119,1.4043-2.6484,1.8125c-0.9365,0.4004-1.9395,0.6015-3.0098,0.6015c-1.8759,0-3.3564-0.5117-4.4453-1.5332
			c-1.0791-1.0214-1.6201-2.3105-1.6201-3.873c0-1.0332,0.2461-1.9512,0.7383-2.7617c0.4961-0.8086,1.1924-1.4278,2.0801-1.8594
			c0.8877-0.4297,2.1709-0.8066,3.8457-1.125c2.2627-0.4258,3.831-0.8223,4.7041-1.1894v-0.4805
			c0-0.9278-0.2344-1.5879-0.6905-1.9824c-0.4619-0.3926-1.3291-0.5918-2.6084-0.5918c-0.8642,0-1.5322,0.1699-2.0127,0.5039
			C292.5351,229.9931,292.1435,230.583,291.8457,231.4287z M298.334,235.3564c-0.6202,0.207-1.6084,0.4531-2.9522,0.7422
			c-1.3476,0.2871-2.2324,0.5664-2.6484,0.8398c-0.6299,0.4492-0.9492,1.0157-0.9492,1.7032c0,0.6738,0.2558,1.2617,0.7607,1.75
			c0.5049,0.4941,1.1523,0.7421,1.9336,0.7421c0.8789,0,1.7119-0.2851,2.5117-0.8593c0.583-0.4356,0.9727-0.9707,1.1494-1.5996
			c0.1299-0.4102,0.1944-1.1993,0.1944-2.3536V235.3564z"/>
		<path d="M307.8017,244.1259v-25.1933h4.8194v25.1933H307.8017z"/>
		<path d="M327.2168,225.8779h4.5v2.6777c0.584-0.916,1.3808-1.6601,2.3838-2.2344c0.998-0.5742,2.0986-0.8632,3.3203-0.8632
			c2.122,0,3.9287,0.832,5.4062,2.4921c1.4834,1.6661,2.2256,3.9766,2.2256,6.9473c0,3.0508-0.748,5.4219-2.2441,7.1094
			c-1.4893,1.6933-3.3018,2.539-5.4239,2.539c-1.0156,0-1.9336-0.2011-2.749-0.6015c-0.8271-0.4024-1.6904-1.0899-2.6025-2.0625
			v9.1894h-4.8164V225.8779z M331.9785,234.6884c0,2.0547,0.4072,3.5762,1.2285,4.5547c0.8145,0.9824,1.8115,1.4707,2.9854,1.4707
			c1.1318,0,2.0683-0.4492,2.8154-1.3496c0.748-0.9004,1.1191-2.3769,1.1191-4.4336c0-1.914-0.3828-3.3379-1.1552-4.2676
			c-0.7657-0.9316-1.7207-1.3925-2.8643-1.3925c-1.1855,0-2.1709,0.455-2.9492,1.3671
			C332.374,231.5498,331.9785,232.9013,331.9785,234.6884z"/>
		<path d="M352.459,231.4287l-4.3838-0.7911c0.498-1.7636,1.3379-3.0644,2.5478-3.9101c1.2041-0.8438,2.9981-1.2695,5.3692-1.2695
			c2.1591,0,3.7705,0.2539,4.8222,0.7656c1.0518,0.5117,1.7998,1.1562,2.2315,1.9433c0.4258,0.7832,0.6455,2.2286,0.6455,4.3223
			l-0.0615,5.6406c0,1.6035,0.0791,2.7852,0.2255,3.5489c0.1582,0.7636,0.4434,1.5781,0.8633,2.4472h-4.7802
			c-0.127-0.3222-0.2793-0.7968-0.4678-1.4258c-0.0791-0.289-0.1338-0.4765-0.1641-0.5683
			c-0.8271,0.8027-1.709,1.4043-2.6513,1.8125c-0.9424,0.4004-1.9463,0.6015-3.004,0.6015c-1.8847,0-3.3632-0.5117-4.4453-1.5332
			c-1.0888-1.0214-1.6299-2.3105-1.6299-3.873c0-1.0332,0.2491-1.9512,0.7481-2.7617c0.4932-0.8086,1.1797-1.4278,2.0732-1.8594
			c0.8887-0.4297,2.1719-0.8066,3.8496-1.125c2.2618-0.4258,3.8252-0.8223,4.7012-1.1894v-0.4805
			c0-0.9278-0.2314-1.5879-0.6875-1.9824c-0.4619-0.3926-1.332-0.5918-2.6094-0.5918c-0.8632,0-1.538,0.1699-2.0185,0.5039
			C353.1465,229.9931,352.7568,230.583,352.459,231.4287z M358.9482,235.3564c-0.6269,0.207-1.6054,0.4531-2.956,0.7422
			c-1.3438,0.2871-2.2256,0.5664-2.6387,0.8398c-0.6387,0.4492-0.9551,1.0157-0.9551,1.7032c0,0.6738,0.2559,1.2617,0.7608,1.75
			c0.5107,0.4941,1.1552,0.7421,1.9394,0.7421c0.876,0,1.709-0.2851,2.499-0.8593c0.584-0.4356,0.9737-0.9707,1.1612-1.5996
			c0.122-0.4102,0.1894-1.1993,0.1894-2.3536V235.3564z"/>
		<path d="M373.0439,244.1259h-4.8222v-18.248h4.4814v2.5898c0.7666-1.2226,1.459-2.0312,2.0732-2.4238
			c0.6143-0.3887,1.3077-0.5859,2.086-0.5859c1.1006,0,2.165,0.3027,3.1865,0.9121l-1.5019,4.205
			c-0.8145-0.5273-1.5752-0.791-2.2686-0.791c-0.6807,0-1.252,0.1856-1.7207,0.5567c-0.4746,0.3769-0.8389,1.0449-1.1123,2.0215
			c-0.2744,0.9765-0.4014,3.0156-0.4014,6.123V244.1259z"/>
		<path d="M385.7226,231.4287l-4.3847-0.7911c0.4931-1.7636,1.3437-3.0644,2.5478-3.9101c1.2041-0.8438,2.9922-1.2695,5.3701-1.2695
			c2.1582,0,3.7637,0.2539,4.8223,0.7656c1.0576,0.5117,1.7998,1.1562,2.2256,1.9433c0.4316,0.7832,0.6445,2.2286,0.6445,4.3223
			l-0.0615,5.6406c0,1.6035,0.0791,2.7852,0.2373,3.5489c0.1523,0.7636,0.4385,1.5781,0.8574,2.4472h-4.7793
			c-0.1279-0.3222-0.2793-0.7968-0.4619-1.4258c-0.0791-0.289-0.1406-0.4765-0.1767-0.5683
			c-0.8213,0.8027-1.7032,1.4043-2.6456,1.8125c-0.9365,0.4004-1.9394,0.6015-3.0097,0.6015c-1.8789,0-3.3623-0.5117-4.4395-1.5332
			c-1.082-1.0214-1.6299-2.3105-1.6299-3.873c0-1.0332,0.25-1.9512,0.7422-2.7617c0.4991-0.8086,1.1856-1.4278,2.0743-1.8594
			c0.8935-0.4297,2.1767-0.8066,3.8486-1.125c2.2627-0.4258,3.831-0.8223,4.7012-1.1894v-0.4805
			c0-0.9278-0.2256-1.5879-0.6817-1.9824c-0.4678-0.3926-1.331-0.5918-2.6084-0.5918c-0.8633,0-1.539,0.1699-2.0185,0.5039
			C386.416,229.9931,386.0205,230.583,385.7226,231.4287z M392.2051,235.3564c-0.6143,0.207-1.6055,0.4531-2.9493,0.7422
			c-1.3505,0.2871-2.2255,0.5664-2.6455,0.8398c-0.6328,0.4492-0.9492,1.0157-0.9492,1.7032c0,0.6738,0.2559,1.2617,0.7608,1.75
			c0.5107,0.4941,1.1552,0.7421,1.9394,0.7421c0.8701,0,1.7031-0.2851,2.499-0.8593c0.5899-0.4356,0.9737-0.9707,1.1563-1.5996
			c0.1338-0.4102,0.1885-1.1993,0.1885-2.3536V235.3564z"/>
		<path d="M411.457,244.1259v-25.1933h4.8223v25.1933H411.457z"/>
		<path d="M424.8418,231.4287l-4.3848-0.7911c0.499-1.7636,1.3438-3.0644,2.5537-3.9101c1.1983-0.8438,2.9922-1.2695,5.3633-1.2695
			c2.165,0,3.7705,0.2539,4.8223,0.7656c1.0586,0.5117,1.8007,1.1562,2.2324,1.9433c0.4258,0.7832,0.6445,2.2286,0.6445,4.3223
			l-0.0605,5.6406c0,1.6035,0.0781,2.7852,0.2304,3.5489c0.1582,0.7636,0.4375,1.5781,0.8633,2.4472h-4.7851
			c-0.128-0.3222-0.2735-0.7968-0.4629-1.4258c-0.0781-0.289-0.1397-0.4765-0.1699-0.5683
			c-0.8272,0.8027-1.709,1.4043-2.6514,1.8125c-0.9424,0.4004-1.9395,0.6015-3.0039,0.6015c-1.8848,0-3.3623-0.5117-4.4453-1.5332
			c-1.0821-1.0214-1.6231-2.3105-1.6231-3.873c0-1.0332,0.249-1.9512,0.7412-2.7617c0.4932-0.8086,1.1797-1.4278,2.0743-1.8594
			c0.8876-0.4297,2.1708-0.8066,3.8486-1.125c2.2627-0.4258,3.831-0.8223,4.7012-1.1894v-0.4805
			c0-0.9278-0.2256-1.5879-0.6875-1.9824c-0.462-0.3926-1.3311-0.5918-2.6026-0.5918c-0.8633,0-1.5381,0.1699-2.0254,0.5039
			C425.5342,229.9931,425.1396,230.583,424.8418,231.4287z M431.3301,235.3564c-0.627,0.207-1.6055,0.4531-2.9561,0.7422
			c-1.3437,0.2871-2.2246,0.5664-2.6387,0.8398c-0.6328,0.4492-0.9482,1.0157-0.9482,1.7032c0,0.6738,0.249,1.2617,0.7539,1.75
			c0.5107,0.4941,1.1553,0.7421,1.9394,0.7421c0.876,0,1.709-0.2851,2.4991-0.8593c0.5898-0.4356,0.9736-0.9707,1.1621-1.5996
			c0.1269-0.4102,0.1885-1.1993,0.1885-2.3536V235.3564z"/>
		<path d="M450.6367,244.1259v-25.1933h8.1553c3.0888,0,5.1074,0.1269,6.0508,0.3769c1.4345,0.377,2.6445,1.2031,3.6171,2.4688
			c0.9737,1.2656,1.46,2.9004,1.46,4.9082c0,1.5429-0.2803,2.8457-0.8389,3.8965c-0.5595,1.0566-1.2773,1.8867-2.1406,2.4882
			c-0.8633,0.5977-1.7451,0.9961-2.6396,1.1914c-1.21,0.2442-2.9678,0.3614-5.2725,0.3614h-3.3135v9.5019H450.6367z
			 M455.7148,223.1943v7.164H458.5c2.0068,0,3.3447-0.1308,4.0195-0.3945c0.6748-0.2656,1.2041-0.6777,1.5869-1.2402
			c0.3828-0.5606,0.5713-1.2168,0.5713-1.961c0-0.9199-0.2676-1.6757-0.8027-2.2714c-0.541-0.5996-1.2158-0.9746-2.043-1.1231
			c-0.6084-0.1113-1.8301-0.1738-3.6611-0.1738H455.7148z"/>
		<path d="M478.664,244.1259h-4.8154v-18.248h4.4815v2.5898c0.7656-1.2226,1.4589-2.0312,2.0732-2.4238
			c0.6084-0.3887,1.3076-0.5859,2.0859-0.5859c1.1006,0,2.1592,0.3027,3.1807,0.9121l-1.4961,4.205
			c-0.8154-0.5273-1.5752-0.791-2.2744-0.791c-0.6748,0-1.2461,0.1856-1.7207,0.5567c-0.4688,0.3769-0.8399,1.0449-1.1074,2.0215
			c-0.2735,0.9765-0.4073,3.0156-0.4073,6.123V244.1259z"/>
		<path d="M486.6308,234.7431c0-1.6055,0.3887-3.1562,1.1797-4.6582c0.7959-1.5019,1.9151-2.6504,3.3623-3.4414
			c1.4532-0.7871,3.0713-1.1855,4.8653-1.1855c2.7539,0,5.0224,0.8984,6.7861,2.6933c1.7695,1.791,2.6514,4.0567,2.6514,6.7988
			c0,2.7598-0.8946,5.0528-2.6758,6.8672c-1.7813,1.8184-4.0254,2.7285-6.7315,2.7285c-1.6728,0-3.2714-0.3808-4.7861-1.1367
			c-1.5264-0.7578-2.6758-1.8672-3.4717-3.3261C487.0195,238.622,486.6308,236.8408,486.6308,234.7431z M491.5683,235.0009
			c0,1.8164,0.4317,3.2051,1.295,4.1699c0.8632,0.9668,1.9218,1.4473,3.1865,1.4473c1.2646,0,2.3291-0.4805,3.1806-1.4473
			c0.8506-0.9648,1.2832-2.3671,1.2832-4.2031c0-1.791-0.4326-3.1719-1.2832-4.1347c-0.8515-0.9668-1.916-1.4473-3.1806-1.4473
			c-1.2647,0-2.3233,0.4805-3.1865,1.4473C492,231.7958,491.5683,233.1865,491.5683,235.0009z"/>
		<path d="M517.583,225.8779v3.8476h-3.2959v7.3594c0,1.4883,0.0361,2.3555,0.1025,2.6016
			c0.0557,0.2441,0.2012,0.4511,0.4258,0.6093c0.2197,0.1641,0.4932,0.2422,0.8154,0.2422c0.4502,0,1.1006-0.1543,1.9395-0.4648
			l0.4072,3.748c-1.1123,0.4805-2.3769,0.7246-3.7998,0.7246c-0.8642,0-1.6426-0.1464-2.3418-0.4414
			c-0.6992-0.291-1.2099-0.6679-1.5322-1.1347c-0.3281-0.4649-0.5537-1.0879-0.6748-1.8848
			c-0.1094-0.5586-0.1582-1.6894-0.1582-3.3984v-7.961h-2.2256v-3.8476h2.2256v-3.6309l4.8164-2.8398v6.4707H517.583z"/>
		<path d="M531.5263,238.3154l4.8165,0.8125c-0.6202,1.7656-1.5938,3.1094-2.9317,4.0312
			c-1.3379,0.9239-3.0039,1.3867-5.0107,1.3867c-3.1797,0-5.5332-1.041-7.0537-3.1132c-1.2041-1.6602-1.8057-3.7578-1.8057-6.291
			c0-3.0293,0.79-5.3965,2.3779-7.1114c1.5742-1.7129,3.5811-2.5722,6.002-2.5722c2.7177,0,4.8584,0.8984,6.4267,2.6933
			c1.5752,1.791,2.3233,4.5391,2.2569,8.2403h-12.126c0.0361,1.4316,0.4258,2.5468,1.1738,3.3476
			c0.7481,0.7969,1.6787,1.1934,2.791,1.1934c0.7539,0,1.3926-0.2051,1.9092-0.6192
			C530.8701,239.8994,531.2588,239.2314,531.5263,238.3154z M531.7998,233.4365c-0.0303-1.4004-0.3945-2.4668-1.082-3.1934
			c-0.6934-0.7305-1.5323-1.0937-2.5176-1.0937c-1.0586,0-1.9278,0.3828-2.6211,1.1543c-0.6875,0.7656-1.0215,1.8125-1.0156,3.1328
			H531.7998z"/>
		<path d="M556.4463,231.2705l-4.7618,0.8554c-0.1582-0.9531-0.5224-1.6738-1.0878-2.1543
			c-0.5723-0.4824-1.3135-0.7226-2.2256-0.7226c-1.2041,0-2.1651,0.416-2.8828,1.25c-0.7237,0.8301-1.0821,2.2246-1.0821,4.1777
			c0,2.168,0.3643,3.6992,1.1006,4.5957c0.7236,0.8984,1.7022,1.3457,2.9365,1.3457c0.919,0,1.6729-0.2617,2.2627-0.7851
			c0.584-0.5235,0.9971-1.418,1.2403-2.6875l4.7373,0.8144c-0.4864,2.1699-1.4356,3.8125-2.8282,4.9199
			c-1.3984,1.1094-3.2773,1.666-5.624,1.666c-2.664,0-4.7988-0.8457-6.3857-2.5292c-1.5869-1.6856-2.3838-4.0176-2.3838-6.9961
			c0-3.0176,0.8027-5.3614,2.3965-7.043c1.5927-1.6777,3.7451-2.5195,6.458-2.5195c2.2314,0,3.9951,0.4804,5.3017,1.4375
			C554.9326,227.8525,555.875,229.3134,556.4463,231.2705z"/>
		<path d="M576.0205,231.2705l-4.7608,0.8554c-0.164-0.9531-0.5293-1.6738-1.1005-2.1543
			c-0.5655-0.4824-1.3018-0.7226-2.2139-0.7226c-1.21,0-2.1709,0.416-2.8887,1.25c-0.7236,0.8301-1.082,2.2246-1.082,4.1777
			c0,2.168,0.3711,3.6992,1.1006,4.5957c0.7236,0.8984,1.709,1.3457,2.9375,1.3457c0.9238,0,1.6777-0.2617,2.2617-0.7851
			c0.584-0.5235,0.9971-1.418,1.2402-2.6875l4.7432,0.8144c-0.4981,2.1699-1.4404,3.8125-2.8399,4.9199
			c-1.3984,1.1094-3.2714,1.666-5.6181,1.666c-2.6699,0-4.7979-0.8457-6.3848-2.5292c-1.5879-1.6856-2.3779-4.0176-2.3779-6.9961
			c0-3.0176,0.79-5.3614,2.3896-7.043c1.5928-1.6777,3.7461-2.5195,6.4639-2.5195c2.2197,0,3.9893,0.4804,5.3027,1.4375
			C574.501,227.8525,575.4433,229.3134,576.0205,231.2705z"/>
		<path d="M579.6572,223.3955v-4.4629h4.8223v4.4629H579.6572z M579.6572,244.1259v-18.248h4.8223v18.248H579.6572z"/>
		<path d="M588.3164,234.7431c0-1.6055,0.4014-3.1562,1.1924-4.6582c0.79-1.5019,1.9091-2.6504,3.3623-3.4414
			c1.4472-0.7871,3.0654-1.1855,4.8593-1.1855c2.7608,0,5.0225,0.8984,6.7862,2.6933c1.7695,1.791,2.6513,4.0567,2.6513,6.7988
			c0,2.7598-0.8876,5.0528-2.6699,6.8672c-1.7871,1.8184-4.0254,2.7285-6.7373,2.7285c-1.6719,0-3.2715-0.3808-4.792-1.1367
			c-1.5146-0.7578-2.6699-1.8672-3.4599-3.3261C588.7178,238.622,588.3164,236.8408,588.3164,234.7431z M593.2607,235.0009
			c0,1.8164,0.4317,3.2051,1.2949,4.1699c0.8633,0.9668,1.9278,1.4473,3.1866,1.4473c1.2646,0,2.3291-0.4805,3.1865-1.4473
			c0.8516-0.9648,1.2773-2.3671,1.2773-4.2031c0-1.791-0.4257-3.1719-1.2773-4.1347c-0.8574-0.9668-1.9219-1.4473-3.1865-1.4473
			c-1.2588,0-2.3233,0.4805-3.1866,1.4473C593.6924,231.7958,593.2607,233.1865,593.2607,235.0009z M595.5224,223.5146l2.378-5.1387
			h5.4004l-4.7256,5.1387H595.5224z"/>
		<path d="M627.5332,244.1259h-4.8223v-9.3164c0-1.9765-0.1035-3.25-0.3105-3.8281c-0.2061-0.5801-0.541-1.0293-1.0088-1.3516
			c-0.4688-0.3203-1.0283-0.4804-1.6846-0.4804c-0.833,0-1.5869,0.2265-2.2559,0.6855s-1.1318,1.0684-1.375,1.8242
			c-0.2431,0.7578-0.3701,2.1563-0.3701,4.1973v8.2695h-4.8222v-18.248h4.4873v2.6777c1.5927-2.0644,3.5996-3.0976,6.0205-3.0976
			c1.0644,0,2.0429,0.1933,2.9248,0.5761c0.8818,0.3848,1.5508,0.877,2.0068,1.4727c0.4502,0.5918,0.7598,1.2715,0.9424,2.0254
			c0.1768,0.7597,0.2676,1.8418,0.2676,3.25V244.1259z"/>
		<path d="M69.9131,268.0966h5.1386l4.375,12.9649l4.2539-12.9649h5.002l-6.4277,17.5723l-1.1612,3.1699
			c-0.4228,1.0645-0.8301,1.8789-1.2168,2.4395c-0.3799,0.5586-0.8242,1.0156-1.3193,1.3672
			c-0.499,0.3476-1.1094,0.6211-1.8398,0.8125c-0.7295,0.1972-1.5508,0.291-2.4659,0.291c-0.9267,0-1.8388-0.0938-2.7304-0.291
			l-0.4375-3.7793c0.7597,0.1484,1.4384,0.2246,2.0498,0.2246c1.1181,0,1.9541-0.3282,2.4892-0.9844
			c0.542-0.6563,0.9522-1.4902,1.2412-2.5078L69.9131,268.0966z"/>
		<path d="M101.5615,261.1533h9.3018c2.0976,0,3.6933,0.164,4.7939,0.4824c1.4785,0.4355,2.7432,1.2109,3.8008,2.3203
			c1.0488,1.1133,1.8555,2.4688,2.4053,4.084c0.5507,1.6074,0.8271,3.5898,0.8271,5.9531c0,2.0742-0.2588,3.8613-0.7725,5.3594
			c-0.6357,1.8379-1.5322,3.3203-2.7001,4.4512c-0.8819,0.8652-2.0762,1.5332-3.5782,2.0136
			c-1.122,0.3535-2.624,0.5352-4.5058,0.5352h-9.5723V261.1533z M106.6426,265.4208v16.6622h3.8066
			c1.4228,0,2.457-0.0782,3.0859-0.2364c0.8272-0.207,1.5176-0.5566,2.0645-1.0488c0.5449-0.4902,0.9912-1.3008,1.332-2.4258
			c0.3438-1.1289,0.5235-2.664,0.5235-4.6074c0-1.9492-0.1797-3.4414-0.5235-4.4824c-0.3408-1.043-0.8271-1.8535-1.4472-2.4375
			c-0.6202-0.584-1.4083-0.9785-2.3594-1.1856c-0.7149-0.1582-2.1104-0.2383-4.1934-0.2383H106.6426z"/>
		<path d="M137.5215,280.538l4.8193,0.8125c-0.6143,1.7676-1.5957,3.1114-2.9307,4.0352c-1.3349,0.9219-3.0039,1.3809-5.0136,1.3809
			c-3.1748,0-5.5245-1.0352-7.0537-3.1114c-1.1983-1.6621-1.8038-3.7617-1.8038-6.291c0-3.0273,0.794-5.3965,2.375-7.1113
			c1.5811-1.711,3.585-2.5684,6.0049-2.5684c2.7149,0,4.8614,0.8926,6.4307,2.6875c1.5723,1.793,2.3203,4.543,2.25,8.2403h-12.1221
			c0.0391,1.4335,0.4287,2.5507,1.1699,3.3496c0.751,0.7968,1.6787,1.1953,2.795,1.1953c0.7568,0,1.3916-0.2071,1.9091-0.6211
			C136.8652,282.124,137.2578,281.458,137.5215,280.538z M137.7988,275.6552c-0.0303-1.3984-0.3984-2.4629-1.083-3.1894
			c-0.6865-0.7285-1.5264-1.0938-2.5176-1.0938c-1.0517,0-1.9238,0.3867-2.6142,1.1524c-0.6905,0.7695-1.0284,1.8125-1.0157,3.1308
			H137.7988z"/>
		<path d="M144.415,268.0966h2.6787v-1.373c0-1.5391,0.1641-2.6856,0.4922-3.4434c0.3223-0.7558,0.9248-1.373,1.7998-1.8476
			c0.8819-0.4746,1.9883-0.7149,3.333-0.7149c1.3682,0,2.7178,0.2071,4.0371,0.6172l-0.6445,3.3516
			c-0.7754-0.1856-1.5137-0.2774-2.2285-0.2774c-0.7022,0-1.2041,0.1621-1.5108,0.4922c-0.3046,0.332-0.456,0.9649-0.456,1.8985
			v1.2968h3.6084v3.7891h-3.6084v14.4668h-4.8223v-14.4668h-2.6787V268.0966z"/>
		<path d="M168.8086,280.538l4.8193,0.8125c-0.6143,1.7676-1.5967,3.1114-2.9307,4.0352c-1.3349,0.9219-3.0048,1.3809-5.0146,1.3809
			c-3.1738,0-5.5244-1.0352-7.0537-3.1114c-1.1983-1.6621-1.8057-3.7617-1.8057-6.291c0-3.0273,0.7959-5.3965,2.377-7.1113
			c1.581-1.711,3.5849-2.5684,6.0058-2.5684c2.7149,0,4.8614,0.8926,6.4307,2.6875c1.5684,1.793,2.3193,4.543,2.25,8.2403h-12.1231
			c0.0401,1.4335,0.4288,2.5507,1.1709,3.3496c0.7481,0.7968,1.6778,1.1953,2.794,1.1953c0.7568,0,1.3926-0.2071,1.9092-0.6211
			C168.1523,282.124,168.5439,281.458,168.8086,280.538z M169.0849,275.6552c-0.0302-1.3984-0.3974-2.4629-1.082-3.1894
			c-0.6875-0.7285-1.5264-1.0938-2.5176-1.0938c-1.0517,0-1.9248,0.3867-2.6152,1.1524c-0.6895,0.7695-1.0273,1.8125-1.0147,3.1308
			H169.0849z"/>
		<path d="M194.4092,286.3525h-4.8184v-9.3223c0-1.9726-0.1064-3.248-0.3076-3.8242c-0.21-0.582-0.5469-1.0293-1.0127-1.3535
			c-0.4678-0.3203-1.0274-0.4805-1.6807-0.4805c-0.8398,0-1.5937,0.2285-2.2627,0.6875c-0.666,0.459-1.125,1.0664-1.3681,1.8203
			c-0.2491,0.7598-0.3741,2.1602-0.3741,4.1973v8.2754h-4.8193v-18.2559h4.4824v2.6817c1.5987-2.0664,3.6026-3.0938,6.0225-3.0938
			c1.0644,0,2.0439,0.1914,2.9258,0.5703c0.8847,0.3868,1.5468,0.877,2.0029,1.4727c0.4531,0.5957,0.7637,1.2695,0.9424,2.0312
			c0.1797,0.7539,0.2676,1.836,0.2676,3.2461V286.3525z"/>
		<path d="M197.6142,281.1357l4.8409-0.7363c0.2031,0.9414,0.6259,1.6562,1.249,2.1464c0.6357,0.4864,1.5176,0.7305,2.6484,0.7305
			c1.25,0,2.1924-0.2285,2.8213-0.6875c0.4229-0.3222,0.6416-0.7519,0.6416-1.289c0-0.3692-0.1182-0.6719-0.3467-0.9122
			c-0.2402-0.2285-0.7812-0.4453-1.6172-0.6367c-3.8886-0.8593-6.3574-1.6445-7.4004-2.3554
			c-1.4443-0.9864-2.1621-2.3536-2.1621-4.1114c0-1.58,0.6231-2.9101,1.8702-3.9863c1.2431-1.0781,3.1836-1.6133,5.8076-1.6133
			c2.4961,0,4.3506,0.4043,5.5635,1.2207c1.2109,0.8164,2.0498,2.0196,2.5117,3.6192l-4.5635,0.832
			c-0.1982-0.7109-0.5654-1.2539-1.1133-1.6348c-0.5381-0.3808-1.3135-0.5683-2.3193-0.5683c-1.2686,0-2.1778,0.1797-2.7276,0.5312
			c-0.3681,0.2559-0.5478,0.5781-0.5478,0.9824c0,0.3438,0.1621,0.6348,0.4775,0.8789c0.4385,0.3184,1.9405,0.7715,4.5156,1.3555
			c2.5665,0.584,4.3633,1.3028,5.379,2.1504c1.0058,0.8594,1.5136,2.0586,1.5136,3.5977c0,1.6679-0.7051,3.1093-2.0976,4.3105
			c-1.3985,1.2031-3.4668,1.8067-6.2061,1.8067c-2.4775,0-4.4482-0.5059-5.9014-1.5157
			C199.0039,284.2431,198.0615,282.8681,197.6142,281.1357z"/>
		<path d="M222.4765,273.6552l-4.3847-0.7969c0.4931-1.7578,1.3476-3.0605,2.5449-3.9062c1.21-0.8457,2.998-1.2676,5.376-1.2676
			c2.1523,0,3.7607,0.2539,4.8222,0.7598c1.0518,0.5098,1.7969,1.1601,2.2256,1.9453c0.4317,0.7852,0.6475,2.2266,0.6475,4.3242
			l-0.0606,5.6367c0,1.6055,0.0762,2.7871,0.2334,3.5508c0.1495,0.7637,0.4356,1.5781,0.8575,2.4512h-4.7823
			c-0.122-0.3223-0.2832-0.7988-0.459-1.4297c-0.0849-0.2891-0.1396-0.4766-0.1767-0.5684
			c-0.8272,0.8028-1.708,1.4082-2.6445,1.8086c-0.9395,0.4024-1.9405,0.6036-3.0137,0.6036c-1.8731,0-3.3565-0.5118-4.4424-1.5333
			c-1.082-1.0175-1.623-2.3105-1.623-3.871c0-1.0332,0.249-1.9551,0.7382-2.7637c0.4961-0.8086,1.1924-1.4258,2.0801-1.8574
			c0.8877-0.4278,2.1709-0.8047,3.8496-1.127c2.2588-0.4238,3.8272-0.8223,4.7002-1.1875v-0.4805
			c0-0.9296-0.2344-1.5859-0.6904-1.9824c-0.459-0.3945-1.3281-0.5918-2.6084-0.5918c-0.8633,0-1.5322,0.168-2.0127,0.5078
			C223.167,272.2138,222.7744,272.8095,222.4765,273.6552z M228.9648,277.583c-0.6201,0.205-1.6054,0.4511-2.9521,0.7363
			c-1.3467,0.289-2.2315,0.5683-2.6485,0.8418c-0.6289,0.4472-0.9453,1.0137-0.9453,1.6992c0,0.6797,0.252,1.2656,0.7569,1.7559
			c0.5078,0.4941,1.1523,0.7382,1.9365,0.7382c0.876,0,1.709-0.2851,2.5088-0.8574c0.5869-0.4375,0.9726-0.9707,1.1523-1.5996
			c0.1279-0.4141,0.1914-1.1973,0.1914-2.3535V277.583z"/>
		<path d="M264.958,286.3525h-4.4844v-2.6817c-0.7422,1.043-1.6269,1.8184-2.6357,2.3282
			c-1.0127,0.5117-2.0342,0.7676-3.0684,0.7676c-2.0976,0-3.8916-0.8458-5.3848-2.5372c-1.499-1.6894-2.2412-4.0488-2.2412-7.0742
			c0-3.0957,0.7237-5.4453,2.1807-7.0566c1.4531-1.6113,3.293-2.4141,5.5156-2.4141c2.043,0,3.8037,0.8438,5.2988,2.541v-9.0722
			h4.8194V286.3525z M252.082,276.8291c0,1.9531,0.2676,3.3632,0.8057,4.2324c0.7812,1.2656,1.8633,1.8984,3.2627,1.8984
			c1.1093,0,2.0576-0.4746,2.8359-1.4238c0.7783-0.9414,1.1709-2.3594,1.1709-4.2422c0-2.0996-0.3828-3.6152-1.1367-4.5352
			c-0.7578-0.9238-1.7217-1.3867-2.9014-1.3867c-1.1484,0-2.1064,0.4551-2.876,1.3672
			C252.4707,273.6552,252.082,275.0146,252.082,276.8291z"/>
		<path d="M280.2793,280.538l4.8222,0.8125c-0.6201,1.7676-1.5996,3.1114-2.9306,4.0352c-1.3408,0.9219-3.0078,1.3809-5.0176,1.3809
			c-3.1768,0-5.5273-1.0352-7.0508-3.1114c-1.207-1.6621-1.8056-3.7617-1.8056-6.291c0-3.0273,0.7871-5.3965,2.374-7.1113
			c1.5781-1.711,3.582-2.5684,6.0019-2.5684c2.7188,0,4.8623,0.8926,6.4278,2.6875c1.5781,1.793,2.3261,4.543,2.2568,8.2403
			h-12.1201c0.0332,1.4335,0.4199,2.5507,1.1709,3.3496c0.748,0.7968,1.6748,1.1953,2.791,1.1953
			c0.7539,0,1.3926-0.2071,1.9092-0.6211C279.626,282.124,280.0176,281.458,280.2793,280.538z M280.5556,275.6552
			c-0.0332-1.3984-0.3945-2.4629-1.0849-3.1894c-0.6904-0.7285-1.5264-1.0938-2.5147-1.0938c-1.0547,0-1.9306,0.3867-2.6181,1.1524
			c-0.6895,0.7695-1.0274,1.8125-1.0186,3.1308H280.5556z"/>
		<path d="M299.0517,286.3525v-25.1992h4.8223v25.1992H299.0517z"/>
		<path d="M307.7109,276.9658c0-1.6016,0.3985-3.1563,1.1914-4.6602c0.7881-1.5,1.9092-2.6465,3.3633-3.4394
			c1.4473-0.7871,3.0645-1.1817,4.8555-1.1817c2.7627,0,5.0244,0.8926,6.7881,2.6875c1.7695,1.793,2.6513,4.0625,2.6513,6.8008
			c0,2.7637-0.8877,5.0508-2.6699,6.8691c-1.7881,1.8184-4.0254,2.7247-6.7363,2.7247c-1.6748,0-3.2715-0.377-4.7891-1.1348
			c-1.5166-0.7578-2.6748-1.8633-3.4629-3.3262C308.1094,280.8466,307.7109,279.0634,307.7109,276.9658z M312.6513,277.2255
			c0,1.8145,0.4375,3.2032,1.295,4.168c0.8642,0.9629,1.9316,1.4434,3.1904,1.4434c1.2627,0,2.3271-0.4805,3.1846-1.4434
			c0.8515-0.9648,1.2773-2.3652,1.2773-4.2051c0-1.7871-0.4258-3.1679-1.2773-4.1328c-0.8575-0.9629-1.9219-1.4433-3.1846-1.4433
			c-1.2588,0-2.3262,0.4804-3.1904,1.4433C313.0888,274.0205,312.6513,275.4091,312.6513,277.2255z"/>
		<path d="M328.6338,281.1357l4.8408-0.7363c0.207,0.9414,0.626,1.6562,1.2529,2.1464c0.6319,0.4864,1.5137,0.7305,2.6514,0.7305
			c1.2461,0,2.1826-0.2285,2.8213-0.6875c0.4199-0.3222,0.6328-0.7519,0.6328-1.289c0-0.3692-0.1162-0.6719-0.3408-0.9122
			c-0.2432-0.2285-0.7784-0.4453-1.6182-0.6367c-3.8916-0.8593-6.3604-1.6445-7.4062-2.3554
			c-1.4356-0.9864-2.1583-2.3536-2.1583-4.1114c0-1.58,0.6202-2.9101,1.8721-3.9863c1.2471-1.0781,3.1865-1.6133,5.8018-1.6133
			c2.499,0,4.3535,0.4043,5.5644,1.2207c1.2158,0.8164,2.0547,2.0196,2.5108,3.6192l-4.5606,0.832
			c-0.1943-0.7109-0.5654-1.2539-1.1064-1.6348c-0.541-0.3808-1.3135-0.5683-2.3291-0.5683c-1.2647,0-2.1768,0.1797-2.7246,0.5312
			c-0.3643,0.2559-0.5469,0.5781-0.5469,0.9824c0,0.3438,0.1582,0.6348,0.4805,0.8789c0.4316,0.3184,1.9394,0.7715,4.5117,1.3555
			c2.5664,0.584,4.3603,1.3028,5.3818,2.1504c1.0029,0.8594,1.5078,2.0586,1.5078,3.5977c0,1.6679-0.6992,3.1093-2.0918,4.3105
			c-1.3984,1.2031-3.4658,1.8067-6.2021,1.8067c-2.4873,0-4.4522-0.5059-5.9053-1.5157
			C330.0263,284.2431,329.0781,282.8681,328.6338,281.1357z"/>
		<path d="M359.6592,261.1533h5.0839v13.6504c0,2.1718,0.0606,3.5742,0.1885,4.2148c0.2129,1.0332,0.7412,1.8613,1.5567,2.4883
			c0.8212,0.623,1.9462,0.9355,3.3691,0.9355c1.4473,0,2.542-0.2949,3.2773-0.8847c0.7295-0.5938,1.1739-1.3164,1.3252-2.1739
			c0.1524-0.8632,0.2198-2.2871,0.2198-4.2851v-13.9453h5.0771v13.2383c0,3.0273-0.1338,5.1621-0.4072,6.414
			c-0.2735,1.2481-0.7783,2.3047-1.5264,3.1621c-0.7363,0.8574-1.7265,1.5449-2.9678,2.0567
			c-1.2343,0.5078-2.8515,0.7636-4.8398,0.7636c-2.4082,0-4.2324-0.2773-5.4795-0.8339c-1.2461-0.5567-2.2256-1.2774-2.9492-2.168
			c-0.7178-0.8867-1.1983-1.8184-1.4229-2.791c-0.3349-1.4434-0.5048-3.5762-0.5048-6.3965V261.1533z"/>
		<path d="M383.3877,281.1357l4.8398-0.7363c0.207,0.9414,0.627,1.6562,1.2529,2.1464c0.6329,0.4864,1.5147,0.7305,2.6456,0.7305
			c1.2519,0,2.1953-0.2285,2.8271-0.6875c0.4199-0.3222,0.6387-0.7519,0.6387-1.289c0-0.3692-0.1221-0.6719-0.3467-0.9122
			c-0.2432-0.2285-0.7783-0.4453-1.6172-0.6367c-3.8926-0.8593-6.3613-1.6445-7.4004-2.3554
			c-1.4472-0.9864-2.165-2.3536-2.165-4.1114c0-1.58,0.626-2.9101,1.873-3.9863c1.2403-1.0781,3.1797-1.6133,5.8067-1.6133
			c2.4931,0,4.3486,0.4043,5.5644,1.2207c1.21,0.8164,2.0498,2.0196,2.5117,3.6192l-4.5673,0.832
			c-0.1944-0.7109-0.5655-1.2539-1.1065-1.6348c-0.541-0.3808-1.3193-0.5683-2.3232-0.5683c-1.2705,0-2.1768,0.1797-2.7305,0.5312
			c-0.3643,0.2559-0.541,0.5781-0.541,0.9824c0,0.3438,0.1582,0.6348,0.4746,0.8789c0.4375,0.3184,1.9394,0.7715,4.5117,1.3555
			c2.5723,0.584,4.3662,1.3028,5.3818,2.1504c1.0098,0.8594,1.5147,2.0586,1.5147,3.5977c0,1.6679-0.7061,3.1093-2.0986,4.3105
			c-1.3985,1.2031-3.4659,1.8067-6.208,1.8067c-2.4756,0-4.4454-0.5059-5.8985-1.5157
			C384.7803,284.2431,383.8369,282.8681,383.3877,281.1357z"/>
		<path d="M416.6621,286.3525v-2.7363c-0.6621,0.9765-1.5381,1.7441-2.6201,2.3066c-1.083,0.5625-2.2266,0.8438-3.4297,0.8438
			c-1.2227,0-2.3233-0.2676-3.3028-0.8086c-0.9785-0.5352-1.6777-1.293-2.1162-2.2696c-0.4316-0.9726-0.6504-2.3164-0.6504-4.0371
			v-11.5547h4.8223v8.3828c0,2.5704,0.085,4.1387,0.2676,4.7168c0.1767,0.5782,0.499,1.0391,0.9726,1.3731
			c0.4688,0.3418,1.0645,0.5078,1.7881,0.5078c0.833,0,1.5752-0.2266,2.2256-0.6777c0.6572-0.4532,1.1065-1.0157,1.3438-1.6836
			c0.2373-0.67,0.3652-2.3106,0.3652-4.92v-7.6992h4.8223v18.2559H416.6621z"/>
		<path d="M429.7431,273.6552l-4.3847-0.7969c0.498-1.7578,1.3437-3.0605,2.5478-3.9062c1.21-0.8457,2.9981-1.2676,5.376-1.2676
			c2.1523,0,3.7637,0.2539,4.8154,0.7598c1.0586,0.5098,1.8067,1.1601,2.2325,1.9453c0.4316,0.7852,0.6445,2.2266,0.6445,4.3242
			l-0.0615,5.6367c0,1.6055,0.0791,2.7871,0.2314,3.5508c0.1582,0.7637,0.4443,1.5781,0.8574,2.4512h-4.7793
			c-0.122-0.3223-0.2802-0.7988-0.4619-1.4297c-0.0801-0.2891-0.1406-0.4766-0.1709-0.5684
			c-0.8271,0.8028-1.709,1.4082-2.6513,1.8086c-0.9366,0.4024-1.9395,0.6036-3.004,0.6036c-1.8789,0-3.3632-0.5118-4.4453-1.5333
			c-1.082-1.0175-1.623-2.3105-1.623-3.871c0-1.0332,0.2432-1.9551,0.7412-2.7637c0.4932-0.8086,1.1865-1.4258,2.0742-1.8574
			c0.8936-0.4278,2.1709-0.8047,3.8487-1.127c2.2626-0.4238,3.8251-0.8223,4.7011-1.1875v-0.4805
			c0-0.9296-0.2314-1.5859-0.6875-1.9824c-0.4619-0.3945-1.3252-0.5918-2.6084-0.5918c-0.8642,0-1.5322,0.168-2.0195,0.5078
			C430.4365,272.2138,430.0469,272.8095,429.7431,273.6552z M436.2314,277.583c-0.6201,0.205-1.6054,0.4511-2.9492,0.7363
			c-1.3506,0.289-2.2324,0.5683-2.6455,0.8418c-0.6328,0.4472-0.9551,1.0137-0.9551,1.6992c0,0.6797,0.2617,1.2656,0.7666,1.7559
			c0.5049,0.4941,1.1494,0.7382,1.9336,0.7382c0.876,0,1.709-0.2851,2.5059-0.8574c0.583-0.4375,0.9726-0.9707,1.1552-1.5996
			c0.128-0.4141,0.1885-1.1973,0.1885-2.3535V277.583z"/>
		<path d="M450.3271,286.3525h-4.8222v-18.2559h4.4873v2.5977c0.7666-1.2285,1.4541-2.0352,2.0673-2.4258
			c0.6143-0.3906,1.3145-0.584,2.0918-0.584c1.0948,0,2.1592,0.3008,3.1807,0.9082l-1.5019,4.2051
			c-0.8086-0.5293-1.5684-0.791-2.2686-0.791c-0.6748,0-1.252,0.1855-1.7207,0.5605c-0.4746,0.3711-0.8389,1.045-1.1064,2.0176
			c-0.2735,0.9746-0.4073,3.0176-0.4073,6.125V286.3525z"/>
		<path d="M459.3994,265.6201v-4.4668h4.8223v4.4668H459.3994z M459.3994,286.3525v-18.2559h4.8223v18.2559H459.3994z"/>
		<path d="M468.0654,276.9658c0-1.6016,0.3945-3.1563,1.1856-4.6602c0.7841-1.5,1.9091-2.6465,3.3632-3.4394
			c1.4532-0.7871,3.0645-1.1817,4.8526-1.1817c2.7666,0,5.0283,0.8926,6.7978,2.6875c1.7637,1.793,2.6455,4.0625,2.6455,6.8008
			c0,2.7637-0.8935,5.0508-2.6757,6.8691c-1.7754,1.8184-4.0254,2.7247-6.7256,2.7247c-1.6778,0-3.2774-0.377-4.792-1.1348
			c-1.5196-0.7578-2.6817-1.8633-3.4658-3.3262C468.4599,280.8466,468.0654,279.0634,468.0654,276.9658z M473.0029,277.2255
			c0,1.8145,0.4316,3.2032,1.2891,4.168c0.8633,0.9629,1.9277,1.4434,3.1924,1.4434c1.2646,0,2.3232-0.4805,3.1806-1.4434
			c0.8574-0.9648,1.2832-2.3652,1.2832-4.2051c0-1.7871-0.4258-3.1679-1.2832-4.1328c-0.8574-0.9629-1.916-1.4433-3.1806-1.4433
			c-1.2647,0-2.3291,0.4804-3.1924,1.4433C473.4345,274.0205,473.0029,275.4091,473.0029,277.2255z"/>
		<path d="M488.9834,281.1357l4.8408-0.7363c0.2002,0.9414,0.626,1.6562,1.2529,2.1464c0.6319,0.4864,1.5137,0.7305,2.6446,0.7305
			c1.2529,0,2.1953-0.2285,2.8222-0.6875c0.4258-0.3222,0.6387-0.7519,0.6387-1.289c0-0.3692-0.1162-0.6719-0.3467-0.9122
			c-0.2373-0.2285-0.7783-0.4453-1.6181-0.6367c-3.8858-0.8593-6.3545-1.6445-7.3946-2.3554
			c-1.4472-0.9864-2.164-2.3536-2.164-4.1114c0-1.58,0.6259-2.9101,1.8662-3.9863c1.247-1.0781,3.1865-1.6133,5.8076-1.6133
			c2.499,0,4.3535,0.4043,5.5703,1.2207c1.21,0.8164,2.043,2.0196,2.5049,3.6192l-4.5606,0.832
			c-0.2002-0.7109-0.5654-1.2539-1.1123-1.6348c-0.542-0.3808-1.3134-0.5683-2.3174-0.5683c-1.2705,0-2.1826,0.1797-2.7304,0.5312
			c-0.3643,0.2559-0.5469,0.5781-0.5469,0.9824c0,0.3438,0.1582,0.6348,0.4805,0.8789c0.4316,0.3184,1.9336,0.7715,4.5117,1.3555
			c2.5664,0.584,4.3662,1.3028,5.3818,2.1504c1.0039,0.8594,1.5078,2.0586,1.5078,3.5977c0,1.6679-0.6992,3.1093-2.0976,4.3105
			c-1.3985,1.2031-3.4658,1.8067-6.2031,1.8067c-2.4805,0-4.4512-0.5059-5.8985-1.5157
			C490.3701,284.2431,489.4277,282.8681,488.9834,281.1357z"/>
		<path d="M536.7558,286.3525h-4.4814v-2.6817c-0.7481,1.043-1.6299,1.8184-2.6387,2.3282
			c-1.0156,0.5117-2.0371,0.7676-3.0654,0.7676c-2.0918,0-3.8916-0.8458-5.3877-2.5372c-1.4961-1.6894-2.2441-4.0488-2.2441-7.0742
			c0-3.0957,0.7236-5.4453,2.1835-7.0566c1.459-1.6113,3.2959-2.4141,5.5157-2.4141c2.0429,0,3.8125,0.8438,5.2959,2.541v-9.0722
			h4.8222V286.3525z M523.8828,276.8291c0,1.9531,0.2676,3.3632,0.8086,4.2324c0.7783,1.2656,1.8603,1.8984,3.2597,1.8984
			c1.1124,0,2.0616-0.4746,2.8331-1.4238c0.7851-0.9414,1.1738-2.3594,1.1738-4.2422c0-2.0996-0.377-3.6152-1.1309-4.5352
			c-0.7597-0.9238-1.7265-1.3867-2.9062-1.3867c-1.1494,0-2.1045,0.4551-2.877,1.3672
			C524.2656,273.6552,523.8828,275.0146,523.8828,276.8291z"/>
		<path d="M552.0801,280.538l4.8222,0.8125c-0.626,1.7676-1.5928,3.1114-2.9365,4.0352c-1.332,0.9219-3.0049,1.3809-5.0049,1.3809
			c-3.1806,0-5.5342-1.0352-7.0547-3.1114c-1.2041-1.6621-1.8056-3.7617-1.8056-6.291c0-3.0273,0.791-5.3965,2.3711-7.1113
			c1.582-1.711,3.582-2.5684,6.0019-2.5684c2.7188,0,4.8594,0.8926,6.4277,2.6875c1.5752,1.793,2.3291,4.543,2.2627,8.2403h-12.1259
			c0.0312,1.4335,0.4257,2.5507,1.1738,3.3496c0.7422,0.7968,1.6719,1.1953,2.7851,1.1953c0.7598,0,1.3926-0.2071,1.9161-0.6211
			C551.4297,282.124,551.8125,281.458,552.0801,280.538z M552.3603,275.6552c-0.0371-1.3984-0.3955-2.4629-1.0888-3.1894
			c-0.6875-0.7285-1.5264-1.0938-2.5118-1.0938c-1.0634,0-1.9336,0.3867-2.6211,1.1524c-0.6865,0.7695-1.0273,1.8125-1.0146,3.1308
			H552.3603z"/>
		<path d="M133.5088,320.3818l4.9404-0.4766c0.2978,1.6563,0.9033,2.875,1.8154,3.6543c0.9063,0.7754,2.1377,1.1641,3.6846,1.1641
			c1.6426,0,2.8769-0.3477,3.71-1.0391c0.8271-0.6914,1.2431-1.5,1.2431-2.4277c0-0.5957-0.1728-1.1035-0.5195-1.5195
			c-0.3525-0.42-0.9609-0.7813-1.834-1.0879c-0.5957-0.2071-1.9551-0.5762-4.0674-1.1036c-2.7275-0.6796-4.6435-1.5058-5.7441-2.498
			c-1.541-1.3828-2.3164-3.0762-2.3164-5.0703c0-1.2832,0.3613-2.4883,1.0908-3.6035c0.7305-1.1192,1.7764-1.9707,3.1445-2.5567
			c1.3711-0.584,3.0225-0.875,4.9561-0.875c3.165,0,5.5459,0.6914,7.1416,2.0782c1.5967,1.3906,2.4355,3.2421,2.5146,5.5586
			l-5.081,0.2187c-0.2158-1.2949-0.6836-2.2324-1.4014-2.7969c-0.7139-0.5683-1.791-0.8554-3.2256-0.8554
			c-1.4775,0-2.6367,0.3086-3.4697,0.916c-0.5381,0.3886-0.8086,0.9121-0.8086,1.5664c0,0.5918,0.2529,1.1035,0.7568,1.5312
			c0.6358,0.5391,2.1924,1.1016,4.668,1.6875c2.4746,0.584,4.3018,1.1895,5.4902,1.8125c1.1807,0.627,2.1133,1.4805,2.7793,2.5625
			c0.6719,1.086,1.0069,2.4239,1.0069,4.0176c0,1.4434-0.4014,2.7969-1.2071,4.0586c-0.7968,1.2617-1.9335,2.1992-3.3964,2.8125
			c-1.4629,0.6113-3.293,0.918-5.4786,0.918c-3.1865,0-5.625-0.7344-7.3339-2.2071
			C134.8613,325.3466,133.8398,323.2001,133.5088,320.3818z"/>
		<path d="M168.8027,322.7587l4.8223,0.8164c-0.6201,1.7618-1.5996,3.1094-2.9317,4.0313
			c-1.3408,0.9238-3.0068,1.3867-5.0166,1.3867c-3.1767,0-5.5273-1.041-7.0507-3.1133c-1.2071-1.664-1.8057-3.7617-1.8057-6.2949
			c0-3.0273,0.7871-5.3945,2.374-7.1094c1.5781-1.7148,3.582-2.5722,6.002-2.5722c2.7187,0,4.8623,0.9004,6.4277,2.6914
			c1.5781,1.7949,2.3262,4.539,2.2559,8.2422h-12.1192c0.0332,1.4336,0.4199,2.5488,1.1709,3.3457
			c0.7481,0.7968,1.6748,1.1972,2.791,1.1972c0.7539,0,1.3926-0.207,1.9092-0.6191
			C168.1484,324.3466,168.541,323.6767,168.8027,322.7587z M169.0791,317.8818c-0.0332-1.3985-0.3955-2.4688-1.085-3.1914
			c-0.6904-0.7305-1.5263-1.0957-2.5146-1.0957c-1.0557,0-1.9307,0.3828-2.6182,1.1523c-0.6904,0.7696-1.0273,1.8164-1.0185,3.1348
			H169.0791z"/>
		<path d="M182.4179,328.5732h-4.8222v-18.252h4.4844v2.5938c0.7724-1.2227,1.457-2.0313,2.0742-2.4238
			c0.6142-0.3926,1.3076-0.5879,2.0918-0.5879c1.0976,0,2.1582,0.3047,3.1738,0.9121l-1.499,4.2051
			c-0.8115-0.5274-1.5655-0.793-2.2705-0.793c-0.6729,0-1.25,0.1894-1.7149,0.5605c-0.4717,0.377-0.8427,1.045-1.1103,2.0215
			c-0.2676,0.9746-0.4073,3.0156-0.4073,6.1231V328.5732z"/>
		<path d="M196.5322,328.5732l-7.3555-18.252h5.0811l3.4267,9.3164l0.9971,3.1094c0.2617-0.791,0.4317-1.3105,0.4981-1.5625
			c0.1611-0.5176,0.3291-1.0332,0.5175-1.5469l3.4659-9.3164h4.9619l-7.2481,18.252H196.5322z"/>
		<path d="M211.0566,307.8427v-4.4629h4.8194v4.4629H211.0566z M211.0566,328.5732v-18.252h4.8194v18.252H211.0566z"/>
		<path d="M236.7666,315.7177l-4.7617,0.8516c-0.1641-0.9492-0.5254-1.6699-1.1006-2.1524
			c-0.5655-0.4804-1.3037-0.7246-2.2129-0.7246c-1.21,0-2.1709,0.42-2.8916,1.252c-0.7178,0.8301-1.0762,2.2226-1.0762,4.1758
			c0,2.1699,0.3643,3.7031,1.0908,4.5976c0.7364,0.8965,1.7188,1.3457,2.9463,1.3457c0.919,0,1.6729-0.2617,2.2569-0.7832
			c0.5898-0.5234,1.0029-1.4179,1.246-2.6875l4.7403,0.8106c-0.4951,2.1738-1.4385,3.8164-2.8369,4.9238
			c-1.3985,1.1055-3.2715,1.666-5.625,1.666c-2.666,0-4.7881-0.8457-6.376-2.5312c-1.5869-1.6836-2.3809-4.0157-2.3809-6.9981
			c0-3.0156,0.794-5.3613,2.3838-7.039c1.5938-1.6778,3.7461-2.5215,6.4649-2.5215c2.2226,0,3.9922,0.4804,5.3056,1.4355
			C235.25,312.2998,236.1924,313.7587,236.7666,315.7177z"/>
		<path d="M240.4033,307.8427v-4.4629h4.8193v4.4629H240.4033z M240.4033,328.5732v-18.252h4.8193v18.252H240.4033z"/>
		<path d="M249.0654,319.1904c0-1.6055,0.3984-3.1563,1.1856-4.6582c0.791-1.502,1.9101-2.6524,3.3632-3.4414
			c1.4532-0.7891,3.0713-1.1875,4.8555-1.1875c2.7695,0,5.0322,0.9004,6.7959,2.6914c1.7666,1.7949,2.6484,4.0586,2.6484,6.8027
			c0,2.7598-0.8916,5.0488-2.6728,6.8672c-1.7822,1.8184-4.0254,2.7285-6.7315,2.7285c-1.6757,0-3.2714-0.3848-4.789-1.1387
			c-1.5176-0.7558-2.6787-1.8652-3.4697-3.3261C249.4638,323.0693,249.0654,321.288,249.0654,319.1904z M254.0068,319.4482
			c0,1.8144,0.4317,3.2012,1.2891,4.168c0.8633,0.9648,1.9306,1.4472,3.1953,1.4472c1.2588,0,2.3193-0.4824,3.1807-1.4472
			c0.8574-0.9668,1.2822-2.3653,1.2822-4.2012c0-1.7949-0.4248-3.1719-1.2822-4.1348c-0.8614-0.9668-1.9219-1.4472-3.1807-1.4472
			c-1.2647,0-2.332,0.4804-3.1953,1.4472C254.4385,316.2431,254.0068,317.6337,254.0068,319.4482z"/>
		<path d="M269.9873,323.3544l4.8408-0.7324c0.2031,0.9395,0.626,1.6582,1.249,2.1446c0.6358,0.4882,1.5205,0.7324,2.6514,0.7324
			c1.2471,0,2.1894-0.2285,2.8213-0.6875c0.4199-0.3223,0.6387-0.75,0.6387-1.2891c0-0.3672-0.1182-0.6719-0.3467-0.916
			c-0.2364-0.2246-0.7783-0.4375-1.6172-0.6309c-3.8887-0.8613-6.3574-1.6484-7.4004-2.3574
			c-1.4414-0.9883-2.1621-2.3555-2.1621-4.1074c0-1.584,0.6269-2.9121,1.8701-3.9883c1.2461-1.0801,3.1836-1.6191,5.8076-1.6191
			c2.4961,0,4.3506,0.4082,5.5635,1.2226c1.21,0.8145,2.0498,2.0215,2.5117,3.6192l-4.5635,0.832
			c-0.1982-0.7109-0.5654-1.252-1.1103-1.6328c-0.541-0.3789-1.3135-0.5684-2.3223-0.5684c-1.2685,0-2.1777,0.1797-2.7275,0.5352
			c-0.3682,0.25-0.5449,0.5781-0.5449,0.9785c0,0.3437,0.1582,0.6367,0.4746,0.877c0.4384,0.3222,1.9404,0.7753,4.5156,1.3613
			c2.5693,0.582,4.3633,1.2988,5.3818,2.1465c1.0059,0.8574,1.5108,2.0566,1.5108,3.5937c0,1.6738-0.7051,3.1133-2.0977,4.3184
			c-1.3994,1.2011-3.4668,1.8066-6.2031,1.8066c-2.4805,0-4.4512-0.5078-5.9043-1.5176
			C271.3769,326.4619,270.4345,325.0908,269.9873,323.3544z"/>
		<path d="M301.0761,328.5732v-25.1934h17.2989v4.2618h-12.2207v5.9531h10.5566v4.2656h-10.5566v10.7129H301.0761z"/>
		<path d="M322.5107,307.8427v-4.4629h4.8223v4.4629H322.5107z M322.5107,328.5732v-18.252h4.8223v18.252H322.5107z"/>
		<path d="M348.8896,328.5732h-4.8222v-9.3203c0-1.9727-0.0967-3.25-0.3096-3.8281c-0.207-0.5762-0.542-1.0274-1.0098-1.3497
			c-0.4677-0.3183-1.0215-0.4804-1.6787-0.4804c-0.8389,0-1.5928,0.2285-2.2617,0.6875c-0.669,0.457-1.125,1.0644-1.3682,1.8242
			c-0.2431,0.7578-0.3769,2.1562-0.3769,4.1953v8.2715h-4.8164v-18.252h4.4814v2.6817c1.5996-2.0645,3.6006-3.0996,6.0205-3.0996
			c1.0703,0,2.043,0.1953,2.9248,0.5781c0.8819,0.3828,1.5508,0.8769,2.0069,1.4687c0.456,0.5957,0.7666,1.2735,0.9482,2.0274
			c0.1709,0.7578,0.2617,1.8437,0.2617,3.2519V328.5732z"/>
		<path d="M357.3916,315.8759l-4.3848-0.7929c0.4922-1.7618,1.3379-3.0625,2.5479-3.9082c1.1982-0.8457,2.998-1.2715,5.3691-1.2715
			c2.1592,0,3.7647,0.2558,4.8164,0.7675c1.0576,0.5098,1.7998,1.1543,2.2315,1.9415c0.4257,0.7832,0.6445,2.2304,0.6445,4.3222
			l-0.0547,5.6387c0,1.6055,0.0791,2.7891,0.2256,3.5488c0.1582,0.7656,0.4433,1.5821,0.8633,2.4512h-4.7793
			c-0.128-0.3223-0.2803-0.7969-0.4688-1.4297c-0.0791-0.2852-0.1396-0.4746-0.1699-0.5644
			c-0.8213,0.8027-1.7031,1.4042-2.6455,1.8085c-0.9424,0.4004-1.9463,0.6055-3.0039,0.6055c-1.8848,0-3.3633-0.5117-4.4453-1.5371
			c-1.0889-1.0176-1.6299-2.3105-1.6299-3.8691c0-1.0352,0.249-1.9532,0.748-2.7618c0.4864-0.8085,1.1797-1.4277,2.0674-1.8613
			c0.8887-0.4316,2.1778-0.8086,3.8496-1.123c2.2617-0.4258,3.8311-0.8223,4.7071-1.1895v-0.4844
			c0-0.9238-0.2315-1.5859-0.6934-1.9785c-0.4629-0.3965-1.3262-0.5937-2.6025-0.5937c-0.8643,0-1.5391,0.1699-2.0254,0.5058
			C358.0781,314.4384,357.6894,315.0302,357.3916,315.8759z M363.8799,319.8037c-0.627,0.207-1.6114,0.4511-2.9561,0.7382
			c-1.3496,0.2891-2.2314,0.5704-2.6387,0.8438c-0.6386,0.4492-0.955,1.0156-0.955,1.7012c0,0.6757,0.2558,1.2597,0.7607,1.7519
			c0.5107,0.4922,1.1553,0.7383,1.9395,0.7383c0.8691,0,1.7031-0.2852,2.499-0.8574c0.584-0.4375,0.9736-0.9688,1.1621-1.6016
			c0.1211-0.4082,0.1885-1.1953,0.1885-2.3535V319.8037z"/>
		<path d="M389.9551,328.5732h-4.8223v-9.3203c0-1.9727-0.1094-3.25-0.3106-3.8281c-0.206-0.5762-0.541-1.0274-1.0087-1.3497
			c-0.4629-0.3183-1.0284-0.4804-1.6846-0.4804c-0.8399,0-1.5938,0.2285-2.2569,0.6875c-0.6679,0.457-1.125,1.0644-1.374,1.8242
			c-0.249,0.7578-0.3642,2.1562-0.3642,4.1953v8.2715h-4.8223v-18.252h4.4814v2.6817c1.5928-2.0645,3.5997-3.0996,6.0206-3.0996
			c1.0634,0,2.0429,0.1953,2.9248,0.5781c0.8818,0.3828,1.5498,0.8769,2,1.4687c0.456,0.5957,0.7724,1.2735,0.9492,2.0274
			c0.1826,0.7578,0.2676,1.8437,0.2676,3.2519V328.5732z"/>
		<path d="M410.7705,315.7177l-4.7617,0.8516c-0.1641-0.9492-0.5235-1.6699-1.0948-2.1524
			c-0.5654-0.4804-1.3076-0.7246-2.2138-0.7246c-1.21,0-2.1709,0.42-2.8946,1.252c-0.7109,0.8301-1.0761,2.2226-1.0761,4.1758
			c0,2.1699,0.3652,3.7031,1.0947,4.5976c0.7295,0.8965,1.7148,1.3457,2.9434,1.3457c0.9179,0,1.6718-0.2617,2.2558-0.7832
			c0.5899-0.5234,1.0029-1.4179,1.2471-2.6875l4.7431,0.8106c-0.4931,2.1738-1.4414,3.8164-2.8398,4.9238
			c-1.3926,1.1055-3.2725,1.666-5.6191,1.666c-2.67,0-4.7979-0.8457-6.3848-2.5312c-1.5879-1.6836-2.3779-4.0157-2.3779-6.9981
			c0-3.0156,0.7968-5.3613,2.3838-7.039c1.5986-1.6778,3.7519-2.5215,6.4697-2.5215c2.2197,0,3.9834,0.4804,5.2969,1.4355
			C409.2617,312.2998,410.2041,313.7587,410.7705,315.7177z"/>
		<path d="M414.4062,307.8427v-4.4629h4.8223v4.4629H414.4062z M414.4062,328.5732v-18.252h4.8223v18.252H414.4062z"/>
		<path d="M434.7656,322.7587l4.8164,0.8164c-0.6201,1.7618-1.5937,3.1094-2.9375,4.0313c-1.331,0.9238-3.0039,1.3867-5.0049,1.3867
			c-3.1797,0-5.5332-1.041-7.0537-3.1133c-1.2041-1.664-1.8056-3.7617-1.8056-6.2949c0-3.0273,0.79-5.3945,2.371-7.1094
			c1.5811-1.7148,3.5821-2.5722,6.002-2.5722c2.7187,0,4.8594,0.9004,6.4336,2.6914c1.5693,1.7949,2.3232,4.539,2.2559,8.2422
			h-12.125c0.0302,1.4336,0.4257,2.5488,1.1738,3.3457c0.7422,0.7968,1.6777,1.1972,2.7851,1.1972
			c0.7598,0,1.3926-0.207,1.9151-0.6191C434.1084,324.3466,434.498,323.6767,434.7656,322.7587z M435.039,317.8818
			c-0.0361-1.3985-0.3955-2.4688-1.0879-3.1914c-0.6875-0.7305-1.5263-1.0957-2.5117-1.0957c-1.0586,0-1.9336,0.3828-2.6211,1.1523
			c-0.6875,0.7696-1.0273,1.8164-1.0156,3.1348H435.039z"/>
		<path d="M448.375,328.5732h-4.8164v-18.252h4.4814v2.5938c0.7666-1.2227,1.46-2.0313,2.0684-2.4238
			c0.6133-0.3926,1.3066-0.5879,2.0918-0.5879c1.1006,0,2.164,0.3047,3.1797,0.9121l-1.4961,4.2051
			c-0.8145-0.5274-1.5743-0.793-2.2735-0.793c-0.6816,0-1.247,0.1894-1.7217,0.5605c-0.4619,0.377-0.8388,1.045-1.1064,2.0215
			c-0.2734,0.9746-0.4072,3.0156-0.4072,6.1231V328.5732z"/>
		<path d="M456.3408,319.1904c0-1.6055,0.3896-3.1563,1.1797-4.6582c0.791-1.502,1.9101-2.6524,3.3633-3.4414
			c1.4531-0.7891,3.0703-1.1875,4.8584-1.1875c2.7607,0,5.0293,0.9004,6.792,2.6914c1.7705,1.7949,2.6523,4.0586,2.6523,6.8027
			c0,2.7598-0.8945,5.0488-2.6826,6.8672c-1.7754,1.8184-4.0254,2.7285-6.7256,2.7285c-1.6719,0-3.2715-0.3848-4.7852-1.1387
			c-1.5263-0.7558-2.6816-1.8652-3.4726-3.3261C456.7304,323.0693,456.3408,321.288,456.3408,319.1904z M461.2783,319.4482
			c0,1.8144,0.4258,3.2012,1.29,4.168c0.8633,0.9648,1.9209,1.4472,3.1866,1.4472c1.2646,0,2.3281-0.4824,3.1796-1.4472
			c0.8575-0.9668,1.2891-2.3653,1.2891-4.2012c0-1.7949-0.4316-3.1719-1.2891-4.1348c-0.8515-0.9668-1.915-1.4472-3.1796-1.4472
			c-1.2657,0-2.3233,0.4804-3.1866,1.4472C461.7041,316.2431,461.2783,317.6337,461.2783,319.4482z"/>
		<path d="M477.2539,323.3544l4.8398-0.7324c0.2071,0.9395,0.627,1.6582,1.253,2.1446c0.6328,0.4882,1.5136,0.7324,2.6513,0.7324
			c1.253,0,2.1895-0.2285,2.8155-0.6875c0.4257-0.3223,0.6386-0.75,0.6386-1.2891c0-0.3672-0.1093-0.6719-0.3408-0.916
			c-0.2432-0.2246-0.7842-0.4375-1.6172-0.6309c-3.8916-0.8613-6.3545-1.6484-7.4004-2.3574
			c-1.4472-0.9883-2.165-2.3555-2.165-4.1074c0-1.584,0.626-2.9121,1.8672-3.9883c1.2519-1.0801,3.1855-1.6191,5.8125-1.6191
			c2.4941,0,4.3486,0.4082,5.5644,1.2226c1.21,0.8145,2.0498,2.0215,2.5059,3.6192l-4.5615,0.832
			c-0.1944-0.7109-0.5596-1.252-1.1065-1.6328c-0.5469-0.3789-1.3193-0.5684-2.3232-0.5684c-1.2647,0-2.1768,0.1797-2.7237,0.5352
			c-0.371,0.25-0.5537,0.5781-0.5537,0.9785c0,0.3437,0.1641,0.6367,0.4805,0.877c0.4375,0.3222,1.9336,0.7753,4.5117,1.3613
			c2.5664,0.582,4.3662,1.2988,5.3819,2.1465c1.0097,0.8574,1.5146,2.0566,1.5146,3.5937c0,1.6738-0.6992,3.1133-2.0986,4.3184
			c-1.4043,1.2011-3.4658,1.8066-6.2022,1.8066c-2.4873,0-4.4511-0.5078-5.9043-1.5176
			C478.6465,326.4619,477.6972,325.0908,477.2539,323.3544z"/>
	</g>
</g>
</svg>
