<!-- Generator: Adobe Illustrator 19.0.0, SVG Export Plug-In  -->
<svg version="1.1"
	 xmlns="http://www.w3.org/2000/svg" xmlns:xlink="http://www.w3.org/1999/xlink" xmlns:a="http://ns.adobe.com/AdobeSVGViewerExtensions/3.0/"
	 x="0px" y="0px" width="72px" height="65.7391px" viewBox="0 0 72 65.7391" style="enable-background:new 0 0 72 65.7391;"
	 xml:space="preserve">
<style type="text/css">
	.st0{fill:#597996;}
</style>
<defs>
</defs>
<g id="XMLID_15_">
	<path id="XMLID_16_" class="st0" d="M70.4348,17.1297H54.6496C61.621,13.1807,67.5235,6.9871,65.2477,2.689
		C64.5981,1.4619,63.0407,0,59.3124,0c-3.6282,0-8.3457,1.3962-12.9428,3.8285C40.9586,6.6929,37.645,11.6875,36,14.7913
		c-1.645-3.1054-4.9586-8.0984-10.3696-10.9628C21.035,1.3962,16.3174,0,12.6892,0C8.9593,0,7.4019,1.4635,6.7523,2.689
		c-1.1019,2.0817-0.3318,4.8522,2.1694,7.801c2.0019,2.3603,4.9711,4.691,8.4271,6.6381H1.5652C0.7012,17.1282,0,17.8294,0,18.6934
		v45.4805c0,0.8656,0.7012,1.5652,1.5652,1.5652h68.8696c0.8656,0,1.5652-0.6996,1.5652-1.5652V18.695
		C72,17.831,71.3003,17.1297,70.4348,17.1297z M68.8696,39.0412H37.5652V20.2586h31.3044V39.0412z M47.8346,6.5943
		c4.0977-2.1678,8.388-3.4638,11.4777-3.4638c1.6466,0,2.8315,0.3835,3.1696,1.0237c0.8953,1.692-2.653,6.7179-10.2537,10.7405
		c-2.8002,1.4823-6.1591,2.2351-9.9783,2.2351c-1.4963,0-2.8111-0.1221-3.7972-0.2536C39.78,14.2388,42.815,9.2536,47.8346,6.5943z
		 M19.7718,14.8946c-3.5217-1.8642-6.5285-4.1478-8.4616-6.4283C9.7857,6.6694,9.0845,4.9774,9.5197,4.1541
		c0.3381-0.6402,1.523-1.0237,3.1696-1.0237c3.0897,0,7.3784,1.296,11.4777,3.4638c5.0212,2.6593,8.0562,7.6461,9.3819,10.2835
		c-0.9814,0.1299-2.293,0.252-3.7972,0.252C25.9294,17.1297,22.572,16.3769,19.7718,14.8946z M34.4348,20.2602v18.7826H3.1304
		V20.2602H34.4348z M3.1304,42.1717h31.3043v20.437H3.1304V42.1717z M37.5652,62.6087v-20.437h31.3044v20.437H37.5652z"/>
</g>
</svg>
