<!-- Generator: Adobe Illustrator 19.0.0, SVG Export Plug-In  -->
<svg version="1.1"
	 xmlns="http://www.w3.org/2000/svg" xmlns:xlink="http://www.w3.org/1999/xlink" xmlns:a="http://ns.adobe.com/AdobeSVGViewerExtensions/3.0/"
	 x="0px" y="0px" width="45.1682px" height="53.0573px" viewBox="0 0 45.1682 53.0573"
	 style="enable-background:new 0 0 45.1682 53.0573;" xml:space="preserve">
<style type="text/css">
	.st0{fill:#EEB429;}
	.st1{fill:#EEB52A;}
	.st2{fill:#EEB52B;}
</style>
<defs>
</defs>
<path id="XMLID_21_" class="st0" d="M25.1346,1.3527c0.5041-0.6219,1.0167-1.2142,1.8919-1.3254
	c2.0941-0.2663,3.4392,1.4495,2.803,3.6499c-1.0355,3.5812-2.104,7.1529-3.1619,10.7276c-0.5191,1.7543-1.0382,3.5087-1.571,5.2588
	c-0.4838,1.5892-0.9456,1.9319-2.6104,1.9326c-5.225,0.002-10.4499-0.004-15.6749-0.0062c-0.2768-0.0001-0.554-0.0028-0.8301,0.0115
	c-0.1655,0.0086-0.3846,0.0019-0.3979,0.2243c-0.0065,0.1076,0.1078,0.2466,0.2031,0.3311
	c0.1803,0.1598,0.3857,0.2914,0.5817,0.4333c3.6128,2.6168,7.2284,5.2299,10.8375,7.8518c1.3966,1.0146,1.552,1.5481,0.9631,3.1797
	c-1.5355,4.2543-3.075,8.5071-4.6111,12.7612c-0.092,0.2548-0.1679,0.5154-0.2882,0.8873c0.5172-0.0638,0.7966-0.3645,1.1007-0.597
	c2.7203-2.0792,5.4335-4.1677,8.1551-6.2452c1.9145-1.4614,2.7173-1.4601,4.6104-0.027c2.6197,1.9832,5.2385,3.9675,7.8599,5.9485
	c0.315,0.238,0.6434,0.4582,1.2184,0.866c-0.957-2.6723-1.831-5.0235-2.6413-7.3964c-1.189-3.4818-1.2824-2.809,1.5878-4.8705
	c1.8817-1.3515,3.7839-2.6744,5.668-4.0226c0.2659-0.1903,0.6459-0.2934,0.6972-0.7153c-0.3166-0.3234-0.7188-0.1811-1.0798-0.1826
	c-2.0415-0.0087-4.0839-0.0304-6.1242,0.0221c-0.969,0.0249-1.4309-0.3774-1.6771-1.2905
	c-0.6175-2.2901-1.3045-4.5614-2.2261-6.8691c-0.3208,1.1344-0.6118,2.2782-0.9687,3.4011c-0.7016,2.2077-0.1036,2.04-2.7802,2.1031
	c-1.4865,0.0351-2.9749-0.0061-4.4623-0.0257c-0.5943-0.0078-1.1751-0.1521-1.1623-0.8808c0.0135-0.7748,0.593-0.8959,1.2505-0.8854
	c1.28,0.0205,2.5628-0.0412,3.84,0.0221c0.8709,0.0431,1.3224-0.2317,1.5379-1.115c0.3269-1.3394,0.7738-2.6501,1.1871-3.9676
	c0.3552-1.1323,1.1382-1.8237,2.0348-1.7562c1.0806,0.0813,1.6309,0.7714,1.9138,1.7602c0.5604,1.9584,1.16,3.9057,1.7084,5.8674
	c0.22,0.7869,0.6502,1.1178,1.4862,1.1024c2.11-0.0389,4.2213-0.0134,6.332-0.0035c1.3281,0.0062,2.3013,0.6907,2.6877,1.8656
	c0.3735,1.1357,0.0276,2.1849-1.0522,3.0015c-1.9583,1.481-3.9336,2.9396-5.9043,4.4041c-1.5226,1.1315-1.6131,1.3431-0.983,3.1154
	c0.9252,2.6025,1.9025,5.1865,2.8284,7.7888c0.4214,1.1844,0.3364,2.3297-0.5701,3.2882c-0.8649,0.9145-1.9296,1.1256-3.1379,0.8221
	c-0.8548-0.2147-1.6135-0.5947-2.3102-1.1242c-2.533-1.9248-5.0618-3.8552-7.6082-5.7621c-1.2415-0.9297-1.624-0.934-2.8532-0.0089
	c-2.6251,1.9756-5.2293,3.9789-7.8416,5.9715c-0.8636,0.6587-1.7917,1.1937-2.8926,1.303c-3.3776,0.3353-5.3486-2.468-4.1096-5.8661
	c1.0999-3.0168,2.2408-6.0185,3.3629-9.0272c0.2414-0.6471,0.4772-1.2963,0.7207-1.9426c0.6043-1.6041,0.4285-2.286-0.9582-3.2889
	c-1.8211-1.3171-3.6677-2.5992-5.5045-3.8946c-0.8477-0.5979-1.6653-1.2471-2.5543-1.7758C1.871,25.3215,0.5447,23.9222,0,21.8724
	c0-0.4844,0-0.9689,0-1.4533c0.6922-2.9384,2.0959-4.0291,5.2058-4.033c3.2858-0.004,6.5721-0.0293,9.8574,0.0125
	c1.3901,0.0177,2.7555-0.2135,4.1379-0.253c1.0679-0.0304,1.5548-0.7982,1.8693-1.6896c0.7717-2.1872,1.3318-4.4379,1.9663-6.6662
	c0.4925-1.7297,0.9094-3.48,1.4175-5.2053C24.5888,2.1273,24.6554,1.6235,25.1346,1.3527z"/>
<path id="XMLID_20_" class="st0" d="M2.9042,35.2569c-0.0099-2.2341,1.747-4.0166,3.9828-4.0409
	c2.2095-0.024,4.0489,1.763,4.0827,3.9664c0.033,2.1536-1.8382,4.0487-4.0108,4.0619C4.7389,39.2578,2.914,37.4632,2.9042,35.2569z"
	/>
<path id="XMLID_19_" class="st0" d="M24.9398,46.1442c1.9037,0.0211,3.5007,1.6567,3.4488,3.5322
	c-0.053,1.9174-1.6507,3.4185-3.5978,3.3801c-1.9732-0.0389-3.4404-1.5576-3.4113-3.5312
	C21.408,47.5894,22.953,46.1222,24.9398,46.1442z"/>
<path id="XMLID_18_" class="st0" d="M41.1503,42.199c-1.5342,0.0308-2.8521-1.2399-2.89-2.7866
	c-0.036-1.4713,1.2221-2.7685,2.7302-2.815c1.5852-0.0489,2.8892,1.1553,2.929,2.7049C43.959,40.8416,42.691,42.168,41.1503,42.199z
	"/>
<path id="XMLID_17_" class="st1" d="M37.1738,26.6832c-1.2258,0.0033-2.1991-0.939-2.2035-2.1336
	c-0.0045-1.1986,0.9568-2.1957,2.1463-2.2263c1.2057-0.031,2.2669,1.01,2.2656,2.2226
	C39.3809,25.7158,38.3847,26.6799,37.1738,26.6832z"/>
<path id="XMLID_16_" class="st2" d="M25.8539,24.9603c-0.8602,0.0239-1.6803-0.7356-1.7155-1.5888
	c-0.0347-0.8402,0.7379-1.6582,1.6032-1.6976c0.8869-0.0403,1.6487,0.6798,1.6769,1.5852
	C27.4469,24.1653,26.7383,24.9357,25.8539,24.9603z"/>
<path id="XMLID_15_" class="st0" d="M11.5642,10.4833c-0.0145-2.525,1.9867-4.563,4.4965-4.5791
	c2.4947-0.016,4.5644,2.0123,4.6008,4.5086c0.0357,2.4543-2.0408,4.5583-4.5297,4.5895
	C13.641,15.0335,11.5786,12.993,11.5642,10.4833z"/>
</svg>
