<!-- Generator: Adobe Illustrator 19.0.0, SVG Export Plug-In  -->
<svg version="1.1"
	 xmlns="http://www.w3.org/2000/svg" xmlns:xlink="http://www.w3.org/1999/xlink" xmlns:a="http://ns.adobe.com/AdobeSVGViewerExtensions/3.0/"
	 x="0px" y="0px" width="71.9998px" height="64.2461px" viewBox="0 0 71.9998 64.2461"
	 style="enable-background:new 0 0 71.9998 64.2461;" xml:space="preserve">
<style type="text/css">
	.st0{fill:#597996;}
</style>
<defs>
</defs>
<g id="XMLID_15_">
	<path id="XMLID_16_" class="st0" d="M66.0367,5.9735C62.186,2.1213,57.064,0,51.6161,0S41.0461,2.1213,37.1925,5.9735
		l-1.1906,1.1921l-1.1921-1.1921C30.9577,2.1213,25.8357,0,20.3878,0S9.8179,2.1213,5.9643,5.9735
		c-7.9524,7.9524-7.9524,20.8918,0,28.8442L34.964,63.816c0.276,0.276,0.6489,0.4301,1.0379,0.4301s0.7634-0.1541,1.0379-0.4301
		l28.9968-28.9983C73.9876,26.8653,73.9876,13.9259,66.0367,5.9735z M63.9608,32.7404L36.0019,60.7023L8.0401,32.7419
		c-6.8073-6.8073-6.8073-17.8852,0-24.6926c3.2987-3.2972,7.6837-5.1132,12.3477-5.1132s9.0476,1.816,12.3462,5.1132l2.2314,2.2314
		c0.552,0.552,1.5268,0.5505,2.0773,0l2.2285-2.2314c3.2972-3.2972,7.6823-5.1132,12.3462-5.1132s9.0476,1.816,12.3448,5.1132
		C70.7682,14.8566,70.7682,25.9345,63.9608,32.7404z"/>
</g>
</svg>
