<!-- Generator: Adobe Illustrator 19.0.0, SVG Export Plug-In  -->
<svg version="1.1"
	 xmlns="http://www.w3.org/2000/svg" xmlns:xlink="http://www.w3.org/1999/xlink" xmlns:a="http://ns.adobe.com/AdobeSVGViewerExtensions/3.0/"
	 x="0px" y="0px" width="71.9998px" height="66.2412px" viewBox="0 0 71.9998 66.2412"
	 style="enable-background:new 0 0 71.9998 66.2412;" xml:space="preserve">
<style type="text/css">
	.st0{fill:#597996;}
</style>
<defs>
</defs>
<g id="XMLID_15_">
	<path id="XMLID_16_" class="st0" d="M71.4826,29.135L54.7195,15.1669V4.3207c0-0.7949-0.6437-1.44-1.44-1.44
		s-1.44,0.6451-1.44,1.44v8.4457L36.921,0.3348c-0.5342-0.4464-1.309-0.4464-1.8432,0L0.5177,29.135
		c-0.6106,0.5098-0.6926,1.417-0.1843,2.0275s1.4155,0.6926,2.0275,0.1843l6.2784-5.2316v38.6859c0,0.7963,0.6451,1.44,1.44,1.44
		h51.8402c0.7963,0,1.44-0.6437,1.44-1.44V26.1153l6.277,5.2316c0.2707,0.2246,0.5962,0.3341,0.9216,0.3341
		c0.4133,0,0.8222-0.1771,1.1088-0.5184C72.1753,30.552,72.0917,29.6433,71.4826,29.135z M43.1995,63.3611H28.7994V46.081h14.4001
		V63.3611z M60.4795,24.4809v38.8803H46.0795V44.641c0-0.7963-0.6437-1.44-1.44-1.44H27.3594c-0.7949,0-1.44,0.6437-1.44,1.44
		v18.7201H11.5193V24.4809c0-0.2304-0.0648-0.4392-0.1613-0.6307L35.9994,3.3156l24.6399,20.5345
		C60.5443,24.0417,60.4795,24.2519,60.4795,24.4809z"/>
</g>
</svg>
