<!-- Generator: Adobe Illustrator 19.0.0, SVG Export Plug-In  -->
<svg version="1.1"
	 xmlns="http://www.w3.org/2000/svg" xmlns:xlink="http://www.w3.org/1999/xlink" xmlns:a="http://ns.adobe.com/AdobeSVGViewerExtensions/3.0/"
	 x="0px" y="0px" width="71.9995px" height="62.8514px" viewBox="0 0 71.9995 62.8514"
	 style="enable-background:new 0 0 71.9995 62.8514;" xml:space="preserve">
<style type="text/css">
	.st0{fill:#597996;}
</style>
<defs>
</defs>
<g id="XMLID_15_">
	<g id="XMLID_16_">
		<path id="XMLID_20_" class="st0" d="M12.0626,39.3535c-3.1527,3.1527-3.1527,8.2825,0,11.4352s8.2825,3.1527,11.4351,0
			s3.1527-8.2825,0-11.4352S15.2153,36.2008,12.0626,39.3535z M21.2107,48.5017c-1.8914,1.8914-4.9697,1.8914-6.8611,0
			s-1.8914-4.9697,0-6.8611s4.9697-1.8914,6.8611,0S23.1021,46.6103,21.2107,48.5017z"/>
		<path id="XMLID_17_" class="st0" d="M60.0901,0.4738L29.157,31.4072c-6.9811-5.8217-17.4054-5.4649-23.9554,1.0852
			c-6.9354,6.9354-6.9354,18.222,0,25.1574s18.2219,6.9354,25.1573,0c6.55-6.5501,6.9068-16.9744,1.0852-23.9556l11.4934-11.4935
			l3.4305,3.4306c0.6324,0.6324,1.6547,0.6324,2.287,0s0.6324-1.6547,0-2.287l-3.4305-3.4306l6.8611-6.8611l3.4305,3.4306
			c0.6324,0.6324,1.6547,0.6324,2.287,0c0.6324-0.6324,0.6324-1.6547,0-2.287l-3.4305-3.4306l6.8611-6.8611l8.0046,8.0046
			c0.6324,0.6324,1.6547,0.6324,2.287,0s0.6324-1.6547,0-2.287l-9.1481-9.1482C61.7459-0.1574,60.7225-0.1585,60.0901,0.4738z
			 M28.0718,55.3628c-5.6741,5.6741-14.908,5.6753-20.5832,0c-5.6741-5.6741-5.6741-14.9092,0-20.5834s14.9091-5.6741,20.5832,0
			C33.747,40.4547,33.7459,49.6886,28.0718,55.3628z"/>
	</g>
</g>
</svg>
