<!-- Generator: Adobe Illustrator 19.0.0, SVG Export Plug-In  -->
<svg version="1.1"
	 xmlns="http://www.w3.org/2000/svg" xmlns:xlink="http://www.w3.org/1999/xlink" xmlns:a="http://ns.adobe.com/AdobeSVGViewerExtensions/3.0/"
	 x="0px" y="0px" width="174.2891px" height="56px" viewBox="0 0 174.2891 56" style="enable-background:new 0 0 174.2891 56;"
	 xml:space="preserve">
<style type="text/css">
	.st0{fill:#EEB429;}
	.st1{fill:#FFFFFF;}
	.st2{fill:#EEB52A;}
	.st3{fill:#EEB52B;}
</style>
<defs>
</defs>
<g id="XMLID_15_">
	<path id="XMLID_61_" class="st0" d="M25.1346,1.3527c0.5041-0.6219,1.0167-1.2142,1.8919-1.3254
		c2.0941-0.2663,3.4392,1.4495,2.803,3.6499c-1.0355,3.5812-2.104,7.1529-3.1619,10.7276c-0.5191,1.7543-1.0382,3.5087-1.571,5.2588
		c-0.4838,1.5892-0.9456,1.9319-2.6104,1.9326c-5.225,0.002-10.4499-0.004-15.6749-0.0062
		c-0.2768-0.0001-0.554-0.0028-0.8301,0.0115c-0.1655,0.0086-0.3846,0.0019-0.3979,0.2243
		c-0.0065,0.1076,0.1078,0.2466,0.2031,0.3311c0.1803,0.1598,0.3857,0.2914,0.5817,0.4333
		c3.6128,2.6168,7.2284,5.2299,10.8375,7.8518c1.3966,1.0146,1.552,1.5481,0.9631,3.1797
		c-1.5355,4.2543-3.075,8.5071-4.6111,12.7612c-0.092,0.2548-0.1679,0.5154-0.2882,0.8873c0.5172-0.0638,0.7966-0.3645,1.1007-0.597
		c2.7203-2.0792,5.4335-4.1677,8.1551-6.2452c1.9145-1.4614,2.7173-1.4601,4.6104-0.027c2.6197,1.9832,5.2385,3.9675,7.8599,5.9485
		c0.315,0.238,0.6434,0.4582,1.2184,0.866c-0.957-2.6723-1.831-5.0235-2.6413-7.3964c-1.189-3.4818-1.2824-2.809,1.5878-4.8705
		c1.8817-1.3515,3.7839-2.6744,5.668-4.0226c0.2659-0.1903,0.6459-0.2934,0.6972-0.7153c-0.3166-0.3234-0.7188-0.1811-1.0798-0.1826
		c-2.0415-0.0087-4.0839-0.0304-6.1242,0.0221c-0.969,0.0249-1.4309-0.3774-1.6771-1.2905
		c-0.6175-2.2901-1.3045-4.5614-2.2261-6.8691c-0.3208,1.1344-0.6118,2.2782-0.9687,3.4011
		c-0.7016,2.2077-0.1036,2.04-2.7802,2.1031c-1.4865,0.0351-2.9749-0.0061-4.4623-0.0257
		c-0.5943-0.0078-1.1751-0.1521-1.1623-0.8808c0.0135-0.7748,0.593-0.8959,1.2505-0.8854c1.28,0.0205,2.5628-0.0412,3.84,0.0221
		c0.8709,0.0431,1.3224-0.2317,1.5379-1.115c0.3269-1.3394,0.7738-2.6501,1.1871-3.9676c0.3552-1.1323,1.1382-1.8237,2.0348-1.7562
		c1.0806,0.0813,1.6309,0.7714,1.9138,1.7602c0.5604,1.9584,1.16,3.9057,1.7084,5.8674c0.22,0.7869,0.6502,1.1178,1.4862,1.1024
		c2.11-0.0389,4.2213-0.0134,6.332-0.0035c1.3281,0.0062,2.3013,0.6907,2.6877,1.8656c0.3735,1.1357,0.0276,2.1849-1.0522,3.0015
		c-1.9583,1.481-3.9336,2.9396-5.9043,4.4041c-1.5226,1.1315-1.6131,1.3431-0.983,3.1154c0.9252,2.6025,1.9025,5.1865,2.8284,7.7888
		c0.4214,1.1844,0.3364,2.3297-0.5701,3.2882c-0.8649,0.9145-1.9296,1.1256-3.1379,0.8221
		c-0.8548-0.2147-1.6135-0.5947-2.3102-1.1242c-2.533-1.9248-5.0618-3.8552-7.6082-5.7621c-1.2415-0.9297-1.624-0.934-2.8532-0.0089
		c-2.6251,1.9756-5.2293,3.9789-7.8416,5.9715c-0.8636,0.6587-1.7917,1.1937-2.8926,1.303
		c-3.3776,0.3353-5.3486-2.468-4.1096-5.8661c1.0999-3.0168,2.2408-6.0185,3.3629-9.0272c0.2414-0.6471,0.4772-1.2963,0.7207-1.9426
		c0.6043-1.6041,0.4285-2.286-0.9582-3.2889c-1.8211-1.3171-3.6677-2.5992-5.5045-3.8946
		c-0.8477-0.5979-1.6653-1.2471-2.5543-1.7758C1.871,25.3215,0.5447,23.9222,0,21.8724c0-0.4844,0-0.9689,0-1.4533
		c0.6922-2.9384,2.0959-4.0291,5.2058-4.033c3.2858-0.004,6.5721-0.0293,9.8574,0.0125c1.3901,0.0177,2.7555-0.2135,4.1379-0.253
		c1.0679-0.0304,1.5548-0.7982,1.8693-1.6896c0.7717-2.1872,1.3318-4.4379,1.9663-6.6662c0.4925-1.7297,0.9094-3.48,1.4175-5.2053
		C24.5888,2.1273,24.6554,1.6235,25.1346,1.3527z"/>
	<path id="XMLID_60_" class="st0" d="M2.9042,35.2569c-0.0099-2.2341,1.747-4.0166,3.9828-4.0409
		c2.2095-0.024,4.0489,1.763,4.0827,3.9664c0.033,2.1536-1.8382,4.0487-4.0108,4.0619C4.7389,39.2578,2.914,37.4632,2.9042,35.2569z
		"/>
	<path id="XMLID_59_" class="st0" d="M24.9398,46.1442c1.9037,0.0211,3.5007,1.6567,3.4488,3.5322
		c-0.053,1.9174-1.6507,3.4185-3.5978,3.3801c-1.9732-0.0389-3.4404-1.5576-3.4113-3.5312
		C21.408,47.5894,22.953,46.1222,24.9398,46.1442z"/>
	<path id="XMLID_58_" class="st0" d="M41.1503,42.199c-1.5342,0.0308-2.8521-1.2399-2.89-2.7866
		c-0.036-1.4713,1.2221-2.7685,2.7302-2.815c1.5852-0.0489,2.8892,1.1553,2.929,2.7049C43.959,40.8416,42.691,42.168,41.1503,42.199
		z"/>
	<path id="XMLID_57_" class="st1" d="M112.6827,51.0069c0.0002-1.383,0.0189-2.7665-0.0093-4.1489
		c-0.0108-0.5307,0.1504-0.7293,0.7025-0.7185c1.5553,0.0303,3.1118,0.0213,4.6675,0.0035c0.4789-0.0055,0.7777,0.046,0.759,0.6561
		c-0.017,0.5539-0.2928,0.6001-0.7231,0.5944c-1.1062-0.0147-2.2135,0.019-3.3189-0.0145c-0.5479-0.0166-0.7815,0.0957-0.7962,0.724
		c-0.0546,2.3387-0.0811,2.3381,2.2977,2.3382c0.5186,0,1.0379,0.0159,1.5557-0.0038c0.4643-0.0177,0.7033,0.122,0.6908,0.6431
		c-0.0118,0.4927-0.2781,0.5574-0.67,0.5542c-1.0372-0.0085-2.0757,0.0269-3.1114-0.013c-0.5968-0.023-0.7834,0.1906-0.7564,0.7734
		c0.0415,0.897,0.0049,1.7975,0.0133,2.6964c0.0041,0.4338,0.0417,0.8017-0.6102,0.8081c-0.6752,0.0067-0.7024-0.3464-0.6966-0.8472
		C112.6926,53.704,112.6825,52.3554,112.6827,51.0069z"/>
	<path id="XMLID_56_" class="st1" d="M124.827,50.2104c0.6128-0.5649,1.1624-0.9326,1.9-0.9816
		c1.6116-0.1071,2.5823,0.7074,2.6289,2.321c0.0349,1.2076,0.004,2.417,0.0181,3.6254c0.005,0.4272-0.0385,0.7136-0.5973,0.7222
		c-0.6035,0.0093-0.6688-0.2902-0.66-0.7697c0.0189-1.0356-0.0011-2.0718,0.0047-3.1077c0.0052-0.919-0.37-1.5352-1.3305-1.665
		c-0.8738-0.1181-1.5734,0.387-1.832,1.3147c-0.2931,1.0514-0.0778,2.1311-0.157,3.1942c-0.0308,0.4132,0.2703,1.0146-0.5864,1.0309
		c-0.9212,0.0175-0.6369-0.6306-0.6443-1.0771c-0.0251-1.519-0.0232-3.0388,0.0005-4.5578
		c0.0055-0.3548-0.2329-0.8566,0.4599-0.9472C124.6727,49.2288,124.8918,49.5143,124.827,50.2104z"/>
	<path id="XMLID_55_" class="st1" d="M139.6792,50.1645c0.6694-0.5466,1.1947-0.8983,1.8971-0.9367
		c1.572-0.0859,2.5447,0.6574,2.649,2.2274c0.0846,1.2735,0.0153,2.5567,0.0367,3.8352c0.0076,0.4537-0.1832,0.588-0.6171,0.6023
		c-0.5219,0.0171-0.6452-0.2157-0.6351-0.6831c0.0217-1.0019,0.0241-2.0051-0.0001-3.0069
		c-0.0295-1.2225-0.5312-1.8279-1.4918-1.8638c-1.0096-0.0377-1.7416,0.688-1.7946,1.8592
		c-0.0452,1.0005-0.0348,2.0045-0.0175,3.0064c0.008,0.465-0.112,0.6885-0.6335,0.691c-0.5308,0.0025-0.6303-0.2369-0.6258-0.6945
		c0.0161-1.659-0.0064-3.3184,0.0163-4.9772c0.0044-0.324-0.2302-0.8319,0.3907-0.889
		C139.3448,49.2895,139.8995,49.2119,139.6792,50.1645z"/>
	<path id="XMLID_54_" class="st1" d="M149.3319,49.2326c0.4812-0.0124,1.0658,0.0695,1.5751,0.3963
		c0.2769,0.1777,0.843,0.2846,0.6161,0.7318c-0.2197,0.4331-0.5963,0.8255-1.2406,0.3447
		c-0.7384-0.5511-1.5827-0.5066-2.3148,0.0569c-0.8042,0.6191-0.9169,1.5204-0.7584,2.4466
		c0.1405,0.8212,0.6743,1.3455,1.4708,1.5809c0.6382,0.1887,1.2555,0.093,1.7638-0.3287c0.5259-0.4363,0.7505,0.0139,0.9907,0.3016
		c0.3742,0.4482-0.1016,0.5914-0.359,0.759c-1.1265,0.733-3.0453,0.6044-4.1046-0.2551c-1.053-0.8544-1.4574-2.4686-0.9732-3.8853
		C146.4555,50.0421,147.6721,49.2294,149.3319,49.2326z"/>
	<path id="XMLID_53_" class="st2" d="M37.1738,26.6832c-1.2258,0.0033-2.1991-0.939-2.2035-2.1336
		c-0.0045-1.1986,0.9568-2.1957,2.1463-2.2263c1.2057-0.031,2.2669,1.01,2.2656,2.2226
		C39.3809,25.7158,38.3847,26.6799,37.1738,26.6832z"/>
	<path id="XMLID_52_" class="st1" d="M163.7845,52.5277c0.0001-0.8607-0.0047-1.7214,0.003-2.5821
		c0.0023-0.264-0.0549-0.6063,0.3593-0.6069c0.2868-0.0005,0.7556-0.176,0.8193,0.1911c0.166,0.957,0.4823,0.2408,0.715,0.0933
		c0.3896-0.247,0.801-0.3792,1.2602-0.3988c0.4237-0.0181,0.6396,0.1213,0.606,0.5901c-0.0284,0.3947,0.0001,0.688-0.5784,0.7293
		c-1.5049,0.1075-1.9053,0.5775-1.9316,2.075c-0.0152,0.8604-0.0206,1.7217,0.0003,2.5819
		c0.0111,0.4582-0.1013,0.6931-0.6255,0.6944c-0.5166,0.0013-0.6463-0.2151-0.6343-0.6822
		C163.8007,54.3184,163.7844,53.4228,163.7845,52.5277z"/>
	<path id="XMLID_51_" class="st3" d="M25.8539,24.9603c-0.8602,0.0239-1.6803-0.7356-1.7155-1.5888
		c-0.0347-0.8402,0.7379-1.6582,1.6032-1.6976c0.8869-0.0403,1.6487,0.6798,1.6769,1.5852
		C27.4469,24.1653,26.7383,24.9357,25.8539,24.9603z"/>
	<path id="XMLID_50_" class="st1" d="M121.6353,52.6356c-0.0001,0.8608-0.0164,1.7219,0.0064,2.5821
		c0.0124,0.4692-0.125,0.6801-0.6385,0.6808c-0.5264,0.0007-0.6297-0.2368-0.6257-0.6934c0.0155-1.7558,0.013-3.5119,0.0019-5.2677
		c-0.0026-0.4187,0.1153-0.6279,0.5825-0.6283c0.4697-0.0005,0.6972,0.1271,0.6812,0.6413
		C121.6153,50.8446,121.6354,51.7404,121.6353,52.6356z"/>
	<path id="XMLID_49_" class="st1" d="M154.0955,52.5985c0,0.8594-0.0086,1.719,0.0036,2.5783
		c0.006,0.4244-0.0403,0.728-0.5968,0.7208c-0.4813-0.0062-0.6743-0.153-0.6685-0.6526c0.0201-1.753,0.0166-3.5065,0.0029-5.2597
		c-0.0038-0.4774,0.1685-0.668,0.6614-0.6786c0.5528-0.0119,0.6085,0.2836,0.6015,0.7135
		C154.0856,50.8795,154.0955,51.7391,154.0955,52.5985z"/>
	<path id="XMLID_48_" class="st1" d="M121.8762,47.0547c-0.0893,0.5523-0.4059,0.8507-0.9786,0.8123
		c-0.5415-0.0363-0.8125-0.4017-0.7882-0.8931c0.0275-0.5561,0.3893-0.8665,0.9664-0.8188
		C121.6043,46.1987,121.8462,46.5339,121.8762,47.0547z"/>
	<path id="XMLID_47_" class="st1" d="M153.4038,46.1362c0.6679,0.0368,0.996,0.3731,0.9714,0.9233
		c-0.022,0.4924-0.3428,0.8308-0.8803,0.8135c-0.5682-0.0183-0.9034-0.342-0.8844-0.9141
		C152.6281,46.431,152.9869,46.1907,153.4038,46.1362z"/>
	<path id="XMLID_46_" class="st0" d="M11.5642,10.4833c-0.0145-2.525,1.9867-4.563,4.4965-4.5791
		c2.4947-0.016,4.5644,2.0123,4.6008,4.5086c0.0357,2.4543-2.0408,4.5583-4.5297,4.5895
		C13.641,15.0335,11.5786,12.993,11.5642,10.4833z"/>
	<path id="XMLID_43_" class="st1" d="M75.2174,41.1032c-0.8264-2.4162-1.5389-4.8735-2.4319-7.264
		c-0.8629-2.3099-2.2788-4.1897-4.9773-5.0227c0.488-0.1417,0.751-0.2239,1.0171-0.2944c3.1226-0.8278,5.2212-3.2617,5.5101-6.3927
		c0.3862-4.1866-0.9876-6.9108-4.2132-8.4331c-1.5611-0.7367-3.2249-1.0966-4.914-1.1392
		c-3.7343-0.0941-7.4721-0.0413-11.2081-0.0859c-0.6921-0.0083-0.7834,0.2722-0.7616,0.8671
		c0.0495,1.3461,0.034,2.6949,0.0328,4.0425c-0.0073,7.8434-0.0133,15.6868-0.0375,23.5301
		c-0.0018,0.591,0.1973,0.7927,0.7814,0.7766c1.1754-0.0324,2.3549-0.0569,3.5278,0.0071c0.7907,0.0432,0.9945-0.2274,0.9852-0.9978
		c-0.0403-3.3209-0.0173-6.6425-0.0171-9.9639c0.0001-1.5114,0.1615-1.6398,1.7301-1.5104
		c2.8187,0.2325,4.9398,1.6494,6.5616,3.8803c1.6827,2.3145,2.5608,4.9488,2.958,7.7595c0.0564,0.3991-0.0235,0.8556,0.632,0.842
		c1.4525-0.0303,2.9058-0.0239,4.3587-0.0245C75.1602,41.6797,75.4051,41.6521,75.2174,41.1032z M64.7298,24.7431
		c-1.856,0.1198-3.7238,0.0482-5.5859,0.0868c-0.5079,0.0105-0.6494-0.1989-0.6398-0.6734c0.023-1.1379,0.0074-2.2766,0.0074-3.415
		c0-1.0349,0.0178-2.0702-0.0077-3.1045c-0.0125-0.5043,0.1065-0.7556,0.682-0.7367c2.0659,0.0681,4.1386-0.1134,6.1983,0.2002
		c2.5885,0.3941,3.8105,1.9117,3.5317,4.4138C68.7073,23.386,67.2484,24.5805,64.7298,24.7431z"/>
	<path id="XMLID_40_" class="st1" d="M149.4891,11.1994c0.001-0.6098-0.2118-0.766-0.7804-0.7432
		c-0.9666,0.0388-1.9445,0.0912-2.9018-0.0104c-1.1063-0.1174-1.3567,0.2871-1.3405,1.3502
		c0.0632,4.1383,0.0257,8.2781,0.0257,12.6043c-0.2465-0.2029-0.3376-0.2582-0.4036-0.3351
		c-3.3037-3.8489-11.1068-3.785-14.4346,1.6411c-1.4639,2.3871-1.9001,4.9742-1.5859,7.7537
		c0.692,6.1224,6.2004,9.9488,12.1749,8.4191c1.8308-0.4688,3.2982-1.4371,4.4725-3.2023c0,0.9564,0.021,1.646-0.0071,2.3336
		c-0.0197,0.4813,0.1394,0.6843,0.6446,0.6733c1.1405-0.0248,2.2825-0.0275,3.4228,0.0019c0.538,0.0139,0.7117-0.1746,0.711-0.7149
		C149.4738,31.0469,149.4724,21.1231,149.4891,11.1994z M138.7099,37.6954c-3.2985-0.0201-5.7834-2.5522-5.7785-5.8881
		c0.0051-3.4341,2.5611-6.002,5.9424-5.9699c3.3032,0.0313,5.8413,2.6804,5.7778,6.0304
		C144.5869,35.2782,142.1013,37.7161,138.7099,37.6954z"/>
	<path id="XMLID_37_" class="st1" d="M123.1631,40.9575c-0.0249-0.2394-0.1629-0.4836-0.1629-0.7256c0-9.4378,0-18.8756,0-28.3134
		c0-1.4516,0.1589-1.4516-1.3423-1.4516c-0.726,0-1.3826,0.0766-2.0961-0.0177c-1.1171-0.1476-1.3094,0.3008-1.294,1.3521
		c0.0608,4.1372,0.0448,8.2757,0.0448,12.6543c-4.134-4.9162-13.7618-4.1652-16.085,4.0773
		c-0.484,1.7173-0.5235,3.4621-0.2994,5.2347c0.6049,4.7848,4.4611,8.3253,9.2757,8.4208c2.8916,0.0574,5.4385-0.7372,7.3507-3.4836
		c0,0.9702,0.0239,1.6461-0.0071,2.3196c-0.0229,0.4979,0.1684,0.6693,0.6593,0.6591c1.1403-0.0238,2.2028-0.0292,3.3427,0.0023
		C123.1033,41.7011,123.2179,41.4839,123.1631,40.9575z M112.5331,37.6959c-3.2968-0.0311-5.7542-2.5499-5.7628-5.9069
		c-0.0088-3.4081,2.5781-5.9906,5.9617-5.9515c3.2638,0.0377,5.7641,2.6172,5.7616,5.9439
		C118.4909,35.2177,115.9609,37.7282,112.5331,37.6959z"/>
	<path id="XMLID_34_" class="st1" d="M174.2811,32.7213c-0.0653-0.7215-0.0301-1.4518-0.0862-2.1746
		c-0.4172-5.3773-3.8942-9.4556-9.994-9.1358c-5.0544,0.265-9.3302,3.8432-9.9397,8.5156
		c-0.7423,5.6904,1.9585,10.2146,7.194,11.7337c4.2566,1.235,8.1299,0.4896,11.3483-2.7658c0.4429-0.448,0.5902-0.7518-0.0605-1.168
		c-0.8128-0.5199-1.5914-1.1068-2.3208-1.7387c-0.5-0.4331-0.7744-0.3116-1.1695,0.125c-1.0536,1.164-2.3634,1.8719-3.9395,2.0883
		c-2.7472,0.3771-5.3325-1.173-6.0174-3.6381c-0.1884-0.6782-0.2238-1.1141,0.7745-1.0764c2.2092,0.0834,4.4237,0.026,6.6361,0.0259
		c2.2469-0.0001,4.4941-0.0188,6.7406,0.0122C174.0609,33.5329,174.3411,33.3841,174.2811,32.7213z M168.1375,29.7861
		c-1.3125,0.0016-2.6249,0.0004-3.9374,0.0001c-1.4852-0.0003-2.9705-0.0114-4.4554,0.0066
		c-0.435,0.0053-0.5901-0.0764-0.5308-0.5754c0.2527-2.1262,2.1263-3.8977,4.3444-4.0456c3.0334-0.2023,4.9956,0.9637,5.5763,3.3136
		C169.4298,29.6804,169.3509,29.7846,168.1375,29.7861z"/>
	<path id="XMLID_31_" class="st1" d="M98.1771,32.5802c-0.1092-0.8893-0.062-1.7996-0.1957-2.6837
		c-0.55-3.636-2.1004-6.646-5.7865-7.9128c-6.4914-2.2309-14.7029,1.8982-14.1866,10.5648c0.2525,4.239,2.8862,7.693,7.0329,9.0532
		c4.3198,1.417,9.2196,0.2011,11.7794-2.8899c0.3303-0.3988,0.3157-0.5856-0.1003-0.876c-0.8492-0.593-1.6909-1.2036-2.4812-1.8713
		c-0.4657-0.3935-0.7284-0.2841-1.0842,0.1186c-0.5521,0.6248-1.2244,1.1185-1.9643,1.5054
		c-3.1878,1.6669-7.1674,0.1425-8.0561-3.0679c-0.1966-0.7101-0.1357-1.0546,0.7655-1.0288
		c2.2104,0.0632,4.4237,0.0206,6.6358,0.0206c2.2121-0.0001,4.4248-0.0267,6.6361,0.0151
		C97.8987,33.5412,98.28,33.4179,98.1771,32.5802z M92.3771,29.8007c-1.4156-0.0483-2.834-0.0145-4.2512-0.0147
		c-1.4864-0.0001-2.973-0.0149-4.459,0.0083c-0.4865,0.0076-0.6841-0.1086-0.6117-0.6415c0.3155-2.3227,2.4184-4.0115,5.0413-4.0161
		c2.8143-0.0049,4.6153,1.4084,4.9724,3.8302C93.1625,29.6024,93.0645,29.8242,92.3771,29.8007z"/>
	<path id="XMLID_28_" class="st1" d="M160.0101,49.2943c-1.6477-0.3939-3.2396,0.3127-3.9352,1.7469
		c-0.7262,1.4971-0.3376,3.3687,0.8954,4.3126c1.1695,0.8953,3.3112,0.8492,4.4479-0.121c0.1779-0.1519,0.5746-0.2816,0.3646-0.6208
		c-0.1356-0.219-0.3933-0.4105-0.6382-0.5018c-0.3178-0.1184-0.4463,0.2533-0.6602,0.4016
		c-1.0711,0.7426-2.7203,0.4208-3.2486-0.6612c-0.2242-0.4592-0.3292-0.8687,0.4561-0.819
		c0.6534,0.0413,1.3115,0.0085,1.9675,0.0079c0.6906-0.0006,1.3811,0.0008,2.0716-0.0013c0.2853-0.0008,0.5182-0.0085,0.5639-0.4148
		C162.4503,51.2409,161.3555,49.6159,160.0101,49.2943z M160.1548,52.0474c-0.3778-0.0307-0.7602-0.0052-1.1405-0.0051
		c-0.3112,0.0001-0.6253,0.0266-0.9327-0.0072c-0.3223-0.0355-0.7893,0.2024-0.936-0.1748
		c-0.1607-0.4132,0.1768-0.782,0.4701-1.0803c0.9327-0.9485,2.545-0.7654,3.1022,0.3419
		C161.0261,51.7342,160.9833,52.1147,160.1548,52.0474z"/>
	<path id="XMLID_25_" class="st1" d="M136.6191,55.0791c0.0076-1.2075-0.0076-2.4152-0.0023-3.6228
		c0.0039-0.8755-0.3389-1.5711-1.1433-1.9217c-1.2477-0.5439-2.49-0.4335-3.6654,0.2522c-0.1751,0.1022-0.5142,0.2162-0.3036,0.5289
		c0.1261,0.1873,0.3415,0.4016,0.5403,0.4284c0.1998,0.0269,0.4281-0.1656,0.6453-0.2588c0.8304-0.356,1.6541-0.5328,2.4032,0.1705
		c0.2673,0.251,0.3986,0.5976,0.2742,0.9427c-0.122,0.3384-0.4758,0.1846-0.7278,0.197c-0.9341,0.0458-1.8625,0.1091-2.6982,0.5879
		c-0.8268,0.4737-1.0958,1.226-0.9251,2.1167c0.1702,0.8876,0.795,1.3322,1.6644,1.4501c1.0449,0.1417,1.9932-0.0356,2.8068-1.0267
		c0.1181,0.5214-0.0297,1.0205,0.6601,0.9703C136.7871,55.8474,136.6169,55.4235,136.6191,55.0791z M135.2642,54.0476
		c-0.4096,0.9205-1.8478,1.3169-2.6608,0.7334c-0.565-0.4056-0.5092-1.2395,0.1258-1.6401
		c0.5133-0.3239,1.0971-0.3757,1.5594-0.3659C135.4488,52.7341,135.6881,53.095,135.2642,54.0476z"/>
	<path id="XMLID_22_" class="st1" d="M174.2126,54.9345c0.028-1.1755,0.0265-2.3526,0.0005-3.5283
		c-0.0245-1.1082-0.5996-1.8549-1.6587-2.0835c-0.9611-0.2075-1.9347-0.1915-2.8276,0.3012
		c-0.2818,0.1555-0.8327,0.2211-0.579,0.7417c0.2426,0.4977,0.6115,0.4654,1.0929,0.1726c0.7055-0.4291,1.4923-0.545,2.2576-0.0729
		c0.3904,0.2408,0.5981,0.6537,0.5376,1.0574c-0.0742,0.4942-0.5635,0.2455-0.8662,0.2697
		c-0.8634,0.0691-1.7303,0.1079-2.5128,0.5314c-0.8624,0.4667-1.2377,1.2138-1.0396,2.1643
		c0.1819,0.8728,0.8065,1.3384,1.6788,1.4609c1.0476,0.1471,1.9926-0.048,2.7814-0.9682c0.118,0.4522,0.0155,1.0026,0.7081,0.9075
		C174.4986,55.7904,174.2044,55.2803,174.2126,54.9345z M172.9243,53.9231c-0.3631,0.9905-1.7988,1.4618-2.6755,0.8783
		c-0.6284-0.4182-0.571-1.2754,0.1263-1.6901c0.5194-0.3089,1.1058-0.3364,1.502-0.3387
		C173.1465,52.7303,173.2904,52.9244,172.9243,53.9231z"/>
	<path id="XMLID_19_" class="st1" d="M171.1523,10.4807c-1.7167,0.0079-3.1641,1.4967-3.1166,3.2058
		c0.0464,1.6702,1.4827,3.0185,3.1935,2.998c1.72-0.0206,3.0472-1.3907,3.0293-3.1271
		C174.2407,11.8466,172.8539,10.4729,171.1523,10.4807z M171.0961,16.2125c-1.4512-0.0498-2.5699-1.2625-2.5246-2.7371
		c0.0449-1.4599,1.2501-2.5206,2.7739-2.4414c1.4336,0.0746,2.4857,1.242,2.4273,2.6932
		C173.7167,15.1188,172.4874,16.2602,171.0961,16.2125z"/>
	<path id="XMLID_16_" class="st1" d="M172.2713,14.6442c-0.288-0.5264-0.3754-0.9003,0.0184-1.477
		c0.322-0.4716,0.2043-1.0527-0.4805-1.2916c-1.4186-0.4949-1.8089-0.1688-1.8089,1.3133c0,0.1378,0,0.0184,0,1.0184h-0.1959
		c0,0-0.0031,0.6619,0.0013,1.144c0.0021,0.2352,0.0903,0.2422,0.3662,0.216c0.2273-0.0216,0.2649-0.2542,0.2706-0.4353
		c0.0055-0.1721-0.0161-0.3855,0.0111-0.5536c0.0346-0.2135-0.1433-0.5541,0.193-0.629c0.2791-0.0621,0.5481,0.0683,0.7177,0.3071
		c0.1375,0.1937,0.259,0.4032,0.3401,0.6256c0.1085,0.2976,0.1882,0.6881,0.5923,0.5217
		C172.7588,15.2136,172.3654,14.8161,172.2713,14.6442z M171.0143,13.3346c-0.3874,0.0526-0.5842-0.0831-0.5719-0.4995
		c0.0092-0.3094,0.0497-0.5386,0.4409-0.5148c0.3444,0.021,0.7431-0.0136,0.8,0.4397
		C171.742,13.2275,171.3603,13.2887,171.0143,13.3346z"/>
</g>
</svg>
