<!-- Generator: Adobe Illustrator 19.0.0, SVG Export Plug-In  -->
<svg version="1.1"
	 xmlns="http://www.w3.org/2000/svg" xmlns:xlink="http://www.w3.org/1999/xlink" xmlns:a="http://ns.adobe.com/AdobeSVGViewerExtensions/3.0/"
	 x="0px" y="0px" width="999.6993px" height="679.8604px" viewBox="0 0 999.6993 679.8604"
	 style="enable-background:new 0 0 999.6993 679.8604;" xml:space="preserve">
<style type="text/css">
	.st0{fill:#DBDBDB;}
	.st1{fill:#3A7BB4;}
	.st2{fill:#EEB429;}
</style>
<defs>
</defs>
<g id="g3014_1_">
	<path id="path7385_1_" class="st0" d="M608.325,562.2606c-1-0.7-3.4-1.6-5.2-2c-1.8-0.4-3.3-1.1-3.3-1.5c0-0.4-2.2-2.5-5-4.6
		l-5-3.8l4.1-2.3c2.9-1.6,4.5-2,5.3-1.3c1.6,1.3,2.5,0.3,2.5-2.9c0-1.4,0.6-3.2,1.2-3.9c1-1,1-1.6,0-3.2c-0.8-1.2-0.8-2.2-0.2-2.5
		c0.5-0.3,1-5.7,1-12c0-10.5,0.2-11.4,1.9-11.4c1.1,0,3.1,1.8,4.7,4.1c1.6,2.2,4.1,4.7,5.7,5.6c2.9,1.5,6.8,1.1,6.8-0.8
		c0-0.6,1.2-0.7,2.9-0.4c2.4,0.5,3.2,0.2,4.1-1.5c0.8-1.4,1.8-2,3-1.7c1,0.3,2.4-0.1,3-0.9c0.9-1.1,0.6-1.9-1.5-3.9
		c-1.5-1.4-3.3-2.5-4.1-2.5s-1.4-0.7-1.4-1.5s-2.2-2.5-4.9-3.7c-5.6-2.6-6.9-5.3-4.7-9.6c0.8-1.5,1.7-4.3,2.1-6.2
		c0.6-2.9,0.4-3.7-1.6-5.2c-1.3-1-1.8-1.8-1-1.8c1.8,0,9.1-8,9.3-10.2c0.1-1,0.2-2.6,0.3-3.5c0.1-2.4,3.4-5.5,5.2-4.9
		c0.8,0.3,1.3,1.5,1.2,2.8c-0.2,1.6,0.7,2.8,3,4.3c3.8,2.4,3.7,3.9-0.3,4.6c-2.7,0.5-2.9,0.8-3.2,5.8c-0.3,4.8,0,5.6,2.5,7.7
		c3.6,3.1,4.7,3,7-0.2l1.9-2.6l3.5,1.8c1.9,1,3.6,1.9,3.8,2s-0.5,1.5-1.6,3c-2.5,3.6-6.3,15-6.1,18.3c0.2,3.7,1.5,4.9,7.4,6.6
		c6,1.8,6.1,3.1,0.4,4c-3.7,0.6-5.6,2.5-4.4,4.5c0.3,0.5-0.4,2.9-1.6,5.4c-2.7,5.6-2.3,7.7,1.6,8.8c2.2,0.6,3.3,1.7,4,4
		c1,3.3,2.3,3.7,7.5,2.4c2.1-0.5,2.8-0.2,4,1.9c1.3,2.4,1.2,2.8-1.9,5.5c-3.4,3-4.9,3.3-15.3,2.9c-3.3-0.1-5.9,0.3-6.3,0.9
		c-1,1.6-4.7-3.4-4-5.3c1.7-4.4-5.7-2.2-8.1,2.3c-1.5,2.8-1.5,3.3-0.1,5.5c1.9,2.9,0.5,4.1-2.7,2.3c-3.2-1.7-10-1.7-11.9,0.1
		C611.725,563.6606,610.625,563.7606,608.325,562.2606z"/>
	<path id="path7375_1_" class="st0" d="M426.725,534.0605c-1.5-0.8-3-2.3-3.3-3.4c-0.3-1.1-1.3-2-2-2c-0.8,0-1.8-0.8-2.4-1.8
		c-1-1.7-1-1.7-1,0c0,2.1,0.1,2.1-4.5,0.2c-2.5-1-3.5-2-3.2-3c0.3-0.8,0-1.5-0.7-1.6c-2.3-0.3-3.2-0.5-6-1.7c-1.5-0.6-3.3-1.2-4-1.2
		c-2.4-0.2,5-2.7,11.6-4c5.1-1,6.9-1.8,7.3-3.2c0.5-1.6,1.2-1.8,4-1.3c1.9,0.4,5.2,0.1,7.4-0.6c5.7-1.7,6.5-0.6,6.2,8.9
		c-0.2,4.2-0.7,7.9-1.1,8.2c-0.5,0.3-1.1,1.5-1.5,2.7s-1.4,2.8-2.4,3.7C429.625,535.2606,429.125,535.3606,426.725,534.0605z"/>
	<path id="path7371_1_" class="st0" d="M436.925,526.7606c0-1,0.4-4.1,1-6.8c0.8-4,0.6-5.7-0.5-8l-1.5-3l-8.7,0.2
		c-7.5,0.2-8.8,0.5-9.6,2.2c-0.7,1.6-2.9,2.3-10.7,3.8c-9.1,1.7-10,1.7-11.5,0.2c-0.9-0.9-2.3-1.6-3.2-1.6c-1.9,0-6.3-4.4-8.3-8.5
		c-0.8-1.6-2.6-3.5-3.9-4.2c-2.5-1.2-5-4.8-5-7.1c0-1.4-4-7.5-5.3-8c-0.4-0.2-0.8-1.4-0.8-2.7s-1-4-2.1-6c-2-3.4-2-3.7-0.5-5.3
		c0.9-0.9,3.8-2.1,6.3-2.7s5.1-1.8,5.7-2.8c2.5-4.1,9.3-10.7,11-10.7c1,0,3.4-0.9,5.2-2.1c4.2-2.6,6.5-2,12.3,3.4l4.4,4l1.3-4.6
		c0.7-2.5,1.8-4.9,2.3-5.2c1.5-0.9,1.2-4.4-0.5-6.1c-1.9-1.9-0.9-4.7,1.2-3.5c2.3,1.3,5.9-0.7,6.7-3.8c0.5-2.1,0.1-3.1-2.1-4.9
		c-2.5-2.2-2.6-2.6-1.6-6.1c1.5-5,1.6-4.5-2.4-8.9l-3.5-3.9l1.6-7.1c1.7-7.5,2.8-8.6,8.4-8.6c2,0,2.6-0.6,2.8-2.9
		c0.2-1.6-0.2-3.2-0.9-3.6c-2.2-1.4-0.2-4.1,2.7-3.8c2.7,0.3,4.6,2.8,2.1,2.8c-1.2,0-2.9,4.6-4.5,12.4c-0.4,2.2-0.2,2.8,0.8,2.4
		c1.5-0.5,3.3-3.5,4.9-8.2c0.8-2.4,1.2-2.7,2.5-1.6c1,0.8,1.2,1.6,0.6,2.4c-0.5,0.6-1.2,3.7-1.6,6.8l-0.7,5.6l3.1,0.7
		c4,0.9,6.1-0.8,6.1-4.9c0-4,2.4-5.6,6.8-4.4c3.8,1,3.9,1.4,1.1,8.9c-2,5.5-2.3,5.8-5.1,5.6c-1.7-0.1-3.2,0.3-3.5,1
		c-0.2,0.7,0.3,1.3,1.1,1.3s1.6,0.4,1.6,1c0,1.1-3.6,2.1-6.5,1.8c-1.4-0.2-1.9,0.3-1.7,1.5c0.2,1-0.2,1.8-0.8,1.8s-0.9,0.8-0.5,1.8
		c0.4,1.1-0.2,2.5-1.4,3.7c-1.1,1-2.8,4.2-3.7,7.2c-0.9,2.9-2.3,5.3-3,5.3c-2.2,0-1.5,2.8,0.9,3.6c1.2,0.4,2.7,1.4,3.3,2.2
		c0.8,1.2,2,1.3,5,0.7c2.2-0.5,5.9-0.9,8.4-0.9c15.1-0.3,15.5-0.4,20.3-4.2c5.2-4.1,6.1-7.7,2.7-10.9c-2.6-2.4-2.5-3.3,0.5-4.7
		c2-0.9,3.4-0.7,7.6,1.1c5.9,2.6,8.7,2.1,13.7-2.6c1.7-1.6,4.6-4.1,6.3-5.7l3.2-2.8l3.2,3.1c1.7,1.7,3.9,3.1,4.8,3.1
		c1.4,0,1.5,0.5,0.7,3.1c-0.5,1.7-1.7,4.3-2.7,5.8c-1.2,1.7-1.7,4-1.5,6.7c0.3,3.7,0,4.2-2.7,5.3c-1.7,0.7-3.2,2.2-3.6,3.6
		c-0.3,1.3-2.2,4.3-4.2,6.7c-5.3,6.3-5.9,8.1-3.9,11.2c1.6,2.4,1.6,2.7-0.6,5.6c-1.7,2.3-3.3,3.2-6.8,3.6
		c-6.3,0.8-10.7,2.3-12.1,3.9c-0.6,0.8-4.2,1.9-7.9,2.5c-7.8,1.3-8.3,1.6-10,5.4c-1.5,3.4-0.9,4.7,2.1,4.7c1.2,0,4.3,0.7,6.9,1.7
		c4.4,1.6,4.6,1.8,3.7,4.2c-0.6,1.7-0.6,4.1,0.2,7.3c1,4.3,1.4,4.7,3.4,4.2c1.3-0.3,2.6-0.1,2.9,0.5c1.1,1.7-3.4,6.8-6.5,7.5
		c-1.6,0.3-5.4,2.6-8.4,5.1c-4.3,3.5-6.1,4.4-7.9,4c-1.3-0.3-4-0.1-6,0.4C437.325,528.3606,436.925,528.2606,436.925,526.7606z"/>
	<g id="path7361_1_">
		<path class="st1" d="M534.108,489.5981c-3.8955,0-5.8018-0.8535-5.915-1.2881c-0.6113-2.29-2.5684-2.4668-5.2666-2.4668
			c-0.4033,0-0.8438,0.0059-1.3262,0.0176h-0.001c-2.8252,0-6.3252,0.6885-7.7773,1.5352
			c-0.2939,0.1943-1.0322,0.6855-1.3496,0.6855c-0.2422,0-0.7237-0.4824-1.1162-0.9033c-0.5947-0.6689-1.4502-2.6357-1.6387-4.1416
			c-0.2188-1.748-1.0938-3.8447-2.3447-4.4707c-1.2295-0.5479-2.7129-0.8389-4.2168-0.8389c-2.2617,0-4.2568,0.6455-5.3379,1.7266
			c-0.748,0.748-1.6406,1.1602-2.5137,1.1602c-1.1445,0.001-2.1191-0.6826-2.6719-1.874c-0.4854-1.1328-1.4873-3.0791-2.6074-3.0791
			c-0.0986-0.0273-0.7646-0.3076-1.4697-0.748c-0.1758-0.1123-0.2158-0.1748-0.2158-0.1758
			c-0.0088-0.1318,0.1475-0.6572,1.3975-2.3916c2.3203-3.0596,2.623-3.9307,0.5166-6.1699
			c-1.8555-2.0029-2.1553-2.7568,2.3467-8.2832c2.043-2.5068,4.418-5.9824,4.7949-7.4883c0.2266-0.9824,1.4951-2.2422,2.8311-2.8271
			c3.4287-1.3711,4.998-4.8555,3.9678-8.8652c-0.1982-0.8604,0.1035-2.5518,1.248-4.1748c1.2158-1.6572,2.3506-4.1826,2.5732-5.7344
			c0.2275-1.7612,1.5791-2.022,2.3643-2.022c0.9814,0,2.1143,0.395,3.1905,1.1123c1.3008,0.9775,4.1123,1.7681,6.3555,1.7681
			c2.3887,0,3.9844,0.7813,6.8311,3.3428c2.3584,2.1445,5.4424,4.1719,7.1709,4.7109c0.9023,0.2637,1.5586,0.3789,2.1455,0.3789
			c1.6436,0,2.7754-0.8994,4.29-2.5586c1.3496-1.4453,3.6807-2.46,5.6611-2.46c0.5205,0,1.7627,0.083,2.0723,0.8574
			c0.5928,1.5811,5.3926,3.2422,7.4287,3.8828c3.4736,1.0322,5.168,2.1055,5.5049,2.5078c0.0762,1.1631,0.9365,2.5928,1.7871,3.4453
			c0.5625,0.5615,0.6582,0.752,0.6738,0.8086c-0.0205,0.0264-0.1465,0.251-0.7725,0.877c-0.6592,0.6592-1.0195,0.7441-1.2588,0.7441
			c-0.249,0-0.5635-0.1045-0.96-0.3184c-1.3018-0.7168-2.5371-1.0986-3.5654-1.0986c-1.7676,0-2.9092,1.1299-2.9092,2.8799
			c0,0.6855-0.5625,1.8262-1.1582,2.3467c-1.0332,0.9043-1.8418,2.5967-1.8418,3.8535c0,0.2471-0.0166,0.3867-0.0313,0.4609
			c-0.0547,0.0098-0.1436,0.0186-0.2803,0.0186c-0.332,0-0.8184-0.0527-1.5303-0.167c-0.7002-0.1406-1.3096-0.2129-1.8252-0.2129
			c-1.8916,0-2.2588,1.0518-2.3213,1.5996c-0.1543,0.0605-0.5254,0.1611-1.3018,0.1611c-0.3379,0-0.7119-0.0195-1.1191-0.0566
			c-0.3428-0.0293-0.6709-0.0439-0.9844-0.0439c-2.1113,0-3.7285,0.6426-4.8066,1.9102c-1.2412,1.4609-1.6406,3.6113-1.1875,6.3906
			c0.2207,1.3896,0.8096,4.0078,1.6201,4.9795c0.2295,0.3018,0.8877,2.0625,1.1836,3.7334
			c0.5518,2.9063,3.5195,6.0986,5.9121,8.2676c3.4043,3.0889,4.2158,4.2949,4.3848,4.752c-0.166,0.0469-0.4971,0.1064-1.1133,0.1064
			c-1.6494,0-4.0918,1.0938-5.4092,2.1074C540.8629,488.9018,537.6041,489.5981,534.108,489.5981z"/>
		<path class="st2" d="M510.3797,427.7801c0.7752,0,1.6963,0.3261,2.5978,0.9192c1.7429,1.2742,4.8679,1.9612,6.9476,1.9612
			c1.8895,0,3.2277,0.4456,6.1547,3.0799c2.1408,1.9462,5.4211,4.2642,7.5853,4.9401c0.9794,0.2857,1.722,0.4131,2.408,0.4131
			c2.212,0,3.6411-1.3644,5.0142-2.8684c1.3182-1.4124,3.4816-2.1514,4.9372-2.1514c0.7419,0,1.0795,0.1797,1.1476,0.2407
			c0.2303,0.5998,1.0314,2.2471,8.0831,4.4631c2.6906,0.7999,4.263,1.6277,4.8318,2.046c0.243,1.3567,1.1617,2.7889,2.0239,3.6512
			c0.0297,0.0297,0.0576,0.0578,0.0837,0.0845c-0.0537,0.0558-0.1147,0.118-0.1838,0.187
			c-0.3744,0.3744-0.5532,0.4457-0.5526,0.4509c-0.02-0.002-0.1582-0.0217-0.467-0.1879c-1.4778-0.8153-2.8428-1.2289-4.0568-1.229
			c-1.41-0.0002-2.2923,0.5625-2.7842,1.0346c-0.5133,0.4927-1.1252,1.3863-1.1252,2.8456c0,0.368-0.4117,1.2402-0.817,1.5949
			c-1.1145,0.9752-1.9598,2.5946-2.145,4.0341c-0.1965-0.024-0.4243-0.0566-0.6852-0.098c-0.7862-0.1554-1.4471-0.231-2.0194-0.231
			c-0.8214,0-1.4851,0.1587-2.0291,0.485c-0.5084,0.3051-0.8838,0.7404-1.0981,1.2562c-0.1308,0.011-0.2949,0.0188-0.4973,0.0188
			c-0.304,0-0.6498-0.0174-1.0356-0.0525c-0.3643-0.0317-0.7231-0.0477-1.0665-0.0477c-3.0128,0-4.6911,1.2305-5.5685,2.2627
			c-1.4403,1.6946-1.9155,4.1169-1.4138,7.1894c0.1051,0.6657,0.6826,4.0303,1.7828,5.3996
			c0.228,0.3925,0.7697,1.8997,1.0281,3.3627c0.4842,2.5418,2.5774,5.5051,6.2206,8.8069c1.6361,1.4846,2.6258,2.4918,3.2243,3.1671
			c-1.837,0.2335-4.0134,1.2771-5.2952,2.2631c-0.9919,0.7585-3.8872,1.5264-7.5016,1.5264c-2.9109,0-4.5472-0.4998-5.0231-0.7995
			c-0.9451-2.9554-3.9514-2.9556-6.1622-2.9556c-0.4093,0-0.8565,0.0063-1.2982,0.0174c-3.0508,0-6.7,0.7346-8.3077,1.6724
			l-0.0518,0.0302l-0.0499,0.0333c-0.3016,0.2011-0.5045,0.3216-0.6386,0.3937c-0.1027-0.0929-0.2498-0.2367-0.4572-0.4584
			c-0.4384-0.4932-1.2416-2.2697-1.4103-3.6194c-0.2438-1.95-1.2521-4.4217-2.8901-5.2408l-0.0406-0.0203l-0.0416-0.0185
			c-1.3141-0.584-2.9415-0.9057-4.5826-0.9057c-2.5577-0.0001-4.7606,0.7359-6.0439,2.0191
			c-0.5596,0.5597-1.2011,0.8679-1.8063,0.8679c-0.7435,0-1.3658-0.4517-1.7546-1.2726c-1.3799-3.2034-2.6639-3.619-3.2903-3.673
			c-0.1365-0.0506-0.3814-0.1594-0.6677-0.3114c0.1722-0.2946,0.4568-0.7349,0.9266-1.3879
			c2.3794-3.1364,3.0875-4.6911,0.4741-7.4676c-1.4195-1.533-1.7568-1.8973,2.3829-6.9778c1.507-1.8495,4.4893-5.8763,4.9983-7.9136
			c0.1176-0.5097,1.0421-1.5784,2.2281-2.1064c3.9311-1.5909,5.7207-5.5279,4.572-9.993c-0.1343-0.5819,0.1136-2.0206,1.0641-3.3676
			c1.1327-1.5446,2.4874-4.2425,2.7708-6.2267C509.0811,428.3545,509.3008,427.7801,510.3797,427.7801 M510.3797,425.7801
			c-1.7617,0-3.1116,0.9976-3.3546,2.8804c-0.2,1.4-1.3,3.8-2.4,5.3c-1.2,1.7-1.7,3.7-1.4,5c0.9,3.5-0.4,6.5-3.4,7.7
			c-1.6,0.7-3.1,2.2-3.4,3.5c-0.3,1.2-2.4,4.4-4.6,7.1c-4.4,5.4-4.8,6.9-2.3,9.6c1.6,1.7,1.6,2-0.6,4.9c-1.8,2.5-2,3.3-0.9,4
			c0.8,0.5,1.7,0.9,2,0.9s1.1,1.1,1.7,2.5c0.7449,1.6046,2.1135,2.4536,3.5795,2.4536c1.0922,0,2.2385-0.4717,3.2205-1.4536
			c0.942-0.942,2.7504-1.4334,4.6296-1.4333c1.3127,0,2.66,0.2398,3.7704,0.7333c0.8,0.4,1.6,2.1,1.8,3.7s1.1,3.8,1.9,4.7
			c0.765,0.8196,1.2612,1.2212,1.8476,1.2212c0.4869,0,1.0359-0.2769,1.8524-0.8212c1.2-0.7,4.5-1.4,7.3-1.4
			c0.4719-0.0112,0.9033-0.0174,1.2982-0.0174c3.1188,0,3.9468,0.386,4.3018,1.7174c0.3533,1.3629,3.4575,2.0377,6.8835,2.0377
			c3.3614,0,7.0327-0.6501,8.7166-1.9377c1.3-1,3.5-1.9,4.8-1.9c3.5,0,2.8-1.7-2.6-6.6c-3.2-2.9-5.2-5.6-5.6-7.7
			c-0.3-1.7-1-3.7-1.4-4.2c-0.5-0.6-1.1-2.6-1.4-4.5c-0.7463-4.571,1.0305-7.1402,5.0068-7.1402
			c0.2862,0,0.5844,0.0134,0.8932,0.0402c0.4401,0.04,0.844,0.06,1.2089,0.06c1.4592,0,2.2911-0.32,2.2911-0.96
			c0-0.5334,0.4444-0.8,1.3333-0.8c0.4445,0,1.0001,0.0667,1.6667,0.2c0.7144,0.1143,1.2653,0.1796,1.688,0.1796
			c1.0567,0,1.312-0.4082,1.312-1.4796c0-1,0.7-2.4,1.5-3.1s1.5-2.1,1.5-3.1c0-1.2333,0.7239-1.8802,1.9092-1.8801
			c0.8329,0.0001,1.8939,0.3198,3.0908,0.9801c0.5286,0.2846,0.9908,0.4369,1.4341,0.4369c0.6472,0,1.2537-0.3248,1.9659-1.0369
			c1.4-1.4,1.4-1.8,0.1-3.1c-0.8-0.8-1.5-2.1-1.5-2.9s-2.5-2.2-6.2-3.3c-3.5-1.1-6.5-2.5-6.8-3.3
			c-0.4063-1.0158-1.572-1.4868-3.0007-1.4868c-2.0876,0-4.737,1.0057-6.3993,2.7867c-1.462,1.6012-2.3423,2.2331-3.5521,2.2331
			c-0.528,0-1.1188-0.1204-1.848-0.3331c-1.6-0.5-4.6-2.5-6.8-4.5c-3-2.7-4.8-3.6-7.5-3.6c-2,0-4.6-0.7-5.8-1.6
			C512.8293,426.1967,511.5186,425.7801,510.3797,425.7801L510.3797,425.7801z"/>
	</g>
	<path id="path7359_1_" class="st0" d="M553.125,487.4605c-0.7-0.7-1.2-1.7-1.2-2.3c0-0.6-2.4-3.2-5.4-5.8c-3.7-3.2-5.6-5.8-6.1-8
		c-0.4-1.8-1.1-3.7-1.5-4.3c-1.1-1.4-1.4-5.7-0.6-7.6c0.4-1,2.1-1.6,4.4-1.7c2-0.1,3.8-0.6,4-1.1s1.6-0.7,3.3-0.4
		c2.5,0.5,2.9,0.3,2.9-1.4c0-1.1,0.7-2.6,1.5-3.2c0.8-0.7,1.5-2.1,1.5-3.2c0-1.5,0.4-1.8,1.8-1.3c4,1.6,5.1,1.6,7.1-0.6
		c2.1-2.3,2.1-2.3,0.1-4.1c-2.3-2.2-2.3-1.9-1-5.2l1-2.6l4.7,2.5c5.6,3,7.4,3.1,7.4,0.6c0-2.6,3.4-6.6,4.8-5.7
		c0.6,0.4,1.2,1.4,1.2,2.2c0,0.8,1.1,3.5,2.5,5.9l2.5,4.3l-2.8,2.6c-1.5,1.4-2.9,2.1-3.1,1.6c-0.8-2.4-3.8-0.8-5.1,2.7
		c-0.7,2.1-2.4,5.4-3.7,7.5c-1.3,2-2.1,4.3-1.8,5.1c0.4,0.9-1.2,2.2-4.5,3.8c-4.8,2.3-5,2.6-5,6.2c0,2.5-0.5,4-1.5,4.4
		c-0.8,0.3-1.5,1.7-1.5,3s-0.3,2.4-0.8,2.4s-1.5,1.1-2.3,2.5C554.725,488.1606,554.125,488.4605,553.125,487.4605z"/>
	<path id="path7357_1_" class="st0" d="M900.225,473.1606c-10.5-12.1-11.9-13.3-13.4-12c-0.9,0.8-3.3,1.5-5.3,1.5h-3.7v-6.4
		c0-3.5-0.4-6.7-1-7.1c-2.4-1.5-0.9-6.1,3.3-10.2c7.3-7,21.6-12.8,36.9-14.8c2.7-0.4,7.1-2.1,10.5-4.2c3.2-2,7.9-4.1,10.4-4.8
		c7.5-2,25.3,0.3,30.2,3.9c1,0.8,2.1,3.4,2.5,6.7c0.7,4.5,0.4,6.7-1.6,12.9l-2.5,7.5l-19.9,15c-11,8.3-23.3,17.4-27.3,20.2l-7.4,5.2
		L900.225,473.1606z"/>
	<path id="path7351_1_" class="st0" d="M876.125,453.6606c0-1.4,0.2-1.9,0.5-1.3s0.3,1.8,0,2.5S876.125,455.0605,876.125,453.6606z"
		/>
	<g id="path7347_1_">
		<path class="st1" d="M599.725,443.6606c-2.4,0-4.9-0.7-5.7-1.3c-1.2-0.9-3.2-1.7-4.4-1.7c-0.4,0-1.4-0.5-3.5-4.9
			c-0.1-0.2-2.6-5.8-3.9-6.5c-0.3-0.2-0.6-0.3-1-0.3c-2.3,0-6.4,4.4-6.4,6.9c0,0.7-0.2,0.8-0.7,0.8c-1.1,0-2.8-0.8-4.7-2.2
			c-1.6-1.2-3.2-1.8-4.4-1.8c-1.5,0-3.2,1-3.2,3.8h-0.1c-0.9,0-2.9-0.7-5.9-2.1c-1.5-0.7-3.7-1.5-4.7-1.5c-0.2,0-0.3-0.2-0.3-0.5
			c0-2.5-3.3-2.5-5.4-2.5c-3.8,0-5.4,0.6-7.2,2.9c-1.1,1.4-2,2-2.9,2c-1.4,0-3.2-1.2-5.8-3.7c-3.8-3.7-5.4-4.5-9.4-4.6
			c-2.6-0.1-4.3-0.6-5-1.5c-0.8-1.1-1.9-1.7-3.2-1.7c-0.5,0-1.1,0.1-1.7,0.2c-0.5,0.1-0.9,0.2-1.2,0.2c0.1-0.3,0.4-0.8,1-1.8
			c2.2-3.1,3.5-13.8,1.5-16.2c-0.6-0.8-0.8-1,0.5-3.4c2.2-3.7,1.7-7.1-1.8-10.8c-1.2-1.3-2.3-2-3.3-2c-0.5,0-2.2,0.2-2.2,3.2
			c0,1.1-3.4,4.2-4.8,4.4c-0.6-0.8-1.3-1.2-2.1-1.2c-0.7,0-1.4,0.4-1.8,1.2c-0.1-0.2-0.3-0.5-0.4-0.8c-1.2-2.2-3.5-4.5-5.4-5.3
			c-4.7-1.9-6.8-5-7.3-10.4c-0.2-2.8-1-6.1-2.4-7.2c-0.2-0.2-0.4-0.3-0.5-0.4c2.6-1.8,5.4-3,6.9-3.1c7.1,0,11.5-2.7,20.5-12.2
			c8.6-9.1,9.1-9.6,8.5-14.1c-0.1-0.7-0.3-1.9-0.2-2.5c0.2,0,0.5,0.1,0.6,0.1c0.5,0.1,0.9,0.2,1.4,0.2c2.8,0,3.9-2.7,4.6-5.4
			c0.3-1.1,0.7-1.8,0.9-2c1.3-0.2,3.1-2,3.5-2.4l1.4-1.4l2.1,2.6c2.3,2.7,2.6,3.9,2.6,9.1c0,5.1,0.6,7.4,2.4,10
			c1.6,2.3,2,3.6,1.9,12.1s0,11.7,1.5,13.1c0.9,0.9,2.2,1,3.4,1c1.8,0,3.5-0.5,3.9-1.7c0.1,0,0.2,0,0.4,0c1.5,0,3.4,0.7,3.6,1.1
			c0.4,1,1.7,1.6,2.8,1.6s3.2,2.3,3.2,3.8c0,0.4-0.5,1.4-1.2,2.1c-1.2,1.2-1.8,2.9-1.7,4.5c0.1,1.3,0.7,2.4,1.6,3.1
			c1,0.8,6.2,2.5,9.4,3.5c4.3,1.3,6.2,1.8,7.4,1.8c1.1,0,1.9-0.4,2.4-1.2c0.1-0.2,0.2-0.2,0.4-0.2c1,0,3.2,2,4.2,5
			c1.1,3.4,2.1,4.1,6.4,4.9c1.7,0.3,4.6,0.5,7.7,0.5c1.6,0,3.1,0,4.4-0.1c1.5-0.1,3-0.2,4.2-0.2c2.8,0,3.9,0.4,6.4,2.1
			c2.3,1.5,3,2.2,3.2,2.6c-0.1,0.1-0.3,0.2-0.8,0.4c-1.4,0.5-2.1,1.9-1.7,3.1c0.2,0.6,0,1.6-0.6,2.4c-0.4,0.6-0.9,1-1.3,1
			c-1.1,0-1.6,0.5-1.8,0.9s-0.3,1,0.2,1.9c0.4,0.6,0.7,1.2,0.7,1.4c0.1,0.4,0.6,2.2,0.9,3c0.5,1.4,0.3,1.8-0.9,2.7
			c-1.5,1-2.3,2.3-2.4,3.8c-0.1,1.4,0.4,3,1.6,4.7c0.2,0.2,0.5,0.7,0.7,1c-0.2,0.1-0.4,0.2-0.7,0.3c-2.5,0.8-2.7,2.2-2.1,4.7
			c0.1,0.5,0.3,1.2,0.3,1.6c-0.4,0.1-1.5,0.1-2,0.1L599.725,443.6606z"/>
		<path class="st2" d="M528.125,331.3606l1.4,1.7c2,2.4,2.4,3.3,2.4,8.5c0,5.3,0.6,7.8,2.6,10.5c1.5,2.1,1.8,3.2,1.7,11.5
			c-0.1,9,0,12.1,1.8,13.9c1.2,1.2,2.7,1.3,4.1,1.3c2.2,0,3.8-0.6,4.5-1.7c0.9,0.1,2.1,0.5,2.5,0.7c0.7,1.3,2.3,2,3.6,2l0,0
			c0.6,0.1,2.2,1.8,2.3,2.8c-0.1,0.3-0.4,0.9-0.9,1.4c-1.4,1.4-2.2,3.4-2,5.3c0.1,1.6,0.8,2.9,2,3.8c1.5,1.1,9.4,3.5,9.7,3.6
			c4.4,1.3,6.4,1.8,7.7,1.8s2.3-0.4,3-1.3c0.8,0.4,2.3,1.9,3,4.2c1.3,4,2.8,4.8,7.2,5.6c1.7,0.3,4.7,0.5,7.9,0.5
			c1.6,0,3.1,0,4.5-0.1c1.5-0.1,3-0.2,4.2-0.2c2.6,0,3.5,0.4,5.9,1.9c1,0.6,1.6,1.1,2.1,1.5c-1.5,0.9-2.2,2.6-1.7,4.1
			c0.1,0.1,0,0.6-0.2,1.1c-0.3,0.6-0.7,0.9-0.8,0.9c-1.6,0-2.4,0.9-2.6,1.4c-0.3,0.5-0.6,1.6,0.3,3c0.3,0.5,0.5,0.9,0.6,1.1
			c0.2,0.8,0.7,2.5,0.9,3.1c0.2,0.7,0.2,0.9,0.2,0.9s-0.1,0.2-0.7,0.7c-2.2,1.5-2.7,3.3-2.8,4.5c-0.1,1.6,0.4,3.4,1.7,5.2
			c-3,1.2-2.7,3.6-2.3,5.7c0,0.1,0.1,0.3,0.1,0.4c-0.2,0-0.5,0-0.9,0c-0.3,0-0.6,0-1,0c-2.2,0-4.5-0.7-5.1-1.1
			c-1.2-0.9-3.3-1.8-4.9-1.9c-0.2-0.1-1.1-0.8-2.7-4.3c-0.8-1.8-2.9-6.1-4.3-7c-0.4-0.3-0.9-0.4-1.5-0.4c-2.8,0-7.2,4.5-7.4,7.6
			c-0.7-0.1-2.1-0.7-3.8-2c-1.8-1.3-3.5-2-5-2c-1.3,0-2.4,0.5-3.2,1.5c-0.5,0.6-0.8,1.3-0.9,2.2c-0.8-0.2-2.2-0.7-4.6-1.9
			c-1-0.5-3-1.3-4.5-1.5c-0.3-3.1-4.3-3.1-6.4-3.1c-3.7,0-5.8,0.5-8,3.3c-1.2,1.6-1.9,1.6-2.1,1.6c-1,0-2.8-1.2-5.1-3.4
			c-3.7-3.6-5.5-4.7-10.1-4.9c-2.6-0.1-3.9-0.6-4.2-1.1c-1-1.4-2.4-2.1-4-2.1c-0.3,0-0.6,0-0.9001,0.1c2.2-3.5,3.8-14.3,1.3-17.3
			c-0.2-0.2-0.2-0.3-0.3-0.4c0-0.1,0.2-0.6,0.9-1.8c2.4-4.1,1.8-7.9-1.9001-12c-1.4-1.6-2.7-2.3-4-2.3c-1.1,0-2.1,0.6-2.6,1.6
			c-0.4,0.7-0.6,1.5-0.6,2.6c-0.3,0.8-2.3,2.7-3.5,3.3c-0.7-0.7-1.5-1.1-2.4-1.1c-0.6,0-1.1,0.2-1.6,0.5c-1.3-2.3-3.7-4.5-5.6-5.3
			c-4.4-1.8-6.2-4.5-6.7-9.6c-0.1-1.7-0.7-5.6-2.3-7.4c2.3-1.4,4.3-2.2,5.3-2.2c7.5,0,12-2.7,21.3-12.5c8.5-9,9.4001-10,8.7-15
			c0-0.3-0.1-0.7-0.1-1.1c0.3,0,0.6,0.1,0.8,0.1c4,0,5.1-4.3,5.5-6.2c0.2-0.6,0.4-1.1,0.5-1.4c1.3-0.5,2.7-1.7,3.6-2.6
			L528.125,331.3606 M528.225,328.3606l-2.2,2.2c-1.2,1.2-2.6,2.2-3,2.2c-0.5,0-1.2,1.2-1.6,2.7c-0.8,3.3-1.9,4.7-3.6,4.7
			c-0.3,0-0.7-0.1-1.1-0.2c-0.5-0.1-0.8-0.2-1.1-0.2c-0.9,0-0.9,0.8-0.5,3.7c0.5,4,0.4,4.3-8.2,13.3c-8.8,9.3-13,11.9-19.8,11.9
			c-1.9,0-5.1,1.5-8.1,3.7c-0.2,0.2,0.3,0.9,1.1,1.6c0.9,0.7,1.8,3.4,2,6.5c0.5,5.8,2.9,9.2,7.9,11.3c1.6,0.7,3.8,2.8,4.9,4.8
			c0.8,1.5,1.4,2.3,1.7,2.3c0.1,0,0.2-0.2,0.2-0.5c0-1.1,0.6-1.7,1.2-1.7c0.4,0,0.9,0.3,1.4,1c0.1,0.2,0.3,0.3,0.6,0.3
			c1.7,0,5.9-3.6,5.9-5.4c0-1.5,0.4-2.2,1.2-2.2c0.6,0,1.5,0.5,2.5,1.7c3.1,3.4,3.6,6.3,1.6,9.6c-1.4,2.4-1.5,3.2-0.4,4.5
			c1.6,1.9,0.6,12-1.5,15c-1.6,2.3-1.8,3.4-0.3,3.4c0.4,0,0.9-0.1,1.5-0.2c0.5-0.1,1-0.2,1.5-0.2c1,0,1.8,0.4,2.4,1.3
			c0.8,1.1,2.8,1.8,5.7,1.9c3.8,0.1,5.1,0.8,8.7,4.3c2.8,2.7,4.8,4,6.5,4c1.3,0,2.5-0.8,3.7-2.3c1.6-2,2.9-2.5,6.4-2.5
			c3.3,0,4.4,0.4,4.4,1.5c0,0.8,0.6,1.5,1.3,1.5s2.7,0.6,4.3,1.4c3.1,1.5,5.2,2.2,6.3,2.2c0.7,0,1.1-0.3,1.1-0.9
			c0-1.9,0.8-2.8,2.2-2.8c1,0,2.3,0.5,3.8,1.6c2.2,1.6,4,2.4,5.3,2.4c1.1,0,1.7-0.6,1.7-1.8c0-2,3.7-5.9,5.4-5.9
			c0.2,0,0.3,0,0.4,0.1c0.6,0.3,2.1,3.1,3.5,6.1c1.7,3.8,3.1,5.5,4.4,5.5c1,0,2.7,0.7,3.8,1.5s3.9,1.5,6.3,1.5c0.4,0,0.7,0,1,0
			c3.3,0,3.3-0.3,2.7-2.9c-0.5-2.4-0.3-3,1.4-3.6c1.9-0.6,1.9-0.8,0.6-2.8c-2.1-3-1.9-5.3,0.6-7.1c1.6-1.1,1.9-2,1.3-3.8
			c-0.4-1.3-0.8-2.6-0.9-2.8s-0.4-1.1-0.9-1.8c-0.5-0.8-0.2-1.3,0.7-1.3c1.8,0,3.5-2.9,2.9-4.7c-0.2-0.7,0.3-1.5,1.1-1.9
			c2.4-0.9,1.9-1.9-2.3-4.7c-2.6-1.7-3.8-2.3-7-2.3c-1.1,0-2.5,0.1-4.3,0.2c-1.4,0.1-2.9,0.1-4.3,0.1c-3,0-5.9-0.2-7.5-0.5
			c-4-0.7-4.6-1.2-5.6-4.3c-1.1-3.2-3.5-5.7-5.2-5.7c-0.5,0-0.9,0.2-1.2,0.7s-0.7,0.7-1.5,0.7c-1.2,0-3.3-0.5-7.2-1.7
			c-4.3-1.3-8.4-2.8-9.1-3.3c-1.7-1.3-1.6-4.2,0.3-6c0.8-0.8,1.5-2.1,1.5-2.8c0-2-2.5-4.8-4.2-4.8c-0.9,0-1.7-0.4-1.9-0.9
			c-0.3-1-2.9-1.8-4.5-1.8c-0.8,0-1.3,0.2-1.3,0.6c0,0.6-1.3,1.1-2.9,1.1c-3.7,0-4-1-3.9-13.1c0.1-8.4-0.2-10-2.1-12.7
			c-1.7-2.3-2.2-4.5-2.2-9.4c0-5.5-0.4-6.8-2.8-9.7L528.225,328.3606L528.225,328.3606z"/>
	</g>
	<g id="path7339_1_">
		<path class="st1" d="M479.825,428.5605c-1.6,0-3.5-0.6-6.2-1.8c-2.1-1-3.3-1.5-4.6-1.5c-1.2,0-2.3,0.5-4,1.4
			c-1.3,0.7-2.3,1.2-2.8,1.2c-0.2,0-0.4-0.1-1.1-0.9c-1.2-1.3-1.8-6.7-0.7-9.5c0.2-0.4,1.8-1.9,4.1-3.1c1.5-0.8,4.4-2.6,5-4
			c0.2-0.5,0.5-0.8,0.6-0.8l0,0c1.5,0,9.3-3.5,10.9-5.2c0.8,0.3,3.1,2.6,5,5.4c1.6,2.4,1.7,3.6,1.6,3.8c-0.5,1.3,0.4,3,2.3,4.2
			c1.5,1,1.9,1.9,1.9,2.4c-0.1,0.5-0.6,1-1.5,1.3c-1.4,0.5-3.8,2.4-5.4,4.2C483.225,427.7606,481.725,428.5605,479.825,428.5605z"/>
		<path class="st2" d="M481.125,405.7606c1.9,1.3,5.4,6.3,5.5,7.8c-0.6,1.7,0.5,3.8,2.7,5.2c1,0.7,1.4,1.2,1.4,1.4
			c-0.1,0.1-0.3,0.3-0.9,0.5c-1.8,0.7-4.3,2.8-5.8,4.5s-2.7,2.4-4.3,2.4c-1.4,0-3.3-0.5-5.8-1.7c-2.2-1-3.5-1.6-5-1.6
			c-1.4,0-2.6,0.6-4.5,1.5c-0.6,0.3-1.7,0.9-2.2,1c-0.1-0.1-0.3-0.3-0.5-0.5c-0.9-1-1.5-5.8-0.6-8.4c0.3-0.4,1.7-1.7,3.6-2.6
			c0.5-0.2,4.6-2.4,5.4-4.5c0-0.1,0.1-0.2,0.1-0.2C472.725,410.1606,478.725,407.5605,481.125,405.7606 M480.925,403.4605
			c-0.2,0-0.4,0.1-0.5,0.3c-0.6,1-8.8,4.9-10.3,4.9c-0.5,0-1.2,0.7-1.5,1.5s-2.3,2.4-4.5,3.5s-4.2,2.7-4.5,3.6
			c-1.1,3-0.6,8.8,0.9,10.5c0.7,0.8,1.1,1.2,1.8,1.2s1.6-0.4,3.3-1.3s2.6-1.3,3.6-1.3s2.1,0.5,4.1,1.4c2.7,1.2,4.8,1.9,6.6,1.9
			c2.3,0,4-1,5.8-3c1.5-1.7,3.8-3.5,5-4c2.9-1.1,2.9-3.5-0.2-5.5c-1.4-0.9-2.2-2.2-1.9-3
			C489.425,411.8606,483.025,403.4605,480.925,403.4605L480.925,403.4605z"/>
	</g>
	<path id="path7329_1_" class="st0" d="M622.525,405.6606c-4.5-3.9-7.3-4.9-9-3.3c-0.4,0.4-2.2,0.8-3.9,0.8s-6.8,0.4-11.2,0.8
		s-10,0.4-12.4-0.1c-3.8-0.7-4.6-1.2-5.5-4.1c-1.2-3.7-5-7.1-7.9-7.1c-1.3,0-1.7,0.5-1.2,1.6c0.4,1.1,0.2,1.4-0.6,1.1
		c-1.8-0.7-12-4-13.5-4.4c-1.4-0.4-1.7-5.4-0.3-5.4c0.5,0,1.2-0.9,1.6-2c0.7-2.3-3.3-8.3-5.1-7.6c-0.8,0.3-1.2-0.7-1.2-3.1
		c0-3.2,0.2-3.5,2.4-2.9c1.3,0.3,2.4,0.3,2.5-0.2s0.2-2.6,0.3-4.9s1.1-5.4,2-6.9c1.6-2.4,2.2-2.7,5.9-2.1c3.5,0.5,4.5,0.3,6.1-1.6
		c2.4-2.8,2.1-5.1-1.2-9.5c-1.9-2.5-2.4-3.9-1.8-6.1c1.2-4.7,0.9-8.2-1-10.2c-1.7-1.9-1.7-2,0.9-3c1.5-0.6,4.1-2.4,5.9-4
		c1.8-1.7,4-3,4.9-3c2,0,3.8-2.9,3.8-6.3c0-2.5,3.5-5.2,6.1-4.6c1.6,0.4,16.5-10.6,17.9-13.2c1.1-2,0.3-2.9-2.2-2.9
		c-2,0-2.7-2.9-3.1-12.9l-0.2-6.4l-3.5-0.3c-1.9-0.2-4,0.1-4.6,0.6c-0.7,0.6-1.6,0.4-2.4-0.6c-0.7-0.8-2.5-1.5-4-1.5
		c-2.8,0-4-1.5-4-5.1c0-1.2-0.7-1.9-1.8-1.9c-3.1,0-5.2-3.3-5.2-8.3c0-4.6,0-4.7-3.9-5.3c-3.8-0.6-3.9-0.7-3-3.8
		c1.2-4.3,1.2-4.6-1.1-4.6c-1.8,0-1.9-0.5-1.4-3.9c0.8-5.1-2-13.9-5.3-16.6l-2.5-2l4.1-2.7c3.5-2.3,4.4-2.5,6.6-1.5
		c2.5,1.1,3.1,2.8,2.7,7.6c-0.1,1.2,0.3,3.2,1,4.5c0.7,1.2,1.1,3.7,1.1,5.5s0.8,4.9,1.8,6.8c1.1,1.9,2,4.7,2,6.2
		c0.1,2.4,0.2,2.5,0.9,0.7c0.9-2.1,1-1.8,1.4,2.8c0.1,0.7,0.9,1.8,1.8,2.5s2,2.6,2.3,4.3c0.5,2.3,1.2,3,3,3c3.2,0,7.6,2,9.5,4.2
		c0.9,1.1,3.5,2,6.5,2.4c3.5,0.4,5.6,1.3,7,3c1.7,2,3.2,2.5,10,2.9c11.2,0.8,10.9,0.7,13.6,3.6c3.3,3.6,6.6,4.5,7.4,2
		c0.6-1.8,4.4-3.6,5.5-2.6c1.4,1.4-2.3,15.6-5.7,22.4c-2.1,4.1-4.3,9.3-5,11.5c-3.4,11.7-4.2,15.1-4.2,17.9c0,1.7-0.5,3.7-1,4.6
		c-0.9,1.3-1,1.3-1,0c0.1-6.2,2.4-16.9,5.4-24.5c2-4.9,3.5-9.5,3.5-10c0-0.6-0.9-1.6-2.1-2.3c-1.2-0.7-1.8-0.8-1.4-0.2
		c0.4,0.6,0.4,2.5,0,4.3l-0.7,3.2l-1.8-2.2c-2.2-2.8-3.6-2.8-4.3-0.1c-0.3,1.3,0,2.3,0.9,2.6c0.8,0.3,1.4,1,1.4,1.5
		s-0.4,0.7-0.9,0.4c-0.5-0.3-1.2-0.1-1.6,0.4c-0.3,0.6-0.1,1,0.5,1c0.7,0,0.9,1,0.5,3c-0.4,1.9-0.2,3.6,0.5,4.5c1,1.1,0.9,1.6-0.3,2
		c-1.1,0.4-1.4,1.8-1.1,5.8c0.4,4.9,0.3,5.1-1.2,3.2s-1.6-1.6-1.2,4.3c0.4,5.7,1.7,10,1.7,5.8c0-1.6,0.1-1.6,1.6-0.2
		c1.3,1.3,1.4,2.3,0.5,5.3c-0.6,2.1-1.1,5.6-1.2,7.8l-0.2,4l-0.7-4.5c-0.5-3.2-0.7-0.8-0.8,8.1c-0.1,8,0.4,15.7,1.4,21
		c1.3,7,1.4,9.3,0.3,14.2c-0.7,3.3-1.6,5.3-2,4.6c-0.7-1.1-0.9-0.7-2.6,5.3c-0.3,1,0,1.8,0.6,1.8s1.1-0.8,1.2-1.8s0.5,0.9,0.8,4.3
		c0.4,3.3,0.6,6.1,0.5,6.3C627.225,409.6606,625.025,407.9605,622.525,405.6606z"/>
	<path id="path7327_1_" class="st0" d="M406.825,399.6606c-0.9-0.5-1.9-2.2-2.3-3.7c-0.4-1.5-1.2-3.1-1.9-3.5
		c-2-1.2-5.6-0.9-8.2,0.9c-3.3,2.2-4.3,0.9-1.6-2c1.8-1.9,2.1-3.1,1.7-6.7c-0.3-2.4-0.8-5.1-1-6c-0.6-1.8-10.5-5.2-12.7-4.4
		c-0.9,0.4-1.7-0.2-2-1.5c-0.3-1.2-1.4-2.1-2.6-2.1c-1.5,0-2.8-1.4-4.6-4.9c-1.4-2.7-3-5.2-3.5-5.6s-1-1.9-1-3.3s-0.6-3.6-1.4-4.8
		c-0.8-1.1-1.7-4.9-2.1-8.4c-0.7-7.1-3-12.2-6.9-15.9c-2.4-2.2-2.9-2.3-6.7-1.2c-4.4,1.3-6.9,0.4-6.9-2.6c0-2.9-5.4-12-9.1-15.4
		c-2.1-2-3.9-4.3-3.9-5.2s-0.5-2.8-1.1-4.1c-0.7-1.6-0.9-5.4-0.4-11l0.7-8.6h5.4c5.3,0,10.3-1.5,11.7-3.5c0.4-0.6,0.7-3.1,0.8-5.6
		c0-3.3,0.6-5.1,2-6.4c1.6-1.4,1.9-2.6,1.4-5.7c-0.6-3.5-0.4-3.9,1.6-3.9c1.2,0,3.1-0.5,4.2-1.1c1.6-0.9,1.9-1.7,1.4-4.2
		c-0.6-3.2,1.4-6.7,4-6.7c0.7,0,1.6-0.9,1.9-2.1c0.6-2,0.8-2,3.6,0.9c1.6,1.7,4.3,3.3,5.9,3.7c1.7,0.4,4.1,2.1,5.5,4
		c3,4,8.2,6.2,9.1,4c0.7-1.7,3.5-1.9,5.1-0.3c0.9,0.9,1.9,0.8,4,0c3.6-1.5,7.8-0.1,8.7,2.9c1.2,3.7,4.6,2,9.1-4.5
		c3.4-4.9,4.9-6.1,7.9-6.7c2.1-0.4,4.5-0.3,5.5,0.2s3.2,1,4.8,1c2.2,0,4.1,1.3,7.9,5.3c2.8,2.9,5.8,6.8,6.7,8.6
		c1.6,3.1,1.6,3.5,0,7.1c-1.3,2.8-1.5,5-1,8.3c0.6,3.8,0.3,5.3-1.9,9.1c-2.7,4.9-3.2,8-1.5,9c0.7,0.4,0.4,1.1-0.6,1.9
		c-2.2,1.6-1.5,4.4,2.9,11.6c5.2,8.4,7,10,11.3,10c2.1,0,4.5,0.7,5.5,1.7c2.3,2,2.4,1.9,4.8-4.7c1-2.9,2.3-5.5,2.7-5.6
		c1.5-0.5,4.8,9.1,5.2,15.4l0.4,6.2l-4.4,0.6c-2.4,0.3-6.8,0.4-9.9,0c-16.2-1.8-18-1.8-18.7,0.2c-0.9,2.3-9.8,11.3-11.3,11.3
		c-1.6,0-2.9,4-3.3,9.9c-0.2,3.3-0.8,5.1-1.6,5.1c-0.7,0-1.6,0.8-2,1.8s-1.5,2.4-2.5,3.3c-2.5,2-4,10.1-4.5,24.2
		c-0.3,7.4-0.9,12-1.6,12.6C413.725,400.0605,408.525,400.6606,406.825,399.6606z"/>
	<path id="path7323_1_" class="st0" d="M300.925,317.6606c0-0.6-0.5-1-1.1-1s-0.8,0.4-0.4,1c0.3,0.5,0.8,1,1.1,1
		S300.925,318.2606,300.925,317.6606z"/>
	<path id="path7321_1_" class="st0" d="M539.825,374.4605c-0.1-0.7,0-5.4,0.1-10.6c0.2-8.6,0-9.6-2.5-13.4c-2.3-3.5-2.6-4.8-2.2-9.7
		c0.4-5.2,0.2-5.9-2.8-9.6c-2.8-3.5-3.2-4.7-3-9c0.1-2.8,0.6-5.8,1-6.7c0.4-1,0-2.8-1-4.3c-1.7-2.5-1.6-2.8,0.3-5.3
		c1.9-2.6,2.4-2.7,9.6-2.3c6.8,0.3,7.6,0.2,8.7-1.8c1-1.8,0.8-2.2-1.5-3.1c-1.4-0.5-3.2-1-3.9-1s-1.6-0.7-1.9-1.5
		c-0.3-0.8-1.5-1.5-2.7-1.5c-1.3,0-1.8-0.4-1.4-1.1c0.4-0.6-1.5-3.2-4.6-6c-4.7-4.3-5.2-5.2-4.7-7.8c0.3-1.6,0.2-3.3-0.4-3.6
		c-0.5-0.3-1-1.6-1-2.8c0-1.3-1.9-4.2-4.6-6.9l-4.6-4.7l6.3-5.4c5.2-4.4,6.6-5.2,8.2-4.4c1,0.5,1.9,0.8,2,0.7
		c0.1-0.2,1.2-1.8,2.4-3.5c3-4.3,3.1-11.2,0.2-13.8c-1.7-1.5-2.4-1.6-4-0.7c-2.7,1.7-4,1.5-4-0.6c0-3.1,5.3-7.8,9.5-8.5
		c4.9-0.8,6.5-2.4,7.2-7.6c0.7-5.5,4-7.4,7.4-4.2c3,2.8,4.2,2.7,7.3-1c2.5-2.9,2.7-3,4.3-1.3c1.2,1.2,1.4,1.9,0.6,2.1
		c-5.2,1.7-8.2,7.9-4.3,9c2.5,0.7,6.4,10.7,5.6,14.3c-1.2,4.8-1,5.4,1.4,6c1.7,0.4,2.1,0.9,1.3,1.4c-0.7,0.4-1.2,2.1-1.2,3.7
		c0,2.4,0.4,2.9,2.3,3c3.8,0,4.9,1.5,5.6,7.1c0.6,5,0.9,5.5,3.9,6.3c2.6,0.8,3.3,1.5,3.3,3.5c0,3.9,1.3,5.3,4.2,4.5
		c2-0.5,2.9-0.1,4.1,1.7c1.3,1.8,1.9,2,2.8,1.1c0.7-0.7,2.7-1.2,4.5-1.2h3.3l0.3,9.3c0.3,8.8,0.4,9.3,2.6,9.6
		c1.3,0.2,2.1,0.9,1.9,1.5c-0.7,2-15.1,12.7-16.8,12.4c-2.9-0.4-6.9,2.4-6.9,5c0,3.4-1.8,6.3-3.8,6.3c-0.9,0-3.5,1.6-5.6,3.5
		c-2.2,1.9-4.8,3.5-5.8,3.5c-2.9,0-3.3,2.8-0.7,4.9c2.2,1.8,2.3,2.2,1.3,7.1c-1,4.9-0.9,5.4,1.8,9.1c1.6,2.2,2.8,4.4,2.8,5
		c0,2.3-3,3.9-7.4,3.9c-5.4,0-7.5,2.4-8.4,9.5c-0.4,3.7-0.8,4.4-2.2,4c-2.2-0.7-4.4,1.9-3.6,4.1c0.5,1.3,0.1,1.5-2.5,1.2
		c-2-0.3-3.3,0-3.6,0.9C543.625,376.0605,539.925,376.0605,539.825,374.4605z"/>
	<path id="path7315_1_" class="st0" d="M526.625,326.3606c-0.5-1.3-1.3-1.6-2.8-1.2c-2.5,0.8-6.2-2.3-8-6.7c-1.2-2.9-1.4-3-6-2.5
		c-4.4,0.5-4.8,0.4-5.1-1.6c-0.2-1.4-1-2.2-2.3-2.2c-1.1,0-2.1-0.7-2.3-1.5c-0.4-2.2-17.6-7.4-23.2-7.1c-7.8,0.4-7.5,0.1-11.5,9.9
		c-1.5,3.5-2,4-3.2,3c-0.8-0.7-3.5-1.5-6-1.7c-4.4-0.5-4.6-0.7-9.4-8.5c-2.7-4.4-4.8-8.3-4.8-8.8s1.1-0.8,2.5-0.8
		c3.1,0,3.1-0.7,0.3-3.7l-2.2-2.3l2.4-4.2c1.7-2.9,2.6-6.6,3.1-11.7c0.4-4.1,1-8.9,1.4-10.7c0.8-3.6-1-6.9-7.6-13.8
		c-3.8-4-3.8-4.1-7.5-24.5l-3.7-20.5l3.3-5c1.8-2.7,3.7-5.1,4.1-5.3c0.4-0.2,0.8-0.7,0.8-1.2s3.8-6.6,8.4-13.7
		c4.6-7.1,8.7-13.9,9.1-15.3c0.4-1.4,2.2-3.9,3.9-5.5c4.4-4.2,7.3-8.6,8.1-12c0.8-3.4,4.5-9.4,5.8-9.4c0.5,0,1.7-1,2.7-2.1
		c1.5-1.7,2.5-2,5.1-1.4c3.2,0.7,10.6,1.3,23.5,1.9c6.7,0.3,10.3,2.3,10.3,5.8c0,1.1,0.7,1.8,1.8,1.8c1.3,0,1.1,0.6-1.2,2.3
		c-2.1,1.7-2.6,2.5-1.6,3.1c0.8,0.5,1.6,0.2,2.2-0.6c0.5-0.8,0.9-0.9,0.9-0.4s1.6,1.1,3.6,1.3c3.4,0.2,10.1,4.6,10.3,6.6
		c0,0.5,1.2,2.2,2.6,3.8s2.5,3.7,2.5,4.6c0,0.9,0.9,3.1,2,4.9s2,4.2,2,5.4s1.2,3.7,2.6,5.6c1.5,1.9,2.7,4.2,2.8,5.1
		c0.3,3.2,2.7,6.7,6.1,9c1.9,1.3,3.4,2.6,3.4,3c0,0.3,1,1.8,2.3,3.3c2.9,3.3,2.5,8.7-0.7,11.8l-2.2,2.1l-2.6-2.6
		c-2.4-2.4-2.8-2.5-5.4-1.3c-2.2,1-2.9,2.3-3.5,5.7c-1,5.7-2.1,6.8-7.1,7.7c-5,0.8-9.6,5.5-9.7,9.7c0,2.3,0.4,2.8,2.4,2.8
		c1.3,0,2.7-0.5,3.1-1.1c0.4-0.7,1.3-0.5,2.5,0.6c3.9,3.6,0.5,13.9-4.6,13.9c-2.7,0-14.4,9.1-14.4,11.3c0,0.7,1.9,3.4,4.4,5.9
		c3.7,3.8,4.5,5.4,5.1,9.7c0.9,7.2,2.2,9.8,5.8,12.2c1.8,1.1,3.2,2.9,3.2,3.9s0.9,2.4,2,3s2.3,1.5,2.6,2s2.1,1.1,3.8,1.5
		s3.3,1.1,3.4,1.7c0.3,1.4-8.2,1.8-9.8,0.5c-1.9-1.5-5-0.4-7.4,2.7c-2.4,3.1-2.6,6.6-0.5,8.3c1.1,1,1.2,1.6,0.4,2.6
		c-0.6,0.7-0.9,2.2-0.6,3.2s0.2,3.6-0.2,5.8C527.525,327.1606,527.225,327.7606,526.625,326.3606z"/>
	<g id="g7461_1_">
		<path id="path7325_1_" class="st0" d="M368.925,394.7606c0-2.1-3.6-7.1-5.2-7.1c-0.6,0-0.6,0.6,0.2,1.5c0.7,0.8,1,1.8,0.7,2.1
			c-0.8,0.8-6.7-5.8-7.4-8.3c-0.6-2.1-7.4-10.2-7.4-8.7c0,0.4,1,2.3,2.2,4.3l2.2,3.6l-2.3-2c-1.3-1.1-3-3.3-3.8-5s-4-5.8-6.9-9.1
			c-2.9-3.4-5.4-6.7-5.4-7.4c0-2-7.3-13.9-8.6-13.9c-0.6,0-2.2-1.2-3.5-2.6c-2-2.1-2.1-2.4-0.5-1.8c1.7,0.6,1.6,0.4-0.4-2.4
			c-1.3-1.7-2.8-2.9-3.5-2.6s-1.8-0.2-2.5-1.1c-0.7-0.9-2.1-1.5-3.1-1.5s-2.7-1.2-3.9-2.8c-1.1-1.5-3-3.7-4.3-5c-3-3-1.6-4,1.8-1.4
			c1.9,1.5,3,1.8,3.8,1.1c1.8-1.8-0.8-4.5-3.9-4.2c-1.5,0.2-3.3-0.2-4-0.8s-1.9-0.8-2.7-0.5c-0.8,0.3-2.3-0.4-3.3-1.5
			c-1.7-1.8-1.7-2.5-0.6-5.6c0.9-2.6,1-3.9,0.2-4.7c-0.8-0.8-1.1-0.4-1.1,1.6c0,1.5-0.5,2.7-1,2.7c-0.6,0-1-0.7-1-1.6
			c0-0.9-0.7-2.3-1.5-3.1c-2.1-2.1-0.9-3.5,2.1-2.3c2.3,0.9,2.4,0.8,1.4-1c-0.6-1.1-1.4-2-1.8-2c-0.4,0-2.3-1.3-4.1-3
			c-1.8-1.6-3.7-2.8-4.1-2.5c-0.4,0.3-1.6-0.6-2.6-1.9c-1-1.3-2.9-2.7-4.1-3.1c-1.2-0.4-2-1.1-1.7-1.5s-0.4-1.7-1.5-2.9
			c-1.1-1.2-2-2.8-2-3.7c0-2-1.9-2-2.7,0c-0.5,1.3-0.8,1.3-1.5,0.3c-0.6-1-0.8-0.9-0.9,0.4c0,1.5-0.4,1.6-2.5,0.6
			c-3.2-1.5-3.9-3.6-1.5-4.4c2.1-0.7,2.5-2,1-2.9c-0.5-0.3-1.1,0-1.3,0.7c-0.3,1-1,1-3.3,0c-2.5-1.2-2.7-1.1-1.5,0.3
			c2.3,2.8-0.8,1.7-4.2-1.5c-3.1-2.9-3.2-3-0.8-2.4l2.5,0.6l-2.1001-2.1c-1.9-1.7-2.1-2.3-1.1-3.6c1-1.2,1-1.8,0-3
			c-1-1.2-0.8-2.3,0.9-5.9c1.2-2.4,2.9-5,3.7-5.8c1.4-1.2,1.5-1,0.9,1.2l-0.7,2.5l1.9-2.4l1.9-2.4l0.7,2.6c0.4,1.5,1.1,2.6,1.6,2.6
			s0.6-1.2,0.1-2.9c-0.8-2.8-0.6-3.1,6.5-7.6c7.7-4.9,14.9-11.9,16.5-16c0.9-2.4,1-2.4,4.1-0.9c2.5,1.3,3.6,1.3,5.7,0.4
			c1.4-0.6,2.9-0.8,3.3-0.4c1,1.1,4.8,16.7,5.5,22.5c0.7,5.7,1.7,6.6,8.6,7.6c5.1,0.7,5.4,1,5.8,3.7c0.2,1.6,1.9,4.7,3.8,6.7
			c3.7,4.1,3.9,5.4,2.4,16c-0.8,5.3-0.7,7.6,0.5,11c0.8,2.3,1.5,4.9,1.5,5.7c0,0.8,1.8,3,3.9,5c2.3,2.1,5.3,6.7,7.5,11.3
			c3.8,8.2,4.4,8.5,10.3,6.8c2.7-0.8,3.5-0.6,5.6,1.8c2.6,2.8,6,9.3,5.6,10.8c-0.5,1.9,1.4,10.9,2.7,12.8c0.8,1.1,1.4,3.2,1.4,4.7
			s0.5,3,1,3.3s2.1,2.8,3.5,5.6c1.7,3.4,3.1,4.9,4.5,4.9c2.4,0,3.7,2.7,2.1,4.3c-0.6,0.6-1.1,2.1-1.1,3.2s-0.7,3.1-1.6,4.4
			c-1.6,2.3-1.5,7.3,0.1,11.4c0.6,1.4,0.2,1.8-2.4,1.8C369.625,396.6606,368.925,396.2606,368.925,394.7606z"/>
		<path id="path7307_1_" class="st0" d="M291.325,311.4606c-1.8-3-5.3-10.2-5-10.5c0.5-0.5,5.2,7.1,5.8,9.5
			C292.825,312.8606,292.425,313.3606,291.325,311.4606z"/>
	</g>
	<path id="path7297_1_" class="st0" d="M333.225,277.9606c-3.2-0.3-4.3-0.8-4.3-2.1c0-0.9-1.5-3.3-3.4-5.2c-1.9-2-3.6-4.8-3.8-6.5
		c-0.3-2.7-0.7-3-5.8-3.8c-3-0.5-6-1.3-6.7-1.8s-1.5-3.5-1.9-6.6s-1.7-9.3-2.9-13.7l-2.2-8l-5.1,0.3c-4.7,0.3-5.3,0-9.2-3.7l-4.2-4
		l0.7-8.1c0.4-5.3,0.3-8.1-0.4-8.1c-0.6,0-1.9-1.7-3-3.8s-3-5.7-4.3-8.1c-1.3-2.4-2.4-6.2-2.4-8.5l-0.1-4.1l7.8,0.3
		c8.7,0.4,8.7,0.3,6.7-7.1c-0.6-2.3-0.7-4.4-0.1-5.5c0.5-1,0.6-7.3,0.3-14c-0.6-11.7-0.5-12.2,1.4-12.5c1.7-0.2,2.1-1.4,2.8-7.3
		c1.3-12.2,1.3-27.8-0.1-30.2c-0.7-1.2-2-8.3-3-15.8c-2-15.5-1.8-16.1,4.8-15l4,0.7v-9.1c0-6.9,0.3-9.1,1.3-9.1
		c0.7,0,11.2,0.7,23.3,1.5s25.4,1.6,29.7,1.7l7.8,0.3l2.4,5c2.3,4.8,8.3,12.5,9.8,12.5c0.8,0,4.7,3.7,4.7,4.4c0,0.2,2.9,3.4,6.5,7.1
		c3.6,3.7,6.5,7,6.5,7.5s1.2,1.1,2.7,1.5c3.5,0.9,11,9,11.9,12.8c0.4,1.6,1.6,4.5,2.7,6.5c1.1,1.9,2,5,1.9,7c-0.1,1.9,0.5,5.1,1.3,7
		c0.8,1.9,1.5,4.3,1.5,5.2c0,0.9,2.7,3.6,6,6c3.3,2.4,6,4.7,6,5.2c0,1.9,4.7,5.7,7.8,6.4c1.8,0.4,3.7,1.5,4.2,2.5s2.3,2.1,3.9,2.5
		c1.6,0.4,3.5,1.3,4.2,2.2c1.1,1.4,5.2,3.5,7,3.7c2.2,0.3,0.8,3-9.7,18.7c-6.3,9.6-11.9,18.1-12.4,18.9c-0.5,0.9,0.5,8.8,2.5,19.5
		c4.3,23.2,4.3,21.9-0.4,21c-11.7-2.3-12.4-2.1-19.5,7.4c-4,5.4-5.1,5.8-6.6,2.6c-1.4-3-5.5-4.3-9.3-2.8c-2.2,0.8-3,0.7-3.9-0.3
		c-1.5-1.8-3.4-1.8-5.3,0.2c-2.1,2.1-5,1-8.1-3.1c-1.4-1.9-3.9-3.7-5.5-4c-1.6-0.4-4.2-2-5.7-3.6c-3.1-3.2-4.8-3.7-5.6-1.4
		c-0.3,0.8-1.2,1.5-1.9,1.5c-2.3,0.1-5,4.9-4.6,8.1c0.5,3.4,0.1,3.8-4.2,4.3c-4,0.5-4.1,0.5-3.1,4.8c0.7,3,0.5,4-1.1,5.4
		c-1.3,1.2-1.9,3.1-1.9,6.3c0,2.5-0.3,5.1-0.8,5.6c-0.8,1.2-6,3.6-7,3.3C337.725,278.3606,335.525,278.1606,333.225,277.9606z"/>
	<path id="path7397_1_" class="st0" d="M819.625,671.9606c-4.5-4.2-9.3-8.8-10.7-10.1c-2.5-2.4-2.5-2.5-0.2-1.9
		c1.3,0.3,2,0.1,1.7-0.4c-0.6-1-4.6-2.8-7.6-3.4c-3.2-0.6-5.4-2.3-11-8.4c-3.1-3.3-6.2-6.1-6.8-6.1c-0.9,0-0.9-0.4-0.2-1.3
		c0.8-0.9,0.4-1.6-1.5-2.4c-2.1-1-2.3-1-1.3,0.3c2.4,2.9-1.1,1.4-7.2-3c-3.4-2.5-6.6-4.7-7.2-5c-0.7-0.4-0.7-0.7,0.2-1.1
		c1.9-0.9,1.5-2.4-0.7-2.4c-1.4,0-2.2-0.9-2.6-2.8c-0.3-1.5-1.3-4.4-2.1-6.4c-1.5-3.5-1.4-4.1,1.7-13.5c1.8-5.4,3.6-10.3,4-10.8
		s1-2.2,1.4-3.7c0.4-1.6,1.8-3.3,3.4-4.2c3-1.6,5.2-5.3,5.2-9c0-1.3,1.2-3.4,2.6-4.7c1.9-1.7,2.4-3.1,2.1-4.9c-0.7-3.5,2.1-9,4.5-9
		c3,0,5.6,3.1,6.2,7.5c0.9,6.8,2.3,9.5,5,9.5c1.3,0,3.2,0.9,4.2,2c1,1.1,2.3,2,2.9,2c1.4,0,4.8-3.6,7.2-7.6c3.4-5.6,7.2-9.4,9.4-9.4
		c1.2,0,3.2-0.7,4.6-1.7c2.4-1.6,2.7-1.5,7,1.5c2.5,1.7,4.9,3.2,5.4,3.2c1.7,0,3,3.6,1.8,4.8c-1.6,1.6,0.4,3.6,5.1,5.2
		c2.2,0.7,3.7,1.8,3.5,2.4c-0.2,0.6,1.7,2.5,4.3,4.1c2.6,1.6,6.7,4.9,9,7.4c2.7,2.8,4.8,4.2,5.8,3.8c0.8-0.3,1.5-0.2,1.5,0.3
		s1.5,1.4,3.3,2c3.4,1.1,6.8,4.9,8.1,8.7c0.4,1.3,2.4,2.8,5.2,3.8c4.3,1.6,4.4,1.8,2.9,3.6c-1.2,1.3-1.6,3.1-1.3,6.3l0.4,4.4
		l-16.5,0.7c-9.1,0.4-19.1,0.9-22.3,1.3l-5.8,0.6l-5.9,11.1c-3.2,6.1-6.3,11.6-6.8,12.2c-2.3,2.6-2.2,6.1,0.3,8.5s3.2,5.8,1.5,7.5
		c-0.8,0.8-1.1,3.5-1.1,11.3c0,2.5-1.6,5.1-3.2,5.1C828.225,679.6606,824.125,676.2606,819.625,671.9606z"/>
	<path id="path7395_1_" class="st0" d="M674.625,643.5606c-0.9-0.5-3.9-1.3-6.6-1.9c-2.8-0.5-6.9-2.2-9.1-3.7
		c-3.2-2.1-5.9-2.9-12.3-3.5c-4.5-0.4-9.9-1-12-1.2c-2.3-0.2-4.9-1.4-6.5-2.9c-4.9-4.6-9.4-6.7-14.4-6.7c-2.6,0-4.8-0.3-4.8-0.6
		s1-1.7,2.3-2.9c1.2-1.3,2.7-2.8,3.3-3.4c0.6-0.6,3.4-3.2,6.3-5.8l5.3-4.8l-0.9-4.9c-0.7-3.9-1.8-5.7-5.4-9
		c-5.3-4.8-6.6-8.3-6.8-18.7c-0.2-9.3,1.1-12,6-12c1.9,0,4.9,0.5,6.8,1.2c4.5,1.6,6.3,0,4.3-3.8c-1.2-2.2-1.2-3,0.1-5.3
		c1.9-3.3,4.9-4.2,4.9-1.3c0,1.1,0.5,2.3,1.1,2.7s1.5,1.7,2,3.1c1.1,2.9,2.5,3.1,3.9,0.5c0.9-1.7,2.1-1.9,9-1.8
		c6.6,0.1,8.4-0.2,10.7-1.9c3.2-2.4,9.3-12.9,9.3-16.3c0-1.7,0.5-2.2,1.6-1.8c0.9,0.3,2,0.6,2.5,0.6c1.5,0,5,4.3,5,6.2
		c0,1,0.5,1.8,1.1,1.8s1.5,1.4,2.1,3.1c1.2,3.5,4.1,4.9,10,4.9c2.7,0,4.5,0.6,5.4,1.8c1.8,2.4,1.7,7.7-0.1,9.2
		c-1.6,1.3-1.3,4.6,0.7,8.7c1.6,3.2,9.1,4.2,12.1,1.7c3.1-2.7,9.6-5.8,10.4-5c0.4,0.4,0.1,0.7-0.5,0.7c-4.1,0,3.3,9.7,9.1,11.9
		c1.8,0.7,2.8,1.8,2.8,3.1c0,1.1,0.6,2,1.3,2c6,0,33.1,1,33.3,1.3c0.1,0.1-1.7,5.8-4.2,12.5l-4.4,12.2l2,3.9c2.1,4.2,2.6,7,1.1,7
		c-0.5,0-1.2-0.7-1.5-1.6s-1.1-1.3-1.7-0.9c-0.6,0.4-2.4-0.3-4-1.4c-3.4-2.5-3.9-2.6-3.9-0.6c0,0.8,0.8,1.8,1.8,2.1
		c4.5,1.5,11.3,4.8,11.3,5.4c0,0.4-3-0.6-6.8-2.2c-3.7-1.6-8.3-2.9-10.3-2.9c-4.4-0.1-7-1.4-4.5-2.4c0.9-0.4,2.1-0.4,2.6-0.1
		c0.5,0.3,0.9,0.1,0.9-0.5s-0.9-1.5-2.1-2.1c-1.6-0.9-2.5-0.8-3.8,0.5c-2.3,2.1-3.1,2-3.1-0.5c0-3.1-2.7-3.5-4.9-0.8
		c-2.3,2.8-1.7,4.2,1.2,3.3c1.5-0.4,1.8-0.3,1.2,0.4c-0.5,0.6-2.1,1.2-3.5,1.5s-0.3,0.3,2.5,0.1c3.5-0.2,4.5-0.1,3.5,0.6
		c-0.8,0.5-4.3,1-7.6,1c-5.8,0-6.3,0.2-10,4c-2.1,2.2-4.7,4-5.7,4s-2.9,0.7-4.2,1.6c-1.3,0.9-4.2,2-6.5,2.5s-6.2,2.2-8.8,3.8
		s-6.3,3.2-8.3,3.5C678.125,644.3606,676.225,644.3606,674.625,643.5606z"/>
	<path id="path7393_1_" class="st0" d="M605.325,621.1606c-0.3-0.8-1-1.5-1.5-1.5s-2-1.3-3.3-2.8c-1.9-2.3-3.2-2.9-6.9-2.9
		c-3.1,0-5.2-0.7-6.8-2.2c-1.3-1.2-2.4-1.7-2.6-1.1c-0.6,1.7-3,1.2-5.1-1.1c-1.5-1.6-2.7-2-5-1.5c-1.7,0.3-3.2,0.2-3.5-0.2
		c-0.7-1.1-4.6-2.1-4.6-1.1c0,0.4,1,1.2,2.3,1.8c2.2,1.1,2.2,1.1,0.1,1.2c-1.2,0-2.7-0.6-3.4-1.5s-3.6-2.7-6.4-4.1
		c-2.8-1.4-5.9-3.3-6.9-4.1c-1.4-1.2-2-1.3-2.6-0.4c-0.8,1.2-4.1,0.6-4.1-0.7c0-0.4-1.5-0.7-3.4-0.8c-1.9-0.1-6.9-1.7-11.1-3.7
		c-4.2-2-8.1-3.6-8.6-3.6s-0.9-0.7-0.9-1.5s-2-2.6-4.5-4.1s-4.5-3.2-4.5-3.9c0-1.6-4.2-4.4-7.8-5.1c-1.7-0.4-4-2.3-6.1-5.1
		c-3.4-4.5-9.2-7.9-11.8-6.9c-1,0.4-1.4-0.4-1.4-2.9c0-2.8,0.6-3.7,2.8-4.9c4.7-2.4,5.6-4.1,4.2-7.6c-1.1-2.6-1-3.3,0.5-5
		c2.3-2.5,6.9-2.5,9.5,0c1.7,1.7,2.8,1.9,6.3,1.3c7.7-1.3,16.9001-0.5,27.9001,2.2c2.1,0.5,2.8,0.3,3.3-1.5c0.4-1.2,0.5-3.3,0.4-4.8
		c-0.3-2.9,0.7-5.2,2.2-5.2c1.2,0,4,6.6,4,9.6c0,1.7,0.7,2.5,2.7,3c2.2,0.5,3.1,0.1,5.3-2.5c2.2-2.6,3.3-3.2,6.7-3.1
		c3.6,0,4.3-0.4,5.3-2.8c1-2.4,1.6-2.8,4.3-2.4c3.4,0.5,6.3,2.9,7.3,6c0.8,2.6,4.2,3.7,6.1,2.1c0.8-0.7,1.5-0.8,1.5-0.3
		c0,1.2,9.7,11.3,10.9,11.3c0.5,0,1.6,0.8,2.3,1.8c1.6,2.2,5.2,4.3,7.3,4.3c0.9,0,2.7,1.2,4.1,2.6c2.4,2.4,2.5,3,2,10.3
		c-0.4,5.8-0.2,8.1,0.9,9.6c0.8,1.1,1.5,2.8,1.5,3.8s0.4,1.8,0.8,1.8s2.4,1.5,4.4,3.3c2.8,2.5,3.7,4.3,4.2,7.9
		c0.6,4.5,0.4,4.8-3.3,8.2c-2.1,1.9-4.8,4-6,4.6c-1.1,0.6-2.1,1.7-2.1,2.4s-1.4,2.3-3,3.5
		C606.325,622.4606,605.825,622.5606,605.325,621.1606z"/>
	<path id="path7389_1_" class="st0" d="M851.625,578.9606c-0.4-0.4-0.7-1.4-0.7-2.3c0-1-1.6-2.2-4.3-3.2c-3.4-1.3-4.2-2-4-3.8
		c0.3-2.7-1.4-6-3-6.1c-0.7,0-2.8-1.4-4.7-3c-3.7-3.2-7.4-3.7-10.4-1.5c-1,0.8-2.5,1.1-3.3,0.8c-1.5-0.6-4.4,2.2-8.7,8.7
		c-3.3,4.9-6.1,8-7.3,8c-0.6,0-1.6-0.7-2.3-1.5c-0.7-0.8-2.3-1.5-3.6-1.5c-3,0-3.4-0.8-4.1-7.2c-0.7-6.3-3.7-9.8-8.3-9.8
		c-2.4,0-3.4,0.7-4.6,3.1c-0.9,1.8-1.4,4.3-1.1,5.9c0.4,2-0.1,3.3-1.8,4.9c-1.3,1.2-2.7,3.6-3,5.4l-0.7,3.2l-1-2.5
		c-2.1-5.2-3.7-7.5-5.8-8.6c-3.7-1.9-8.8-8.3-9.3-11.6c-0.3-1.8-0.8-4.2-1.2-5.3c-0.5-1.6,0-2.5,2.1-3.9c1.9-1.2,2.9-1.4,3.2-0.7
		c0.5,1.6,1.6,1.4,4.2-0.8c1.3-1.1,3.1-2,4.1-2s2.1-0.5,2.5001-1.1c0.7-1.1-1.1-0.9-6.2,0.7c-1.7,0.5-1.7,0.5,0.1-0.6
		c2.1-1.3,14.4999-3.9,18.6-3.9c1.8,0,2.1,0.3,1.1,0.9c-1.1,0.7-1.1,0.9,0,1.3c0.7,0.2,1.9-0.1,2.7-0.9s3-1.8,5-2.3
		c2-0.6,5.1-2.3,6.7-3.8c2.8-2.6,6.9-5.3,7.9-5.3c0.2,0,0.6,1.5,0.8,3.3c0.3,3,0.6,3.3,4.3,3.6c4.9,0.4,6.5,2.3,6.5,7.6
		c0,5.1,0.5,5.8,5.7,8.4c2.3,1.2,4.5,2.6,4.8,3.1c0.8,1.2,7.5,1.3,9.3,0.1c0.7-0.5,1.2-1.9,1-3.2c-0.3-1.9,0.2-2.4,2.3-2.7
		c1.5-0.2,4.5,0.6,6.7,1.8c2.2,1.2,5.6,2.1,7.5,2.1c2.1,0,3.7,0.6,4,1.5c0.3,0.8,0.9,6.9,1.3,13.5l0.7,12h-6.5
		C855.225,579.6606,851.925,579.3606,851.625,578.9606z"/>
	<path id="path7387_1_" class="st0" d="M474.925,564.1606c-1.9-0.7-4.8-1.4-6.4-1.4c-1.6,0-5-1.4-7.5-3c-2.5-1.6-7.1-3.4-10.1-4
		c-5.6-1.2-14-5.4-14-7.1c0-0.5-1.3-2.4-2.8-4.2c-4.2-4.9-4.5-6.6-1.8-9.8c1.3-1.6,2.6-3.4,2.8-4c0.2-0.6,1.8-1.1,3.6-1.2
		c1.8-0.1,3.5-0.5,3.8-1s2-0.6,3.8-0.3c2.9,0.5,4,0,8.9-4c3.1-2.5,6.6-4.6,7.7-4.6c3,0,8.1-5.9,7.7-9c-0.2-2-0.8-2.5-3-2.3
		s-2.8-0.2-2.8-2.1c0-1.2-0.5-2.7-1-3.3c-0.7-0.7-0.7-1.9,0-3.8c0.6-1.5,1-3.1,1-3.5c0-1-6.7-3.9-10.8-4.7c-3.6-0.7-3.8-1.1-1.7-4
		c1.1-1.5,2.9-2.2,7.1-2.7c3.6-0.4,7-1.5,9.4-3.1c2.8-1.9,5.8-2.7,11.5-3.2l7.7-0.7l2.9,3.1c3.4,3.7,4.8,3.9,8,1.1
		c4.2-3.6,9-1.6,9,3.9c0,3.7,3.7,5.9,7.1,4.1c3.9-2.1,9.2-2,11,0.2c1.2,1.5,3,2,7.8,2.2c5.2,0.2,6.8-0.1,9.4-2.1
		c3.4-2.5,7.7-3,9.6-1.1c1.4,1.4,1.6,7.8,0.2,7.8c-0.5,0-1,0.9-1,1.9s-0.4,2.1-0.9,2.3c-0.5,0.2-1.3,4.9-1.9,10.6
		c-1.1,11.4-5.3,23.2-8.4,23.2c-2.1,0-2.9,2.1-2.9,7.7c0,3.9-0.2,4.4-1.8,3.8c-4-1.7-12.4-2.8-22.7-2.9c-7.8-0.1-11-0.5-11.3-1.3
		c-0.7-2.1-8.7-1.6-10.7,0.7c-1.6,1.8-1.7,3.2-0.4,8c0.2,0.8-1.2,2.5-3.4,3.9c-3.4,2.2-3.8,2.9-3.8,6.8c0,4.1-0.2,4.3-2.8,4.3
		C479.625,565.5605,476.825,564.8606,474.925,564.1606z"/>
	<path id="path7379_1_" class="st0" d="M586.925,545.6606c-2.3-3.2-5-4-5-1.5c0,0.9-0.6,1.2-1.5,0.9c-0.8-0.3-1.5-1.2-1.5-2
		s-0.9-2.2-2-3.1c-1.1-0.9-2-2-2-2.4c0-0.4,1.8-2.8,4-5.3s4-5.3,4-6.2c0-1.2,0.8-1.4,3.8-0.9c8.7,1.5,9.3,1.7,9.3,3.7
		c0,1.5,0.7,1.9,3.5,1.9c3.3,0,3.4,0.1,2.3,2c-1,1.6-1,2.4,0,4c0.7,1.2,0.8,2,0.2,2s-1,1.6-1,3.5c0,3.3-0.1,3.4-2.1,2.3
		c-1.7-1-2.2-1-2.6,0c-0.4,1.1-5.3,4.2-6.7,4.2C589.325,548.6606,588.125,547.3606,586.925,545.6606z"/>
	<path id="path7377_1_" class="st0" d="M547.625,546.9606c-0.4-0.4-0.7-1.6-0.7-2.7c0-1.1-0.7-3.9-1.6-6.2c-1.5-4-1.5-4.3,1.1-9.4
		c2-3.9,2.9-7.8,3.6-14.9c1-9.7,2.4-15.1,4-15.1c0.5,0,0.9-2,0.9-4.4c0-2.5,0.6-5,1.5-5.9c0.8-0.8,1.2-1.7,0.8-2.1s0.4-0.9,1.6-1.3
		c1.4-0.4,2.1-1.1,1.7-2c-0.7-1.9,0.4-1.7,3.9,0.6c1.7,1.1,4.4,2,6.2,2c3.6,0,4.7,1.4,5.8,7.3c0.6,3.4,1,3.7,4,3.7
		c2.4,0,3.4-0.5,3.8-2c0.6-2.1,5.2-4.4,6.9-3.4c0.6,0.3,0.8,1.8,0.5,3.3c-0.5,2.7-0.5,2.7,5.1,2.6c5.3-0.1,5.7,0.1,6.6,2.7
		c0.8,2.4,0.7,3-1.3,4.4c-1.8,1.3-2,1.8-0.9,2.4c2,1.2,2.6,20.8,0.7,22c-2.4,1.5-4.8,1-4.8-1.1c0-1.1-0.7-2-1.5-2
		c-1.1,0-1.5-1.1-1.5-3.8c0-2.1-0.7-4.9-1.4-6.3c-0.7-1.4-2.2-4-3.1-5.7c-1.7-3.4-3.5-4.3-3.5-1.9c0,0.8-1.4,2.9-3.1,4.7
		c-3.1,3.3-3.1,3.4-1.9,8.1c1.4,5.3,1,6.2-4.9,12.6c-2.7,2.9-3.6,3.3-6.5,2.7c-3-0.6-3.5-0.3-4.6,2.4s-1.7,3-5.6,3
		c-3.6,0-4.6,0.5-6.4,3C550.825,547.5605,549.025,548.3606,547.625,546.9606z"/>
	<g id="g7472_1_">
		<path id="path7383_1_" class="st0" d="M864.725,555.5605c-0.3-3.2-0.6-3.4-4.8-3.9c-2.5-0.3-6.6-1.6-9.2-2.9c-4-2-5.1-2.2-7.4-1.2
			c-2.1,1-2.5,1.7-2,3.7c0.6,2.3,0.4,2.5-3.1,2.5c-4.7,0-14-4.7-14.7-7.5c-0.3-1.1-0.5-3.6-0.6-5.6c0-4.5-1.5-6-6.2-6
			c-3.2,0-3.9-0.4-4.4-2.5c-1.2-5-0.2-5.6,9.1-5.4c5.5,0.1,8.9,0.7,9.6,1.5c2.1,2.5-0.1,3.5-6.2,2.8c-4.3-0.5-5.9-0.3-5.9,0.5
			c0,0.7,0.8,1,2,0.5c1.1-0.4,4.4,0.1,7.3,1c4.9,1.5,5.3,1.9,4.8,4.3l-0.5,2.7l2-2c1.1-1.1,1.8-2.3,1.6-2.8
			c-0.6-1.1,3.1-0.9,6.2,0.3c2.4,0.9,2.6,0.8,2.2-1c-0.4-1.6,0.2-2.2,2.8-3.1c4.9-1.6,6.8-6.9,3.4-9.4c-1.2-0.8-1.8-1.9-1.4-2.5
			c0.4-0.7,0.1-0.8-0.9-0.5c-0.9,0.3-1.6,1-1.6,1.5s-0.4,0.9-1,0.9c-2.3,0-0.6-2,5-5.9c3.3-2.3,6.4-4.1,7-4.1c0.5,0,3.1-2.2,5.8-4.9
			c4.7-4.7,4.9-5.1,5.9-13.2c0.9-6.7,1.5-8.6,3.4-10c2.1-1.6,2.3-2.4,2.1-12.6c-0.1-6,0.3-11.5,0.8-12.4c0.7-1.1,0.9-0.7,1,1.8
			c0,3.2,0.1,3.3,4.8,3.3c2.6,0,5.2-0.4,5.8-0.9c0.6-0.6,5.3,4.1,12.6,12.3l11.6,13.3l1.6,11.4c1.8,12.7,5.2,54.7,4.6,55.3
			c-0.2,0.2-9.9,0.9-21.4,1.5c-11.6,0.6-23.3,1.4-26.2,1.7l-5.2,0.6L864.725,555.5605z"/>
		<path id="path7373_1_" class="st0" d="M836.425,527.1606c2.2-1.4,4.5-2.5,5.2-2.5c0.6,0,1.4-0.6,1.7-1.3c0.3-0.7,0.5-0.8,0.6-0.2
			c0.1,2-4.9,5.7-8.2,6.1l-3.3,0.3L836.425,527.1606z"/>
	</g>
	<path id="path7369_1_" class="st0" d="M586.025,523.6606c-2.8-0.4-3.6-1.1-4.2-3.7c-0.7-2.7-0.4-3.6,2.7-6.9
		c3.1-3.4,3.5-3.6,4.1-1.9c0.4,1.1,1.3,2.6,2,3.5c0.7,0.9,1.5,3.2,1.8,5.1C592.925,523.9606,591.825,524.5605,586.025,523.6606z"/>
	<path id="path7367_1_" class="st0" d="M616.925,519.1606c-1.4-0.7-4-3.4-5.8-5.9c-2.4-3.3-3.9-4.5-5.5-4.3s-2.3-0.4-2.5-2
		c-0.3-2.1,0.1-2.3,4.6-2.3c2.7,0,5.7-0.6,6.8-1.4c1.2-0.8,2.5-1.1,3.4-0.6s2.8,1.1,4.4,1.4c1.7,0.4,3.5,1.8,4.5,3.6
		c0.9,1.6,2.3,2.8,3,2.5c1.1-0.4,5.2,2.7,5.2,4c0,0.3-1.1,0.5-2.5,0.5s-3,0.9-3.7,1.9c-0.9,1.5-1.6,1.7-3.1,0.9
		c-1.5-0.8-2.4-0.6-4.1,1C619.725,520.2606,619.125,520.3606,616.925,519.1606z"/>
	<path id="path7365_1_" class="st0" d="M605.325,501.9605c-1.9-6-2.1-6.3-7.4-6.3c-4.7,0-5-0.2-5-2.5c0-1.4-0.7-2.8-1.5-3.1
		c-2.4-0.9-7,1.1-8,3.5c-1.6,3.6-4.8,2.4-6-2.4c-1.4-5.6-2.2-6.5-5.8-6.5s-11.5-4.4-9.8-5.4c0.6-0.4,1.1-2.3,1.1-4.4
		c0-3.5,0.4-3.9,5.3-6.3c3.6-1.8,5.1-3.1,4.9-4.3c-0.2-0.9,1.1-4.1,2.8-7.2s3-6.2,3-7c0-1.2,0.4-1.2,1.9-0.3
		c1.5,0.9,2.4,0.8,4.4-0.7c1.4-1,3-2.9,3.6-4.2c1-2.1,1.3-2.2,3.3-0.9c1.2,0.8,4.7,1.7,7.6,2l5.4,0.6l-0.4-3.4
		c-0.3-2.2,0.1-3.6,0.9-3.9c1.6-0.6,2.5,0.8,1.7,2.9c-0.9,2.3,3.4,6.7,5.8,6c1-0.3,1.8-0.1,1.8,0.4s0.9,1.2,2.1,1.5
		c2,0.5,2,0.7,0.5,3.6c-0.9,1.7-1.3,3.7-1,4.6c0.7,1.8,0,2-2.6,0.5c-1.5-0.8-2.2-0.5-3.5,1.5c-0.9,1.4-2.3,2.5-3,2.5
		s-1.4,0.7-1.4,1.5s0.6,1.5,1.4,1.5c1.2,0,1.2,0.4-0.1,3c-1.7,3.4-1,8.8,1.2,9.6c2,0.8,5.3-1.3,9.9-6.3c4.6-4.8,6-5.3,7.5-2.5
		c0.8,1.5,0.3,2.6-2.7,5.7c-2,2.1-4.4,3.9-5.1,3.9c-2.5,0-2.3,2.3,0.3,4.1c2.1,1.4,2.4,2.2,1.9,4.8c-0.3,1.7-1.2,3.9-2,4.7
		s-1.4,2.9-1.4,4.5c0,2.2-0.7,3.4-2.9,4.7C610.225,504.1606,606.025,504.1606,605.325,501.9605z"/>
	<g id="path7349_1_">
		<path class="st1" d="M432.625,446.9605c-0.3,0-0.6,0-0.8-0.1c-0.5-0.1-0.9-0.3-1-0.4c-0.1-1.1-1.6-1.9-2.8-2.3
			c-0.1,0-0.2-0.1-0.3-0.1c1-1.4,2-4.1,2-4.3c0.6-1.9,1.9-4.5,2.9-5.7c1.7-2.1,4.4-7.4,4.5-10.2c0.2,0,0.4,0.1,0.6,0.1
			c0.4,0.1,0.8,0.1,1.2,0.1c6.1,0,13-9.9,13.3-18.9c0.1-4.1-0.4-4.9-4.1-5.8c-1.1-0.3-2.1-0.4-3.1-0.4c-3.9,0-6.3,2.4-6.3,6.2
			c0,1.8-0.4,4-2.5,4c-0.3,0-0.7-0.1-1.1-0.2c-0.4-0.1-1.1-0.3-1.2-0.5c-0.4-0.6,0.5-3.6,1.4-6.8c1.5-5.5,1.8-6.5-0.6-8.4
			c-1.1-0.9-2-1.5-2.9-1.5c0,0,0,0-0.1,0c1.1-1.1,2.2-2.4,1.7-3.8c-0.5-1.5-2.5-2.2-7.6-2.7c-0.3,0-0.6-0.1-0.9-0.1
			c-2.6,0-2.8,2.1-3,4c-0.1,1.3-0.1,3,0.7,3.8c0.2,0.3,0.6,0.4,0.9,0.5c0.1,0.2,0.1,0.6,0.1,1.1c-0.2,1.1-0.3,1.1-0.9,1.1
			c-0.2,0-0.5,0-0.8-0.1c-1.3-0.2-2.4-0.8-2.6-1.1c-0.8-1.6-0.1-18.2,1.6-25.2c0.8-3.4,2.2-6.1,2.7-6.5c1-0.7,2-2,2.1-3
			c0.2-0.1,0.7-0.3,1.5-0.3c1,0,2,0,2.6-0.7c0.8-0.8,0.7-2.2,0.4-5.1c-0.6-7.3,0.5-9.3,2.7-10.4c1.6-0.8,3.7-2.6,4.9-4
			c1-1.3,2.6-3,3.5-3.9c1-1,2.2-2.7,2.6-3.9c0.2-0.6,0.3-0.9,1.7-0.9c0.7,0,1.6,0.1,3.2,0.2c2.9,0.3,7.2,1,9.7,1.4
			c1.6,0.3,4.1,0.5,6.7,0.5c1.5,0,2.9-0.1,4.1-0.2l6.9-0.6l0.3-7.5c0.2-5.4-0.2-8.2-2.2-13.1c-1.1-2.8-1.7-4.7-1.8-5.6
			c0.4-0.1,1.1-0.2,2.7-0.2c3.2,0,8.2,0.6,10.7,1.5c5.2,1.9,5.4,2,9.4,2.9c1.6,0.4,2.4,1.1,2.5,1.3c0,1.2,1.1,2.5,2.5,2.9
			c0.6,0.2,1.6,1.1,2.1,2.1c0.8,1.9,1.9,2.6,4.4,2.6c0.6,0,1.3,0,2.3-0.1c0.6,0,1.2-0.1,1.7-0.1c1.3,0,1.9001,0.1,2.1,0.2
			c0.5,1.6,3.3,4.8,3.9,5.4c2.4,2.6,3.9,3.9,5.8,3.9c0.4,0,0.8-0.1,1.2-0.2c0.3-0.1,0.5-0.1,0.8-0.1s0.4,0.1,0.4,0.1
			c0,0.1-0.4,1.1-2,1.8c-1.8,0.8-3.3,2.8-3.9,4.9c-0.6,2.1-0.9,2.1-1.6,2.1c-0.2,0-0.5,0-0.7,0s-0.4,0-0.6,0c-1.3,0-2.4,0.5-3.1,1.4
			c-1,1.3-1.2,3.4-0.5,6.1c0.4,1.6-0.4,3-7,10.3c-7.6,8.4-11.5,11-16.1,11c-3.5,0-11.8,3.6-12.7,6c-0.5,1.3,0.5,3.1,1.6,4.1
			c1,0.8,1.4,1.6,1,3.6c-1,5,2,10.2,8.2,13.7c3.2,1.9,4.9,3.8,5.1,4.5c0.7,2.6,2.3,4.6,3.9,4.6c0.9,0,1.5-0.5,1.9-1.5
			c0.1-0.3,0.4-0.5,0.8-0.5c0.1,0,0.2,0,0.3,0c0.2,0.1,0.4,0.1,0.7,0.1c2.6,0,7.2-3.8,7.6-6.8c0.1,0.1,0.3,0.2,0.4,0.3
			c1.1,1,1.8,2.9,1.6,4.6c-0.1,1-0.5,1.8-1.2,2.2c-2.6,1.5-1.9,2.7-0.4,5.6c2.1,3.9,1.3,10.4-1.7,14.2l-1.6,2.1l-2.5-2.5
			c-1.7-1.6-4.1-3.3-5.8-3.3c-0.1,0-0.2,0-0.3,0c-0.2,0-0.3,0-0.5,0c-2.4,0-4.9-2.1-4.9-4.2c0-2.6-3.3-6.4-4.6-7.9
			c-2.9-3.1-4.1-4.2-5.3-4.2c-0.9,0-1.4,0.6-1.8,1c-1.4,1.7-6.3,4.2-8.4,4.2c-1.4,0-3,1.1-3.8,2.5c-0.4,0.8-2,2.3-3.5,3.1
			c-5.4,2.8-6.6,4.8-6.6,10.7c0,5.6,1.9,9.6,4.5,9.7c0.3,0.1,1.5,1,2.7,2.9s1.5,3.2,1.4,3.5c-0.2,0.6-2,2.7-4.4,4.5
			c-3.3,2.5-6.7,3.4-13.1,3.4c-1.7,0-3.7-0.1-6.1-0.2c-0.3,0-0.6,0-1,0c-1.9,0-4.1,0.3-5.4,0.7
			C434.725,446.7606,433.625,446.9605,432.625,446.9605z"/>
		<path class="st2" d="M475.325,306.6606c3.6,0,8.2,0.7,10.4,1.5c5.2,1.9,5.5,2.1,9.5,3c0.9,0.2,1.5,0.5,1.7,0.7
			c0.2,1.5,1.5,3,3.2,3.4c0.3,0.1,1.1,0.8,1.4,1.5c1,2.3,2.4,3.2,5.3,3.2c0.6,0,1.3,0,2.4-0.1c0.6,0,1.1-0.1,1.6-0.1
			c0.6,0,1.1,0,1.4001,0.1c0.6,1.3,1.9,3,3.9,5.2c2.3,2.6,4,4,5.9,4.2c-1.8,1-3.3,3-3.9,5.3c-0.2,0.9-0.4,1.2-0.5,1.4
			c0,0-0.1,0-0.2,0c-0.2,0-0.4,0-0.6,0c-0.2,0-0.5,0-0.7,0c-1.6,0-3,0.6-3.9,1.8c-0.9001,1.1-1.7,3.2-0.7,6.9
			c0.3,1.2-0.6,2.6-6.8,9.4c-7.3,8.1-11.1,10.7-15.4,10.7c-3.3,0-12.4,3.5-13.6,6.6c-0.7,1.9,0.5,4,1.9,5.2c0.7,0.6,1,1,0.6,2.6
			c-1.1,5.5,2.1,11,8.6,14.8c2.9,1.7,4.5,3.4,4.6,3.9c0.8,3.2,2.8,5.4,4.9,5.4c1.2,0,2.2-0.7,2.8-1.9c0,0,0,0,0.1,0
			c0.3,0.1,0.6,0.1,0.9,0.1c2.6,0,6.5-2.9,8-5.9c0.5,0.8,0.7,1.9,0.6,2.8c-0.1,0.7-0.3,1.2-0.7,1.4c-3.5,1.9-2.3,4.1-0.8,7
			c1.9,3.5,1.1,9.6-1.6,13.1l-1,1.2l-1.7-1.7c-1.8-1.7-4.4-3.6-6.5-3.6c-0.1,0-0.3,0-0.4,0c-0.1,0-0.2,0-0.4,0
			c-1.9,0-3.9-1.7-3.9-3.2c0-2.9-3.1-6.6-4.9-8.6c-2.9-3.1-4.3-4.5-6.1-4.5c-1,0-1.8,0.4-2.5,1.3c-1.3,1.6-6,3.8-7.6,3.8
			c-1.7,0-3.7,1.3-4.6,3c-0.3,0.6-1.7,1.9-3.1,2.6c-5.7,2.9-7.2,5.3-7.1,11.6c0,6.1,2.1,10.3,5.3,10.7c1.1,0.6,3.2,4,3.3,5.2
			c-0.4,0.6-1.9,2.3-4,4c-3.1,2.4-6.3,3.2-12.5,3.2c-1.7,0-3.7-0.1-6-0.2c-0.3,0-0.7,0-1,0c-1.7,0-4.1,0.2-5.7,0.7
			c-0.8,0.3-1.8,0.4-2.7,0.4c-0.4,0-0.5,0-0.5,0c-0.1,0-0.2-0.1-0.3-0.1c-0.4-1.1-1.6-1.9-2.5-2.3c0.7-1.3,1.2-2.8,1.5-3.5
			c0.6-1.8,1.8-4.3,2.7-5.4c0.9-1.2,3.9-6.1,4.6-9.6c0.3,0,0.6,0.1,1,0.1c6.5,0,14-10.4,14.3-19.8c0.1-4.3-0.5-5.7-4.8-6.8
			c-1.2-0.3-2.3-0.5-3.3-0.5c-2.1,0-4,0.7-5.2,1.9c-1.3,1.3-2,3.1-2,5.3c0,2-0.5,3-1.5,3c-0.2,0-0.5,0-0.8-0.1
			c-0.2-0.1-0.4-0.1-0.6-0.2c0.1-1,0.8-3.7,1.4-5.9c1.5-5.5,2-7.2-1-9.4c-0.6-0.5-1.2-0.9-1.8-1.2c0.7-1,1.3-2.2,0.8-3.6
			c-0.8-2.2-3.6-2.9-8.5-3.3c-0.4,0-0.7-0.1-1-0.1c-3.5,0-3.8,3-4,4.9c-0.2,2.1,0.1,3.7,0.9,4.6c0.2,0.2,0.5,0.4,0.7,0.6
			c0,0.1,0,0.2,0,0.2c0,0.1,0,0.2,0,0.3c-0.1,0-0.3,0-0.5-0.1c-0.8-0.1-1.5-0.4-1.8-0.6c-0.6-2.7,0.1-17.9,1.7-24.4
			c0.8-3.1,1.9-5.5,2.4-6c1-0.7,2-1.9,2.3-3c0.2,0,0.4-0.1,0.7-0.1c1.1,0,2.4,0,3.4-1.1c1.1-1.2,1-2.9,0.7-5.9
			c-0.6-7.4,0.6-8.6,2.2-9.4c1.7-0.9,4-2.7,5.2-4.2c1-1.2,2.6-3,3.4-3.8c1.1-1.1,2.4-3,2.8-4.3c0-0.1,0-0.1,0.1-0.2
			c0.1,0,0.3,0,0.7,0c0.6,0,1.6,0.1,3.1,0.2c2.8,0.3,7.2,0.9,9.6,1.4c1.6,0.3,4.2,0.5,6.9,0.5c1.5,0,3-0.1,4.2-0.2l6-0.5l1.7-0.2
			l0.1-1.7l0.3-6.7c0.2-5.5-0.3-8.5-2.3-13.5c-0.8-1.9-1.3-3.4-1.5-4.3C474.225,306.6606,474.725,306.6606,475.325,306.6606
			 M475.325,304.6606c-1.8,0-3.3,0.2-3.6,0.6c-0.3,0.3,0.5,3.3,1.9,6.6c1.9,4.7,2.4,7.4,2.2,12.7l-0.3,6.7l-6,0.5
			c-1.2,0.1-2.6,0.2-4,0.2c-2.4,0-4.9-0.2-6.5-0.4c-2.5-0.5-6.9-1.1-9.7-1.4c-1.4-0.2-2.5-0.3-3.3-0.3c-1.7,0-2.2,0.4-2.6,1.5
			c-0.4,1-1.4,2.6-2.4,3.5c-0.9,0.9-2.5,2.7-3.6,4c-1,1.3-3.1,3-4.6,3.7c-3,1.6-3.9,4.5-3.2,11.4c0.4,4.5,0.3,4.8-2.1,4.8
			c-1.4,0-2.5,0.5-2.5,1.1s-0.8,1.7-1.7,2.4s-2.3,3.9-3.1,7.1c-1.6,6.7-2.6,24.3-1.5,26c0.4,0.6,1.9,1.3,3.3,1.5
			c0.4,0.1,0.7,0.1,1,0.1c1.2,0,1.7-0.5,1.9-2c0.2-1.2-0.2-2.3-0.8-2.3c-0.7,0-1-1.3-0.8-3.3c0.2-2.4,0.6-3.1,2-3.1
			c0.2,0,0.5,0,0.8,0c7.1,0.7,8.3,1.8,5.3,4.8c-0.9,0.9-2.5,4-3.5,6.8c-1.5,4.4-1.9,5.5-1.6,5.5c0.1,0,0.4-0.2,0.7-0.4
			c0.5-0.3,1.7-2.8,2.6-5.6c1.1-3.4,1.7-4.8,2.6-4.8c0.6,0,1.2,0.5,2.3,1.3c1.8,1.4,1.8,1.7,0.3,7.3c-2.1,7.5-2.1,7.9,0.6,8.6
			c0.5,0.1,0.9,0.2,1.3,0.2c2.2,0,3.5-1.8,3.5-5c0-3.3,2-5.2,5.2-5.2c0.9,0,1.8,0.1,2.8,0.4c3.2,0.8,3.4,1.2,3.3,4.8
			c-0.2,8.5-6.9,17.9-12.3,17.9c-0.3,0-0.7,0-1-0.1c-0.6-0.2-1.2-0.2-1.5-0.2c-0.4,0-0.6,0.1-0.4,0.3c0.8,0.9-1.8,7.2-4.2,10.4
			c-1,1.3-2.4,4-3,6s-1.6,4-2.2,4.3c-0.5,0.4,0,0.9,1.1,1.3c1.2,0.4,2.1,1.1,2.1,1.5c0,0.5,0.8,1,1.8,1.2c0.3,0.1,0.6,0.1,1,0.1
			c1,0,2.3-0.2,3.3-0.5c1.2-0.4,3.3-0.6,5.1-0.6c0.3,0,0.6,0,0.9,0c2.3,0.1,4.3,0.2,6.1,0.2c6.8,0,10.3-1,13.7-3.6
			c2.3-1.8,4.4-4,4.8-5c0.6-1.8-3.2-7.6-5-7.7c-2-0.1-3.5-3.9-3.6-8.7c0-5.6,1-7.3,6-9.9c1.6-0.8,3.4-2.4,3.9-3.5
			c0.6-1.1,1.9-2,2.9-2c2.3,0,7.5-2.6,9.1-4.5c0.3-0.4,0.6-0.6,1-0.6c0.8,0,2,1.1,4.6,3.9c2.7,3,4.4,5.7,4.4,7.3
			c0,2.7,3,5.2,5.9,5.2c0.2,0,0.4,0,0.6,0c0.1,0,0.1,0,0.2,0c1.2,0,3.3,1.2,5.1,3l3.3,3.2l2.3-2.9c3.3-4.1,4.1-11,1.8-15.3
			c-1.7-3.2-1.7-3.4,0-4.3c2.4-1.3,2.2-6.1-0.3-8.4c-1-0.9-1.5-1.3-1.7-1.3c-0.3,0-0.3,0.4-0.3,1.3c0,2.3-4.3,6.3-6.6,6.3
			c-0.2,0-0.3,0-0.4-0.1c-0.2-0.1-0.4-0.1-0.6-0.1c-0.8,0-1.5,0.4-1.8,1.1c-0.2,0.6-0.6,0.8-1,0.8c-1,0-2.4-1.6-3-3.8
			c-0.3-1.3-2.7-3.4-5.6-5.2c-5.7-3.3-8.6-8.1-7.7-12.7c0.4-2.1,0.1-3.3-1.3-4.5c-1-0.9-1.7-2.2-1.4-3c0.7-1.8,8.5-5.3,11.8-5.3
			c5,0,9.1-2.8,16.9-11.4c6.7-7.4,7.8-9,7.2-11.2c-1-3.9,0.1-6.2,2.7-6.2c0.2,0,0.3,0,0.5,0c0.3,0,0.6,0.1,0.8,0.1
			c1.5,0,2-0.7,2.6-2.9c0.5-1.8,1.8-3.5,3.3-4.2c2.9-1.3,3.4-3.8,1.2-3.8c-0.3,0-0.6,0-1,0.1c-0.3,0.1-0.6,0.1-0.9,0.1
			c-1.4,0-2.7-1-5.1-3.6c-2-2.2-3.7-4.6-3.7-5.1s-1.1-0.8-3-0.8c-0.5,0-1.1,0-1.7,0.1c-0.9,0.1-1.6,0.1-2.2,0.1
			c-2.2,0-2.8-0.5-3.5-2c-0.5-1.2-1.8-2.4-2.8-2.7c-1-0.3-1.8-1.1-1.8-1.9s-1.4-1.8-3.3-2.2c-3.9-0.9-4.1-1-9.3-2.9
			C483.825,305.2606,478.825,304.6606,475.325,304.6606L475.325,304.6606z"/>
	</g>
	<g id="g7483_1_">
		<path id="path7391_1_" class="st0" d="M733.925,584.5605c0-1.3-1.1-2.5-3.3-3.4c-1.8-0.8-4.8-3-6.7-5c-2.7-2.8-3.2-3.8-2.1-4.5
			c1.7-1,0.7-4.1-1.3-4.1c-0.8,0-2,0.7-2.7,1.5s-2,1.5-2.8,1.5c-0.9,0-2.8,1.2-4.3,2.6c-6.5,6.2-15.5-2-10.3-9.4
			c1.4-2,1.4-2.9,0.4-6.7c-1.4-5-2.2-5.5-7.9-4.9c-2.3,0.2-4.1,0-4.1-0.6c0-0.5-0.9-1-2-1s-2-0.7-2-1.5s-0.9-2.4-2-3.5
			c-1.1-1.1-2-2.6-2-3.3c-0.1-2.2-2.4-4.5-6.4-6.1c-5.2-2.2-5.8-2-5.2,1.1c0.4,1.9-0.1,3.9-1.5,6.2l-2.1,3.4l-1.7-2.2
			c-1.6-2.1-1.8-2.2-5.4-0.7c-3.5,1.4-3.7,1.4-4.7-0.4c-0.6-1.1-1-2.6-1-3.4s-1.3-1.8-3.1-2.2c-4-0.9-4.6-2.7-2-6.4
			c1.2-1.6,2.1-4.3,2.1-5.9c0-2.7,0.5-3.2,4.3-4.3c5.7-1.8,5.9-4.9,0.4-6c-5.5-1.2-7.4-2.4-8-5.4c-0.7-3.5,3.7-15.3,7-18.9
			c2.1-2.2,2.3-2.9,1.2-3.6c-0.8-0.5-1.9-0.9-2.5-0.9s-2.3-0.9-3.7-2c-2.6-2-5.7-1.8-5.7,0.4c0,2.6-2.1,3.4-4,1.6
			c-1-1-2.2-1.9-2.8-2.1s-0.7-2.1-0.3-4.9c0.4-2.5,0.8-4.1,0.9-3.7s1.5-0.1,3.1-1.3c3.4-2.4,3.2-3.9-0.9-6.2c-2.1-1.2-3-2.5-3.2-5
			c-0.3-2.8-0.7-3.3-2.6-3c-2.8,0.4-6.2,3.6-6.2,5.8c0,1.3-0.3,1.4-1.5,0.4s-2.1-0.8-5,1.4c-1.9,1.5-4.2,3.7-5,5s-2.6,2.8-4,3.4
			c-2.3,1-2.6,0.9-3.5-1.5c-0.8-2.1-0.6-3.3,1-6l2-3.4l-2.2-0.9c-1.5-0.6-1.7-0.9-0.6-1c0.9,0,2.3-1,3.1-2.2c1.2-1.8,1.8-2,3.5-1
			c2.5,1.3,3.3,0.7,3.3-2.4c0-1.3,0.5-3.4,1.1-4.8c0.9-1.9,0.9-2.9-0.1-4c-0.7-0.8-1.7-1.3-2.1-1c-0.5,0.3-0.9-0.2-0.9-1.1
			c0-1.2-0.6-1.5-2.1-1c-2.7,0.9-5.9-2-5.2-4.6c0.3-1.1-0.4-3.7-1.6-5.9l-2.1-4l2-2.6c1.5-1.9,1.9-3.4,1.4-5.5
			c-0.4-2-0.1-3.7,0.9-5.2c0.9-1.2,1.6-3,1.6-3.9s0.7-1.9,1.5-2.2c2.4-0.9,1.8-2.4-2.2-5.1c-3.8-2.6-3.7-2.9,0.9-2.6
			c1.5,0.1,2.9-0.3,3.3-0.9c1.1-1.7,2-1.3,7.2,2.9c2.7,2.2,5.3,4,6,4c1.2,0,3,3.9,7.1,14.9c1.3,3.5,3.2,7.4,4.3,8.5s3.1,5,4.5,8.6
			c1.5,3.8,2.3,5,1.9,3c-0.4-1.9-0.7-5.5-0.6-8c0.1-3.9-0.4-5.1-3.9-9c-2.2-2.5-3.7-3.6-3.3-2.5s1,2.7,1.3,3.5
			c0.4,1.1,0.3,1.2-0.7,0.4c-0.7-0.6-1.3-2.6-1.5-4.5s-1.5-5.1-2.9-7.3c-1.5-2.1-2.7-4.4-2.7-5c0-1.4,0.9-0.3,5.5,6.7
			c2.1,3.2,5.3,6.7,7.1,7.8c3.7,2.2,4.8,5,3.3,8.5c-1.4,3,0.5,14.6,3.3,20.1c1.1,2.1,1.9,4.4,1.9,5.1s2.6,3.9,5.7,7
			c6.8,6.8,11.1,12.2,14.7,18.6c1.4,2.6,3.6,6,4.8,7.6c1.4,1.9,2.3,4.9,2.6,8.5c0.4,4.9,0.9,5.9,3.9,8.3c1.9,1.5,4.1,3.9,4.9,5.4
			s2.3,2.9,3.3,3.3c1,0.3,2.4,1.7,3,3.1c0.6,1.4,2.3,2.9,3.7,3.5c3,1.1,3.4,2.4,0.5,1.5c-1.1-0.4-2-0.2-2,0.4c0,0.6,0.5,1.1,1,1.1
			c0.6,0,0.9,0.6,0.8,1.2c-0.2,0.8,0.7,1.1,2.6,0.9c1.5-0.2,3.5,0.3,4.4,1c1.4,1.1,1.5,1.1,1.1-0.2c-0.3-0.8-1.5-1.6-2.7-1.8
			s-2.2-0.7-2.2-1.2s1.8-0.3,3.9,0.5c2.6,0.9,5.9,1.2,9.6,0.8c5.3-0.5,5.8-0.4,9,2.7c1.8,1.8,4.9,3.6,6.7,3.9c2,0.4,3.8,1.6,4.5,3
			c0.6,1.3,1.6,2.8,2.2,3.3c0.6,0.6,0.8,1.8,0.5,2.7c-0.3,0.9-0.2,1.3,0.2,0.9c0.4-0.4,1.5,0.2,2.3,1.4c1.3,1.9,2.1,2,8.7,1.4
			l7.2-0.7l1.2,3.9c0.6,2.2,1.2,4.8,1.2,5.8s2.1,3.7,4.6,5.9c7.3,6.3,8.5,7.8,9.9999,12c1.8,5.3,1.9,5-2.2,7.4
			c-3.3,1.9-5,2.1-20.5,2C734.625,586.5605,733.925,586.4606,733.925,584.5605z"/>
		<path id="path7345_1_" class="st0" d="M642.425,436.5605c-0.4-0.6-0.2-1.6,0.4-2.2c0.8-0.8,1.1-0.5,1.1,1.1
			C643.925,437.8606,643.425,438.2606,642.425,436.5605z"/>
	</g>
	<g id="g7476_1_">
		<path id="path7381_1_" class="st0" d="M919.525,551.4606c-0.3-2.3-1.3-13.3-2.1-24.3c-0.9-11-2.2-24.2-3-29.2
			c-0.8-5.1-1.4-9.5-1.4-9.7c0-0.3,3.3-2.9,7.4-5.8c10.1-7.2,43.6-32.4,46.2-34.8c3.4-3.1,6.5-15.4,5.6-22.2l-0.8-5.7l3.8-0.6
			c2.1-0.3,4-1.1,4.4-1.6c1.3-2-0.6-2.7-5.2-1.9c-3.3,0.6-6.3,0.4-9.8-0.5l-5-1.4l6.5,0.1c3.6,0.1,9-0.5,12.2-1.3
			c5.6-1.4,5.7-1.3,9.7,1.3c2.2,1.5,4.7,2.7,5.5,2.7c1,0,1.6,1.9,2.2,6.7c1.1,10.6-1.2,16.7-9.9,25.9c-2,2.1-3.9,5.3-4.3,7.1
			c-0.3,1.8-1,3.3-1.4,3.3c-1.7,0-3.1,7.1-2.6,13.2c0.3,3.5,0.3,5.5,0,4.6c-0.9-3-2.3-1.9-3.8,3c-0.8,2.6-1.5,4-1.5,3
			s-0.5-1.8-1.1-1.8c-1.5,0-1.2,2.6,0.4,3.9c1,0.9,1.7,0.8,2.7-0.4c0.7-0.9,1.9-1.3,2.6-1c0.8,0.3,1.3-0.2,1.3-1
			c0-0.9,0.6-1.4,1.3-1.1c2.9,1-1.4,11.1-4.5,10.5c-1.6-0.3-3.1,2.9-2.4,4.9c0.7,1.8,0.8,1.8,2,0.1c0.7-1,2.3-1.8,3.4-1.8
			c2.7,0,2.7,0.5,0.1,3c-1.3,1.3-2,3.4-2.1,6.3c0,2.3-0.5,6.5-1,9.2c-0.5,2.8-1.4,8.6-2,13c-1,7.2-2.9,12.6-2.9,8.2
			c0-0.9-0.5-1.7-1-1.7c-0.6,0-0.9-0.3-0.8-0.8c0.3-1.6-2.2-6.3-3.4-6.3c-3.3,0-3.7-1.4-2.2-6.4c1.7-5.6,1.9-9.6,0.5-9.6
			c-0.5,0-1.2,0.9-1.6,1.9c-0.3,1.1-1.5,2.2-2.6,2.6c-1.5,0.5-1.7,1-1,1.9c1.6,2-1.6,9.1-4.8,10.6c-1.5,0.7-3.3,1.5-4.1,1.9
			c-0.8,0.4-1.9,2-2.4,3.6c-0.5,1.6-1.8,4.2-2.9,5.8s-2.7,4.9-3.7,7.5c-1.8,5.1-4.1,6.3-7.1,3.7c-2.8-2.6-5.4-1.5-5.8,2.3
			c-0.3,3-0.6,3.2-3.7,3.2C920.225,555.6606,920.025,555.4606,919.525,551.4606z"/>
		<path id="path7363_1_" class="st0" d="M978.425,493.6606c-0.3-0.6-0.1-1,0.4-1c0.6,0,1.1,0.4,1.1,1c0,0.5-0.2,1-0.4,1
			C979.225,494.6606,978.725,494.2606,978.425,493.6606z"/>
		<path id="path7353_1_" class="st0" d="M991.3251,456.2606c-0.9-2.3,1.5-8.7,3.4-9.3c0.9-0.3,2.4-0.9,3.4-1.4
			c2.3-1.2,2.2-0.4-1.1,6C994.225,457.2606,992.3251,458.8606,991.3251,456.2606z"/>
		<path id="path7337_1_" class="st0" d="M996.925,427.2606c0-0.9,0.4-1.6,1-1.6c0.5,0,1,0.4,1,0.9s-0.5,1.2-1,1.6
			C997.425,428.4605,996.925,428.0605,996.925,427.2606z"/>
		<path id="path7333_1_" class="st0" d="M996.925,419.6606c0-0.6,0.2-1,0.4-1c0.2,0,0.7,0.4,1.1,1c0.3,0.5,0.1,1-0.4,1
			C997.425,420.6606,996.925,420.2606,996.925,419.6606z"/>
	</g>
	<g id="g7465_1_">
		<path id="path7355_1_" class="st0" d="M378.925,462.0605c0-0.6-1.6-1.4-3.5-1.8s-3.5-1-3.5-1.4s2.3-3,5-5.7
			c3.8-3.8,4.9-5.5,4.5-7.1c-0.3-1.2-0.1-4.3,0.4-6.9c0.7-4,0.6-5-0.9-6.5c-1-1-2.2-1.9-2.7-2.1s-1.9-2.1-3.2-4.1
			c-1.9-3.1-2-3.8-0.7-3.8c2,0,2.1-2.4,0.1-4c-1.3-1-1.5-0.9-1.6,1.1c-0.1,3.2-2.3-4.3-4.4-14.6c-0.9-4.4-1.9-9-2.2-10.3
			c-0.4-1.3-0.1-2.3,0.5-2.3s1.1,1.2,1.1,2.6c0,2.4,0.3,2.5,4.3,2.3c3.2-0.2,4.2-0.7,3.9-1.8c-0.2-0.8-0.9-3.1-1.4-5.1
			c-0.9-3.1-0.7-4,1.2-6.8c1.2-1.7,2-3.8,1.7-4.5c-1.3-3.4,3.6-4.5,10.4-2.4c3.3,1,3.9,1.6,4.4,4.8c0.3,2,0.7,4.4,0.9,5.3
			c0.2,1-0.7,2.6-2.2,3.7c-4.7,3.7-0.4,6.9,4.5,3.4c3.2-2.3,7.2-1.1,7.2,2.1c0,3.4,4.1,5.9,8.4,5.2l3.4-0.5l-1.4,5.2
			c-2,7.4-1.8,8.9,1.7,12.2c2.9,2.8,3,3.2,2.4,8.2c-0.6,4.8-0.4,5.5,1.8,7.2c4.3,3.4,0.7,8.6-4.2,6c-1.1-0.6-2.2-1.1-2.5-1.1
			c-1.2,0-0.5,5.9,0.9,7.4c1.9,1.9,1.9,3.1,0.1,4.6c-0.8,0.6-1.7,2.8-2.1,4.8l-0.7,3.6l-3.8-3.7c-4.9-4.7-9.8-5.7-13.7-2.7
			c-1.5,1.2-3.6,2.1-4.8,2.1c-1.3,0-3.6,1.7-5.8,4.3C380.625,461.2606,379.025,462.6606,378.925,462.0605z"/>
		<path id="path7343_1_" class="st0" d="M350.425,435.5605c-0.9-1.5,0.1-2.3,2.1-1.6c0.9,0.3,1.3,1.1,1,1.6
			C352.625,436.9605,351.225,436.9605,350.425,435.5605z"/>
		<path id="path7341_1_" class="st0" d="M342.925,431.9605c0-2.4,2.7-3.7,6.7-3.4c1,0.1,1,0.5,0,2.1
			C348.525,432.5605,342.925,433.5605,342.925,431.9605z"/>
		<path id="path7335_1_" class="st0" d="M336.125,423.3606c-1.5-4.3-1.5-4.2,0.7-4.4c2.2-0.2,3.5,1.1,5,5c1,2.6,0.9,2.7-1.7,2.7
			C337.825,426.6606,337.125,426.0605,336.125,423.3606z"/>
		<path id="path7331_1_" class="st0" d="M329.925,415.5605c0-1.1,0.4-1.8,1-1.4c0.5,0.3,1,1.3,1,2.1s-0.5,1.4-1,1.4
			S329.925,416.7606,329.925,415.5605z"/>
	</g>
	<g id="g7445_1_">
		<g id="g7414_1_">
			<path id="path7319_1_" class="st0" d="M225.925,372.1606c-1.5-1.6-2.6-4.3-3.1-7.8c-0.4-2.9-2-7.9-3.6-11.2
				c-2.3-4.8-3.8-6.4-7.8-8.6c-3.1-1.7-5.6-4-6.7-6.2c-2.6-5.1-16.3-18.6-19.6-19.3c-4.3-0.9-8.3-2.6-8.3-3.5c0-0.4,1.5-0.4,3.3,0.1
				l3.3,0.9l-2.8-2.4c-1.5-1.3-2.8-3.3-2.8-4.3c0-2-3.9-2.6-5.2-0.7c-0.4,0.5-0.8-0.1-0.8-1.5s-0.7-3.4-1.5-4.4s-1.5-2.9-1.6-4
				c-0.1-1.4-0.3-1.2-0.9,0.9c-0.7,2.8-0.8,2.9-1,0.5c-0.2-2.3-0.3-2.3-1-0.5c-0.7,1.7-0.9,1.6-1.5-1.3c-0.4-1.8-1.1-3-1.6-2.7
				c-0.5,0.3-0.9-0.1-0.9-1s0.5-1.4,1.1-1.3s1.4-0.4,1.6-1.1c0.3-0.9,0.1-1.1-0.6-0.7c-1.6,1-1.4-0.2,0.9-6.9c1.1-3.2,2-6.6,2-7.7
				c0-1,0.5-1.8,1.1-1.8c0.8,0,0.7-0.5-0.1-1.5c-0.9-1-0.9-1.5-0.1-1.5c0.7,0,1.1-1.8,1-4.8l-0.1-4.8l-0.7,4c-0.7,4-0.7,4-0.9-1.5
				c-0.2-6.8-2.3-14.8-3.6-14.3c-0.6,0.2-1.6-1.3-2.3-3.2c-1-2.8-1.7-3.4-3.2-3c-1.1,0.4-2.6-0.1-3.7-1.2c-1-1-3.1-2.5-4.6-3.3
				s-2.3-1.6-1.7-1.8c1.6-0.5,1.3-2.2-0.4-2.2c-2.5,0-6.4-3-5.8-4.5c0.3-0.7-0.2-2.8-1.1-4.5c-1.4-2.6-1.4-3.4-0.3-4.7
				c1.1-1.4,1-1.5-1.2-0.8c-2.4,0.8-2.4,0.7-0.7-1.2c1.8-2,2.4-6.3,0.9-6.3c-0.4,0-1.6,1.8-2.5,3.9c-1.7,3.8-1.9,3.9-4.8,2.9
				c-1.9-0.7-2.8-1.6-2.5-2.4c0.3-0.8-0.1-1.4-0.9-1.4c-0.8,0-1.5,0.8-1.5,1.8s-0.5,2.3-1.1,2.9c-1.3,1.3-4.2,0.5-3.3-0.8
				c0.3-0.5-0.1-1.2-1-1.5s-2.5-2.1-3.6-4c-1.4-2.3-2.9-3.4-4.4-3.4c-1.6,0-3-1.1-4.4-3.4c-2.2-3.6-4.2-4.9-6.3-4
				c-2.4,0.9-5.7-3.4-5.7-7.3c0-4.4-1.5-6.6-5.1-7.5c-1.7-0.4-3-1.7-3.7-3.7c-0.6-1.7-1.7-3-2.4-3c-1.8,0-6-5.7-4.8-6.5
				c1.3-0.8,4.8-0.1,9.4,1.9c4.8,2,8.6,2,11.2,0.1c2.6-2,3.4-1.9,3.4,0.5c0,1.2,0.9,2.4,2.3,2.9c2.5,0.9,4.1,0.5,3.2-1
				c-0.3-0.5,0.1-0.9,1-0.9s1.6-0.5,1.6-1c0-0.6-1.1-0.8-2.5-0.4c-2.1,0.5-2.4,0.3-1.8-1.2c0.5-1.4,0.3-1.6-1-1.1s-1.2,0,0.6-2.4
				c2.1-2.8,2.3-2.9,2.6-1c0.4,2.6,0.4,2.6,23.9,4.7c10.6,1,19,2.1,18.7,2.5c-1,1.6,4.9,12,7.6,13.4c2.9,1.5,6.8,8.7,7.7,14.2
				c0.4,2.4,1.5,3.8,3.9,5.3c2.9,1.7,3.3,2.4,2.8,4.9c-0.3,1.7-0.1,3.2,0.5,3.6c0.6,0.4,1.1,2.8,1.1,5.4c0,5.3,3,10.5,5,8.6
				c0.8-0.8,0.5-1.8-0.9-3.7c-2-2.5-2.9-9.8-1.2-9.8c1.6,0,7.2,7.9,7.8,11c0.3,1.7,1.2,3,2,3c0.9,0,1.4,1.1,1.3,3.3
				c-0.1,4.6,1.1,11,2.3,12.5c0.6,0.8,0.6,2.5-0.2,4.9c-1.1,3.4-0.9,4.2,2.2,10.5c1.8,3.8,4,7.1,4.9,7.4c0.8,0.3,1.6,1.5,1.6,2.7
				c0.3,6.4,1.7,11.6,4.4,15.9c3.7,6,4.6,9.4,3,11.4c-0.9,1.1-1,3.4-0.5,8.2c0.9,8.4,3.3,12.2,7.8,12.3c1.8,0,2.6,0.3,1.9,0.6
				c-2,0.8-1.5,2.3,0.8,2.3c1.8,0,2-0.5,1.5-3.3c-0.3-1.8-0.1-3.9,0.4-4.7c0.8-1.2,2-0.4,6,3.9c2.8,2.9,5.1,5.9,5.1,6.7
				c0,0.8,1,1.4,2.5,1.4c1.9,0,2.5,0.5,2.5,2.2c0,1.2,0.6,4.7,1.3,7.7c1,4.4,1.9,5.8,4.4,7.3c5.4,3.2,5.6,12,0.4,17.5
				c-1.2,1.2-2.8,2.3-3.6,2.3s-3.4,1.1-5.9,2.5s-4.7,2.5-4.9,2.5C228.425,374.6606,227.225,373.5605,225.925,372.1606z"/>
			<path id="path7317_1_" class="st0" d="M234.225,325.9606c-1.5-4.9-0.9-5.3,1.6-1.1c2.4,3.9,2.5,4.9,0.8,4.9
				C236.025,329.6606,234.925,327.9606,234.225,325.9606z"/>
			<path id="path7313_1_" class="st0" d="M173.625,316.8606c-1.8-2-2.1-3.2-0.8-3.2c0.5,0,1.6,1.1,2.5,2.5
				C177.225,319.0605,176.025,319.5605,173.625,316.8606z"/>
			<path id="path7311_1_" class="st0" d="M218.625,315.1606c-2.2-4.7-2.1-4.8,0.8-1.9c1.4,1.4,2.5,3.2,2.5,4
				C221.925,319.7606,220.325,318.7606,218.625,315.1606z"/>
			<path id="path7309_1_" class="st0" d="M167.425,309.9606c-2.9-2.4-2.9-2.5-0.5-1.8c3,0.8,5.5,3,4.3,3.8
				C170.825,312.2606,169.125,311.3606,167.425,309.9606z"/>
			<path id="path7305_1_" class="st0" d="M161.925,306.1606c-0.7-0.8-1.4-2.5-1.5-3.8c-0.4-3.6-0.4-3.7-2-3.1
				c-1.7,0.7-1.9-0.8-0.6-3.4c0.5-1,1.6-3.3,2.3-5.2c0.8-1.9,1.9-4.6,2.6-6c1.1-2.3,1.1-2.2,0.5,1c-0.3,1.9-1.3,4.8-2.1,6.4
				c-1.1,2.2-1.2,3.4-0.4,5.3c0.6,1.3,1.1,3.4,1.1,4.7c0,1.2,0.5,2.8,1.2,3.4c0.7,0.7,0.9,1.4,0.6,1.7
				C163.425,307.4606,162.625,307.0605,161.925,306.1606z"/>
			<path id="path7303_1_" class="st0" d="M213.125,301.0605c-1.2-0.8-2.2-2-2.2-2.6s-0.7-1.9-1.7-2.9c-2.1-2.3-1.3-3.1,1.8-2
				c1.6,0.6,2.8,2.2,3.6,4.7c0.6,2.1,1,3.9,0.9,4.1C215.425,302.4606,214.325,301.9606,213.125,301.0605z"/>
			<path id="path7301_1_" class="st0" d="M209.925,286.7606c0-0.5,0.5-1.2,1-1.6c0.6-0.3,1,0.1,1,0.9s-0.4,1.6-1,1.6
				C210.425,287.6606,209.925,287.2606,209.925,286.7606z"/>
			<path id="path7299_1_" class="st0" d="M164.025,278.9606c0-1,0.5-2.7,0.9-3.8c0.7-1.7,0.9-1.5,0.9,1.2c0,1.8-0.4,3.5-0.9,3.8
				C164.425,280.4606,163.925,279.9606,164.025,278.9606z"/>
			<path id="path7295_1_" class="st0" d="M208.225,273.0605c-0.3-0.9-0.2-2,0.4-2.6c0.7-0.7,1.2-0.2,1.5,1.6
				C210.725,274.8606,209.225,275.6606,208.225,273.0605z"/>
			<path id="path7293_1_" class="st0" d="M199.925,270.1606c0-0.8,0.5-1.5,1-1.5c0.6,0,1,0.7,1,1.5c0,0.8-0.4,1.5-1,1.5
				C200.425,271.6606,199.925,270.9606,199.925,270.1606z"/>
			<path id="path7291_1_" class="st0" d="M194.925,262.6606c0-2.2,3.1-7,4.5-7c2.3,0,1.8,2.6-1.1,5.5
				C195.625,263.8606,194.925,264.1606,194.925,262.6606z"/>
		</g>
		<path id="path7287_1_" class="st0" d="M171.925,210.0606c0-0.9,0.5-1.3,1-0.9c0.6,0.3,1,1,1,1.6c0,0.5-0.4,0.9-1,0.9
			C172.425,211.6606,171.925,210.9606,171.925,210.0606z"/>
	</g>
	<path id="path7281_1_" class="st0" d="M152.925,157.1606c-1.6-1.9,0-1.9,2.6,0c1.6,1.2,1.7,1.5,0.3,1.5
		C154.925,158.6606,153.625,157.9606,152.925,157.1606z"/>
	<g id="g7439_1_">
		<path id="path7285_1_" class="st0" d="M130.625,176.6606c-9.2-0.9-17-1.9-17.3-2.2c-0.3-0.3,0.2-2.1,1-4.1c1.3-3.2,1.3-3.6,0-3
			c-1.7,0.6-2.1-1.6-0.6-3.2c0.5-0.5,1.2-2.6,1.6-4.5c0.6-3.1,0.3-4-2.4-6.5c-1.7-1.6-4-5-5.1-7.6c-1.1-2.6-2.9-5-3.9-5.3
			c-1.1-0.3-2.4-1.8-3-3.3c-3-7.4-10.1-16.2-13.1-16.2c-0.9,0-3.3-1.7-5.2-3.8c-2-2.1-5.4-5.3-7.7-7.2c-3.4-2.9-4.1-4.1-4.1-7.1
			c0-2.3-0.5-3.9-1.5-4.2c-1-0.4-1.4-1.4-1.1-2.9c1.6-8,1.5-10.5-0.5-12.6c-1.1-1.2-1.8-2.6-1.5-3.1s0.1-1.2-0.4-1.5
			c-0.6-0.3-1,0.3-1,1.5c0,1.2-0.4,1.8-1,1.5c-0.6-0.3-1-3.7-1-7.5c0-6.6-2.2-14-4.2-14c-0.4,0-0.8-2.3-0.8-5
			c0-3.8-0.8-6.4-3.1-10.5c-1.7-3-3.5-5.7-4-6s-0.9-2-0.9-3.8s-0.5-3.8-1.2-4.4c-0.7-0.7-0.9-1.5-0.5-1.9s1.2-0.2,1.9,0.5
			c1.7,1.7,2.8,1.4,2.8-0.8c0-1.1-0.7-2-1.5-2s-1.5-0.5-1.5-1s-0.9-2-1.9-3.1s-2.2-3.9-2.6-6.2c-0.4-2.3-1.7-6.3-3.1-8.9
			c-1.3-2.6-2.4-5.2-2.4-5.8c0-1.4,9.1-1.3,38.5,0.5c29.3,1.8,35.5,2.4,35.5,3.4c0,0.4-2.3,3.1-5,5.9c-3.9,4.1-4.8,5.6-4.1,6.9
			c2.8,5.5,1.7,14.7-1.7,13.5c-1.5-0.6-1.5-0.4-0.2,1.3c0.8,1,2.3,2.7,3.3,3.7c1.9,1.9,2.3,4.8,0.9,6.3c-1.6,1.8-3.3,9-3.3,14
			c-0.1,7.5,0.1,8.6,1.6,9.1c1.1,0.4,1.3,3.6,0.9,17c-0.4,14-0.2,16.5,1.1,17c0.8,0.3,1.5,1.2,1.5,1.9c0,0.7,0.7,2,1.6,2.9
			s1.3,2.2,1,3c-0.6,1.5,0.8,2.8,3.3,3.2c0.8,0.1,1.9,1,2.4,2s2,2.8,3.2,4c1.2,1.2,3.3,3.7,4.6,5.5c1.3,1.8,3.8,4.6,5.7,6.2
			c1.8,1.6,3.2,3.6,3.1,4.5c-0.1,0.9,0.2,2.9,0.6,4.5c0.5,1.9,0.4,3.1-0.4,3.6c-0.9,0.5-0.9,1.5-0.1,3.5c1,2.7,1.1,2.7,2.5,0.9
			c1.6-2.2,3.1-1.2,3.1,1.9c0,1.5,0.6,2.2,2,2.2c1.7,0,2,0.7,2.1,4.3c0.2,5,1.4,6.9,5.4,7.7c2.5,0.5,3,1.3,3.6,4.6
			c0.3,2.2,1,4.2,1.5,4.5s0.9,2.3,0.9,4.5c0,3.9,0,3.9-3.8,3.8C149.125,178.4606,139.925,177.6606,130.625,176.6606z"/>
		<path id="path7283_1_" class="st0" d="M75.125,169.2606c-3.6-2-3.7-2.4-0.9-3.5c2-0.7,2.6-1.7,2.7-3.8c0-3.5,1.6-6.5,2.3-4.2
			c1.4,4.3,1.5,6.8,0.4,9.7C78.425,170.9606,78.425,170.9606,75.125,169.2606z"/>
		<path id="path7275_1_" class="st0" d="M2.925,148.6606c0-1.4-0.7-3.6-1.5-5c-1.9-3.3-1.9-7.4,0-9c1.3-1.1,1.5-0.8,1.5,1.8
			c0,1.7,0.5,3.2,1,3.4c1.8,0.6,2.2,7.2,0.6,9.3C3.025,151.1606,3.025,151.1606,2.925,148.6606z"/>
		<path id="path7273_1_" class="st0" d="M143.925,139.5606c-2.2-2.4-4.9-5.3-5.9-6.4c-3.1-3.4-4.6-11.4-2.3-12.2
			c1.6-0.6,6.2,4.4,6.1,6.7c-0.2,3.4,0.3,4,2.9,4s2.8,0.3,2.4,3.4c-0.2,1.9,0.1,4.4,0.8,5.6
			C150.025,144.5606,148.025,144.0606,143.925,139.5606z"/>
	</g>
	<g id="g7428_1_">
		<g id="g7399_1_">
			<path id="path7279_1_" class="st0" d="M162.525,156.2606c0.3-0.9,1-1.6,1.6-1.6c1.3,0,0.5,2.3-1,2.8
				C162.425,157.6606,162.125,157.2606,162.525,156.2606z"/>
			<path id="path7277_1_" class="st0" d="M167.725,153.2606c-4.8-2.5-4.9-2.6-2.8-5.3c1.1-1.4,2-3.8,2-5.4c0-3.4,4.7-6.6,6.6-4.5
				c2.1,2.3,2.5,8.9,0.6,12.8C172.225,155.0606,171.625,155.2606,167.725,153.2606z"/>
		</g>
		<g id="g7405_1_">
			<path id="path7289_1_" class="st0" d="M258.525,246.8606c0.6-4.5,0.5-5.1-1.5-5.7c-2.9-0.9-4.7-4.3-2.5-4.7
				c1.4-0.3,1.3-0.7-0.6-2.8c-1.5-1.8-2-2-1.6-0.7c0.5,1.5,0.3,1.6-1.7,0.6c-2.2-1.2-2.2-1.2-0.3,1c1,1.2,1.4,2.1,0.8,2.1
				s-1.4-0.5-1.8-1.1s-1.2-0.9-1.9-0.6c-0.7,0.3-1.7,0.2-2.4-0.2c-1.6-1-6.4-12.1-5.2-12.1c0.5,0,1-0.4,1-1c0-1.3-6.3-3.9-7-2.9
				c-0.3,0.4-3.2-0.5-6.5-2.1c-3.3-1.6-5.6-2.9-5.1-2.9s0.3-0.7-0.4-1.6c-0.7-0.8-1.4-3.2-1.6-5.2s-0.8-3.9-1.4-4.1
				c-1.3-0.4-1.4-4.2-0.1-4.2c0.5,0,0.9-1,0.8-2.3c0-1.2,0.2-2.9,0.6-3.8c0.4-1-0.3-2.2-2-3.4c-2.3-1.7-2.6-1.7-2-0.2
				c0.6,1.6,0.5,1.6-1.8,0.1c-1.5-1-2.5-2.6-2.5-4.1s-0.4-2.2-1.1-1.8c-0.6,0.4-0.9,1.2-0.6,1.9c0.3,0.7,0.1,1.9-0.5,2.6
				c-0.8,1.2-1.3,1-2.9-1c-1.1-1.3-2-3-2-3.8c0-1.1-0.4-1.2-1.9-0.4c-2.3,1.2-2.4,1.1-4.2-5.8c-1.2-4.9-1.7-5.5-5.6-7.2
				c-2.5-1.1-4.3-2.5-4.3-3.4c0-0.9-1.1-3.1-2.5-4.9c-2.9-3.8-3.2-5.6-0.9-5.6c0.9,0,1.3-0.5,0.9-1.1c-0.4-0.6-1.3-0.8-2-0.6
				c-1.4,0.5-7.3-5.5-7.6-7.7c-0.1-0.7-0.2-2.4-0.3-3.9c-0.3-4.6-2.5-8.7-4.8-9c-1.8-0.3-2.2-1-2.2-4.8c0-3.5-0.7-5.5-3.4-9.3
				c-1.9-2.6-3.8-4.8-4.2-4.8s-0.8-3.8-0.8-8.4c-0.1-9.5-0.5-11.2-2.9-11.8c-1.1-0.3-2.2-2.3-3-5.5c-0.7-2.8-2.8-7.4-4.7-10.4
				c-2.4-3.8-3.4-6.5-3.4-9.3c0-2.3-0.7-4.7-1.7-5.9c-1.6-1.8-1.6-2,0-2.9c2.3-1.3,2.2-2.5-0.4-5.2l-2.1-2.2l0.7,2.3
				c0.8,2.5-0.9,3.1-1.8,0.7c-0.3-0.9-1-1.3-1.4-1.1c-0.4,0.3-3.9-0.3-7.8-1.2c-6.5-1.6-6.9-1.8-6.7-4.3c0.2-1.9-0.3-2.9-2.3-3.7
				c-1.4-0.6-2.9-1.9-3.2-2.8c-0.4-1-0.9-1.2-1.3-0.5c-0.8,1.4-8.1-3.4-8.1-5.4c0-0.8-1.1-2.3-2.5-3.3c-2.2-1.7-2.4-2.3-1.5-4.9
				c1-2.9,0.8-8.3-0.5-11.4c-0.4-1,0.2-2.6,1.6-4.2l2.3-2.6l16.5,8.6c9.1,4.7,23,12.1,31,16.3c62.2,33.2,61.1,32.7,68,33.3
				c27.6,2.3,56,4.9,58.8,5.3s3.1,0.8,2.2,2.4c-0.6,1-0.6,2.1-0.2,2.4c0.5,0.3,1.4,5.4,2.1,11.3c0.7,5.9,1.9,12.8,2.8,15.3
				c1.2,3.6,1.4,7.3,0.9,18c-0.7,16.2-1.3,19.1-3.5,18.8c-1.2-0.2-1.6,0.5-1.5,2.7c0.1,2.6,0.2,15.3,0.2,28c0,2.2,0.2,4.9,0.3,6
				c0.3,1.9-0.1,2-6.7,1.7c-8.9-0.4-10,0.5-8.4,7.4c0.6,2.6,2.5,7.3,4.3,10.4c5.8,9.9,7.2,14.5,5.6,18.8c-1,2.6,1.2,9.3,3,9.3
				c0.6,0,1.1,1.3,1.1,2.9c0,3.9-6.5,11.1-15,16.7c-3.7,2.4-7,4.4-7.3,4.4c-0.4,0-0.6-1.2-0.6-2.6c0-3.2-2.2-2.8-3,0.6
				c-0.3,1.3-1.1,2.5-1.8,2.8C258.125,251.7606,258.025,250.6606,258.525,246.8606z"/>
			<path id="path3930_1_" class="st0" d="M111.125,47.1606c-2.6-5.7-0.6-7.2,3.4-2.7c1.8,2,2.3,2.2,1.8,0.8
				c-0.5-1.3-0.3-1.7,0.5-1.2c1.6,1,1.5,2.2-0.4,4C114.125,50.3606,112.425,50.0606,111.125,47.1606z"/>
		</g>
	</g>
</g>
</svg>
