<!-- Generator: Adobe Illustrator 19.0.0, SVG Export Plug-In  -->
<svg version="1.1"
	 xmlns="http://www.w3.org/2000/svg" xmlns:xlink="http://www.w3.org/1999/xlink" xmlns:a="http://ns.adobe.com/AdobeSVGViewerExtensions/3.0/"
	 x="0px" y="0px" width="31.68px" height="72px" viewBox="0 0 31.68 72" style="enable-background:new 0 0 31.68 72;"
	 xml:space="preserve">
<style type="text/css">
	.st0{fill:#597996;}
</style>
<defs>
</defs>
<g id="XMLID_15_">
	<g id="XMLID_16_">
		<path id="XMLID_18_" class="st0" d="M31.68,15.84C31.68,7.1064,24.5736,0,15.84,0S0,7.1064,0,15.84
			c0,8.2483,6.3389,15.0365,14.4,15.7666V70.56c0,0.7963,0.6451,1.44,1.44,1.44c0.7949,0,1.44-0.6437,1.44-1.44V31.6066
			C25.3411,30.8765,31.68,24.0883,31.68,15.84z M15.84,28.8c-7.1453,0-12.96-5.8147-12.96-12.96S8.6947,2.88,15.84,2.88
			c7.1467,0,12.96,5.8147,12.96,12.96S22.9867,28.8,15.84,28.8z"/>
		<path id="XMLID_17_" class="st0" d="M15.84,11.52c-0.7949,0-1.44,0.6451-1.44,1.44s0.6451,1.44,1.44,1.44
			c0.7934,0,1.44,0.6466,1.44,1.44c0,0.7949,0.6437,1.44,1.44,1.44s1.44-0.6451,1.44-1.44C20.16,13.4582,18.2218,11.52,15.84,11.52z
			"/>
	</g>
</g>
</svg>
